<svg width="2627" height="713" viewBox="0 0 2627 713" fill="none" xmlns="http://www.w3.org/2000/svg">
<path fill-rule="evenodd" clip-rule="evenodd" d="M204.5 700.509C190.333 672.195 176.5 598.88 234.5 534.125L380.5 356.75C383 334.765 368 287.299 265 269.811L392 273.308C424.5 269.145 496.5 242.83 524.5 170.88C525.5 163.385 520 160.887 497 168.882L498.5 178.375C484.833 199.36 441.2 244.529 376 257.32L222 259.318L76.5 241.83L88.5 216.848L142 207.854L76 212.351L60 207.854L74.5 160.388L205 197.861L267.5 187.868C289.833 173.378 349.4 138.603 409 115.419L466.5 150.395L431.5 112.421V107.924C435.167 104.76 443.5 96.1326 447.5 86.939C448.167 73.7816 459.3 46.8671 498.5 44.4688C537.7 42.0705 559.5 63.4555 565.5 74.4478L599 76.4464L568.5 91.4359L586 97.9313L570 105.426C566.833 107.092 560.8 112.021 562 118.417C560.924 122.163 559.822 126.248 558.647 130.607C543.993 184.967 517.848 281.953 385 296.292L412.5 374.737C416 377.402 422.9 385.03 422.5 394.224V408.713C422.167 412.711 418.6 424.502 407 439.692L308 600.079C282 680.523 386.5 732.986 433 658.039L505 464.674C509.667 453.515 524.9 432.896 548.5 439.692L579.5 452.683L524.5 700.509H204.5ZM533.827 79.6838C539.806 83.1318 546.332 83.0206 548.402 79.4355C550.472 75.8504 547.303 70.1489 541.324 66.7008C535.344 63.2528 528.819 63.3639 526.749 66.9491C524.678 70.5342 527.847 76.2357 533.827 79.6838Z" fill="white"/>
<path d="M2508 701.008V32.4772C2508 24.9825 2516.5 10.4926 2534.5 10.4926H2627V680.023C2627 688.018 2614.4 701.008 2600 701.008H2508Z" fill="black"/>
<path d="M2167 10.4926V701.008H2248.5C2257 701.008 2274 692.015 2274 680.023L2287 401.718H2343L2356 680.023C2356 689.516 2369.5 701.008 2381.5 701.008H2462V10.4926H2381C2369 10.4926 2355 20.4856 2355 32.4772L2343 306.285H2287L2274.5 32.4772C2274.5 24.9825 2265.4 10.4926 2247 10.4926H2167Z" fill="black"/>
<path d="M1831 600.079C1831.33 633.223 1866.07 713 1977 713C2087.93 713 2125.17 632.723 2125.5 599.58V354.252H1976V392.725C1976 400.219 1984.8 414.709 2004 414.709H2028L2019 600.079C2019 623.063 1950.5 622.563 1950.5 600.079V112.921C1954 90.9362 2001.5 90.4366 2006.5 112.921L2026.5 247.327C2026.5 264.315 2044.5 274.308 2053.5 274.308H2125.5V110.423C2125.5 68.452 2073 0 1977 0C1881 0 1831 70.9502 1831 112.921V600.079Z" fill="black"/>
<path fill-rule="evenodd" clip-rule="evenodd" d="M1487 701.008V10.4926H1652C1696 10.4926 1779.5 56.4604 1779.5 115.919L1781 318.277C1781 333.766 1760 353.752 1748 353.752C1760 353.752 1781 373.738 1781 389.227L1798 701.008H1712.5C1701.5 701.008 1688 690.516 1688 680.523L1662 421.205C1661.5 414.543 1654.8 401.219 1632 401.219H1606V680.523C1606 687.518 1595.5 701.008 1579 701.008H1487ZM1606 106.425V306.285H1637.5C1652.7 306.285 1662 292.795 1662 288.298V126.411C1662 114.42 1646.5 106.425 1638 106.425H1606Z" fill="black"/>
<path d="M806.5 600.079C806.833 633.223 841.573 713 952.5 713C1071.5 713 1101 626.061 1101 600.079V439.192H1026.5C1014.5 439.192 1004.5 449.685 1003.5 454.681L981 600.079C977.5 622.563 926 621.564 926 600.079V112.921C926 90.9362 981 89.4373 981 112.921L1003 254.821C1003 260.817 1011.5 274.807 1032.5 274.807H1100.5V112.921C1100.5 45.4681 1027.5 2.8261e-05 952.5 0C856.5 0 806.5 70.9502 806.5 112.921V600.079Z" fill="black"/>
<path fill-rule="evenodd" clip-rule="evenodd" d="M1147 600.079C1147.33 633.223 1182.07 713 1293 713C1403.93 713 1438.67 633.223 1439 600.079V112.921C1439 70.9502 1389 0 1293 0C1197 0 1147 70.9502 1147 112.921V600.079ZM1266.5 600.079V112.921C1266.5 90.9362 1322.5 90.4366 1322.5 112.921V600.079C1322.5 622.563 1266.5 622.064 1266.5 600.079Z" fill="black"/>
<path d="M562 10.9923H128C57.3076 10.9923 0 68.2597 0 138.903V572.598C0 643.241 57.3076 700.509 128 700.509H204.5C190.333 672.195 176.5 598.88 234.5 534.125L380.5 356.75C383 334.765 368 287.299 265 269.811L392 273.308C424.5 269.145 496.5 242.83 524.5 170.88C525.5 163.385 520 160.887 497 168.882L498.5 178.375C484.833 199.36 441.2 244.529 376 257.32L222 259.318L76.5 241.83L88.5 216.848L142 207.854L76 212.351L60 207.854L74.5 160.388L205 197.861L267.5 187.868C289.833 173.378 349.4 138.603 409 115.419L466.5 150.395L431.5 112.421V107.924C435.167 104.76 443.5 96.1326 447.5 86.939C448.167 73.7816 459.3 46.8671 498.5 44.4688C537.7 42.0705 559.5 63.4555 565.5 74.4478L599 76.4464L568.5 91.4359L586 97.9313L570 105.426C566.833 107.092 560.8 112.021 562 118.417C560.924 122.163 559.822 126.248 558.647 130.607C543.993 184.967 517.848 281.953 385 296.292L412.5 374.737C416 377.402 422.9 385.03 422.5 394.224V408.713C422.167 412.711 418.6 424.502 407 439.692L308 600.079C282 680.523 386.5 732.986 433 658.039L505 464.674C509.667 453.515 524.9 432.896 548.5 439.692L579.5 452.683L524.5 700.509H562C632.692 700.509 690 643.241 690 572.598V138.903C690 68.2597 632.692 10.9923 562 10.9923Z" fill="black"/>
<path d="M548.402 79.4355C546.332 83.0206 539.806 83.1318 533.827 79.6838C527.847 76.2357 524.678 70.5342 526.749 66.9491C528.819 63.3639 535.344 63.2528 541.324 66.7008C547.303 70.1489 550.472 75.8504 548.402 79.4355Z" fill="black"/>
</svg>
