<svg width="2627" height="714" viewBox="0 0 2627 714" fill="none" xmlns="http://www.w3.org/2000/svg">
<path fill-rule="evenodd" clip-rule="evenodd" d="M204.5 701C190.333 672.667 176.5 599.3 234.5 534.5L380.5 357C383 335 368 287.5 265 270L392 273.5C424.5 269.333 496.5 243 524.5 171C525.5 163.5 520 161 497 169L498.5 178.5C484.833 199.5 441.2 244.7 376 257.5L222 259.5L76.5 242L88.5 217L142 208L76 212.5L60 208L74.5 160.5L205 198L267.5 188C289.833 173.5 349.4 138.7 409 115.5L466.5 150.5L431.5 112.5V108C435.167 104.833 443.5 96.2 447.5 87C448.167 73.8333 459.3 46.9 498.5 44.5C537.7 42.1 559.5 63.5 565.5 74.5L599 76.5L568.5 91.5L586 98L570 105.5C566.833 107.167 560.8 112.1 562 118.5C560.924 122.249 559.822 126.336 558.647 130.698C543.993 185.096 517.848 282.151 385 296.5L412.5 375C416 377.667 422.9 385.3 422.5 394.5V409C422.167 413 418.6 424.8 407 440L308 600.5C282 681 386.5 733.5 433 658.5L505 465C509.667 453.833 524.9 433.2 548.5 440L579.5 453L524.5 701H204.5ZM533.827 79.7396C539.806 83.1901 546.332 83.0789 548.402 79.4912C550.472 75.9036 547.303 70.1981 541.324 66.7476C535.344 63.2971 528.819 63.4084 526.749 66.996C524.678 70.5837 527.847 76.2892 533.827 79.7396Z" fill="#FE0000"/>
<path d="M2508 701.5V32.5C2508 25 2516.5 10.5 2534.5 10.5H2627V680.5C2627 688.5 2614.4 701.5 2600 701.5H2508Z" fill="#FFED00"/>
<path d="M2167 10.5V701.5H2248.5C2257 701.5 2274 692.5 2274 680.5L2287 402H2343L2356 680.5C2356 690 2369.5 701.5 2381.5 701.5H2462V10.5H2381C2369 10.5 2355 20.5 2355 32.5L2343 306.5H2287L2274.5 32.5C2274.5 25 2265.4 10.5 2247 10.5H2167Z" fill="#FFED00"/>
<path d="M1831 600.5C1831.33 633.667 1866.07 713.5 1977 713.5C2087.93 713.5 2125.17 633.167 2125.5 600V354.5H1976V393C1976 400.5 1984.8 415 2004 415H2028L2019 600.5C2019 623.5 1950.5 623 1950.5 600.5V113C1954 91 2001.5 90.5 2006.5 113L2026.5 247.5C2026.5 264.5 2044.5 274.5 2053.5 274.5H2125.5V110.5C2125.5 68.5 2073 0 1977 0C1881 0 1831 71 1831 113V600.5Z" fill="#FFED00"/>
<path fill-rule="evenodd" clip-rule="evenodd" d="M1487 701.5V10.5H1652C1696 10.5 1779.5 56.5 1779.5 116L1781 318.5C1781 334 1760 354 1748 354C1760 354 1781 374 1781 389.5L1798 701.5H1712.5C1701.5 701.5 1688 691 1688 681L1662 421.5C1661.5 414.833 1654.8 401.5 1632 401.5H1606V681C1606 688 1595.5 701.5 1579 701.5H1487ZM1606 106.5V306.5H1637.5C1652.7 306.5 1662 293 1662 288.5V126.5C1662 114.5 1646.5 106.5 1638 106.5H1606Z" fill="#FFED00"/>
<path d="M806.5 600.5C806.833 633.667 841.573 713.5 952.5 713.5C1071.5 713.5 1101 626.5 1101 600.5V439.5H1026.5C1014.5 439.5 1004.5 450 1003.5 455L981 600.5C977.5 623 926 622 926 600.5V113C926 91 981 89.5 981 113L1003 255C1003 261 1011.5 275 1032.5 275H1100.5V113C1100.5 45.5 1027.5 2.82808e-05 952.5 0C856.5 0 806.5 71 806.5 113V600.5Z" fill="#FFED00"/>
<path fill-rule="evenodd" clip-rule="evenodd" d="M1147 600.5C1147.33 633.667 1182.07 713.5 1293 713.5C1403.93 713.5 1438.67 633.667 1439 600.5V113C1439 71 1389 0 1293 0C1197 0 1147 71 1147 113V600.5ZM1266.5 600.5V113C1266.5 91 1322.5 90.5 1322.5 113V600.5C1322.5 623 1266.5 622.5 1266.5 600.5Z" fill="#FFED00"/>
<path d="M562 11H128C57.3076 11 0 68.3076 0 139V573C0 643.692 57.3076 701 128 701H204.5C190.333 672.667 176.5 599.3 234.5 534.5L380.5 357C383 335 368 287.5 265 270L392 273.5C424.5 269.333 496.5 243 524.5 171C525.5 163.5 520 161 497 169L498.5 178.5C484.833 199.5 441.2 244.7 376 257.5L222 259.5L76.5 242L88.5 217L142 208L76 212.5L60 208L74.5 160.5L205 198L267.5 188C289.833 173.5 349.4 138.7 409 115.5L466.5 150.5L431.5 112.5V108C435.167 104.833 443.5 96.2 447.5 87C448.167 73.8333 459.3 46.9 498.5 44.5C537.7 42.1 559.5 63.5 565.5 74.5L599 76.5L568.5 91.5L586 98L570 105.5C566.833 107.167 560.8 112.1 562 118.5C560.924 122.249 559.822 126.336 558.647 130.698C543.993 185.096 517.848 282.151 385 296.5L412.5 375C416 377.667 422.9 385.3 422.5 394.5V409C422.167 413 418.6 424.8 407 440L308 600.5C282 681 386.5 733.5 433 658.5L505 465C509.667 453.833 524.9 433.2 548.5 440L579.5 453L524.5 701H562C632.692 701 690 643.692 690 573V139C690 68.3076 632.692 11 562 11Z" fill="#FFED00"/>
<path d="M548.402 79.4912C546.332 83.0789 539.806 83.1901 533.827 79.7396C527.847 76.2892 524.678 70.5837 526.749 66.996C528.819 63.4084 535.344 63.2971 541.324 66.7476C547.303 70.1981 550.472 75.9036 548.402 79.4912Z" fill="#FFED00"/>
</svg>
