<svg width="47" height="47" viewBox="0 0 47 47" fill="none" xmlns="http://www.w3.org/2000/svg">
<path d="M9.70652 0.5H37.2935C42.3781 0.5 46.5 4.6219 46.5 9.70652V37.2935C46.5 42.3781 42.3781 46.5 37.2935 46.5H9.70652C4.6219 46.5 0.5 42.3781 0.5 37.2935V9.70652C0.5 4.6219 4.6219 0.5 9.70652 0.5Z" fill="white" stroke="#EAEAEA"/>
<path d="M9.69336 17.5522L19.7837 11.5963C19.9537 11.4979 20.1641 11.6195 20.1641 11.8162V18.2236C20.1641 18.6548 19.9364 19.0513 19.5648 19.2684L9.702 25.0564" fill="url(#paint0_linear_20_230)"/>
<path d="M30.6895 37.5355V25.7799C30.6895 25.3343 30.9315 24.9262 31.3233 24.7149L36.8353 21.737C37.0053 21.6444 37.2099 21.7688 37.2099 21.9598C37.2099 27.1459 37.2099 32.332 37.2099 37.5182" fill="url(#paint1_linear_20_230)"/>
<path d="M23.25 7.00927V25.7192C23.25 26.0317 23.59 26.2256 23.858 26.0665L39.7081 16.5711C39.9703 16.4149 39.9674 16.03 39.7024 15.8766L23.8522 6.6591C23.5842 6.50282 23.25 6.69672 23.25 7.00927Z" fill="black"/>
<path fill-rule="evenodd" clip-rule="evenodd" d="M16.2578 34.9907H18.1579V32.0121H17.4695V30.3255H19.2358V33.5422H21.3194V30.3255H23.087V33.5394H25.8958H28.7229V28.6288L15.3858 28.6288V32.0121H14.1466V28.6288H12.063V33.5422H16.2578V34.9907ZM25.088 30.3255V32.0121H26.7219V30.3255H25.088Z" fill="black"/>
<defs>
<linearGradient id="paint0_linear_20_230" x1="9.69371" y1="18.3086" x2="27.5665" y2="18.3086" gradientUnits="userSpaceOnUse">
<stop offset="0.0360569" stop-color="#BC4D51"/>
<stop offset="0.8521" stop-color="#6F2325"/>
</linearGradient>
<linearGradient id="paint1_linear_20_230" x1="33.95" y1="37.5358" x2="33.95" y2="21.7072" gradientUnits="userSpaceOnUse">
<stop stop-color="#BC4D51"/>
<stop offset="0.2177" stop-color="#B74A4E"/>
<stop offset="0.4695" stop-color="#A94346"/>
<stop offset="0.7372" stop-color="#923639"/>
<stop offset="1" stop-color="#742628"/>
</linearGradient>
</defs>
</svg>
