<svg width="136" height="42" viewBox="0 0 136 42" fill="none" xmlns="http://www.w3.org/2000/svg">
<path d="M129.204 16.0476H135.387C134.605 10.0302 130.21 6.86719 124.102 6.86719C117.919 6.86719 113.785 10.1459 113.785 15.7776C113.785 22.1808 119.111 23.6078 121.941 24.1867C125.591 24.9195 129.167 24.9967 129.167 28.2367C129.167 30.4354 127.379 31.5154 124.847 31.5154C121.718 31.5154 119.633 29.8954 119.111 26.964H113.003C113.375 33.2899 117.808 36.6843 124.325 36.6843C130.359 36.6843 135.312 33.83 135.312 27.6582C135.312 21.0235 129.614 19.8278 125.629 19.2106C122.91 18.7864 119.93 18.4006 119.93 15.4304C119.93 13.3475 121.457 12.0746 124.027 12.0746C127.007 12.0746 128.794 13.8105 129.204 16.0476Z" fill="white"/>
<path d="M109.613 7.83008H103.765V35.7955H109.613V7.83008Z" fill="white"/>
<path d="M86.1123 26.0379H93.7475C92.5556 29.0468 89.8739 30.4738 86.7827 30.4738C81.3452 30.4738 78.8126 26.1151 78.8126 21.7949C78.8126 17.4361 81.1961 13.0002 86.7455 13.0002C90.1348 13.0002 92.6672 14.6203 93.6357 17.5133L99.9299 17.5133C98.8499 10.9945 93.3377 7.25293 86.8201 7.25293C78.7753 7.25293 72.7417 12.923 72.7417 21.8721C72.7417 30.9368 79.2966 36.2984 86.7827 36.2984C94.1571 36.2984 99.9299 31.3225 99.9299 23.5308V21.2549H86.1123V26.0379Z" fill="white"/>
<path d="M59.3699 7.25293C52.666 7.25293 47.7125 11.6116 47.7497 18.8633H53.7833C53.7088 15.7004 55.6454 12.8074 59.0719 12.8074C62.0515 12.8074 63.802 14.9675 63.802 17.4361C63.802 19.9048 62.0515 21.2935 58.8112 22.7979C54.3791 24.8422 51.2135 26.1537 47.9731 27.311V35.797H70.5432V30.0881H55.0486C55.0486 30.0881 55.1002 30.0714 55.1256 30.0635C57.761 29.2364 59.7409 28.3379 62.0888 27.2723C67.1167 24.958 69.9845 22.0649 69.9845 17.1276C69.9845 11.0715 65.6642 7.25293 59.3699 7.25293Z" fill="white"/>
<path d="M31.8203 24.9922C24.2379 25.0294 23.0114 29.5969 22.6026 33.459L22.4168 35.1672H20.8928L20.707 33.459C20.2982 29.5969 19.0345 25.0293 11.7123 24.9922C10.4858 22.4669 9.96544 20.4244 9.96544 18.1221C9.96544 12.3662 14.6858 6.98144 21.6733 6.98144C28.6609 6.98144 33.307 12.3289 33.307 18.1594C33.307 20.4244 33.084 22.4669 31.8203 24.9922ZM21.5991 0C10.077 0 0.63623 9.43245 0.63623 20.9813C0.63623 32.5677 10.077 42 21.5991 42C33.2326 42 42.6362 32.5677 42.6362 20.9813C42.6362 9.43248 33.2326 0 21.5991 0Z" fill="#29B24A"/>
</svg>
