<svg width="37" height="35" viewBox="0 0 37 35" fill="none" xmlns="http://www.w3.org/2000/svg">
<g clip-path="url(#clip0_70_111)">
<path d="M36.8921 30.4168C37.0015 30.6307 37.0015 30.8445 36.9996 30.9504C36.9996 32.2295 35.9623 33.2411 34.6515 33.2411H34.3235C32.7392 33.1352 31.3737 30.8445 30.8814 30.2048C30.8814 30.2048 29.8421 30.8983 28.9141 31.484C25.8552 33.7209 22.1397 35 18.0978 35C13.6733 35 9.35816 33.4009 5.97073 30.4186C2.63827 27.4901 0.508941 23.4945 0.0167325 19.2329C-0.0928174 18.3814 0.342892 17.5818 1.10859 17.156C1.81779 16.7302 2.74571 16.7841 3.45664 17.3159C5.86137 19.127 8.70181 20.1383 11.3234 20.1383C14.3277 20.1383 17.2795 18.9671 19.6275 16.9422C20.5554 16.1427 21.9208 16.2506 22.6867 17.1021C23.505 18.0077 23.3957 19.339 22.5225 20.0845C19.4086 22.8548 15.4198 24.346 11.3779 24.346C9.52229 24.346 7.60976 23.9723 5.75201 23.2806C8.04739 27.7543 12.8528 30.7905 18.1526 30.7905C25.691 30.7905 31.864 24.8239 31.864 17.42C31.864 13.852 30.4438 10.5479 27.8769 8.04526C25.3082 5.59471 21.8681 4.20948 18.1526 4.20948C15.5311 4.20948 12.9643 4.90128 10.7783 6.28633C9.79578 6.92599 8.48501 6.60625 7.82848 5.64685C7.17405 4.68745 7.50232 3.40995 8.48501 2.77047C11.38 0.959401 14.7125 0 18.1545 0C22.9621 0 27.4959 1.81107 30.8834 5.06115C34.3254 8.3094 36.1831 12.7309 36.1831 17.4181C36.1831 18.0578 36.1284 18.6975 36.0738 19.2832C35.9642 21.5739 35.8549 25.0359 35.9642 26.1552C36.0717 27.9123 36.5641 29.5652 36.7828 30.0969L36.8921 30.4168ZM7.39105 9.43615C8.71599 9.43615 9.79176 10.4601 9.79176 11.7212C9.79176 12.9824 8.71599 14.0064 7.39105 14.0064C6.06592 14.0064 4.99014 12.9824 4.99014 11.7212C4.99014 10.4601 6.06592 9.43615 7.39105 9.43615ZM16.5136 9.4305C17.8387 9.4305 18.9145 10.4544 18.9145 11.7157C18.9145 12.9768 17.8387 14.0007 16.5136 14.0007C15.1886 14.0007 14.1129 12.9768 14.1129 11.7157C14.1129 10.4544 15.1886 9.4305 16.5136 9.4305Z" fill="black"/>
</g>
<defs>
<clipPath id="clip0_70_111">
<rect width="37" height="35" fill="white"/>
</clipPath>
</defs>
</svg>
