<svg width="148" height="42" viewBox="0 0 148 42" fill="none" xmlns="http://www.w3.org/2000/svg">
<path d="M30.483 41.9998C36.7147 41.9998 41.7664 36.9198 41.7664 30.6532C41.7664 24.3867 36.7147 19.3066 30.483 19.3066C24.2514 19.3066 19.1997 24.3867 19.1997 30.6532C19.1997 36.9198 24.2514 41.9998 30.483 41.9998Z" fill="#97CF26"/>
<path d="M9.27266 35.9343C12.1733 35.9343 14.5248 33.5696 14.5248 30.6527C14.5248 27.7357 12.1733 25.3711 9.27266 25.3711C6.37198 25.3711 4.02051 27.7357 4.02051 30.6527C4.02051 33.5696 6.37198 35.9343 9.27266 35.9343Z" fill="#A169F7"/>
<path d="M30.4823 16.628C34.4933 16.628 37.7448 13.3582 37.7448 9.32474C37.7448 5.29126 34.4933 2.02148 30.4823 2.02148C26.4713 2.02148 23.2197 5.29126 23.2197 9.32474C23.2197 13.3582 26.4713 16.628 30.4823 16.628Z" fill="#FF6163"/>
<path d="M9.27294 18.6498C14.3942 18.6498 18.5459 14.4749 18.5459 9.32492C18.5459 4.17491 14.3942 0 9.27294 0C4.15164 0 0 4.17491 0 9.32492C0 14.4749 4.15164 18.6498 9.27294 18.6498Z" fill="#00AAFF"/>
<path d="M71.1006 35.8732H76.9578L66.1103 6.1709H61.8618L51.0122 35.8742H56.87L58.9417 30.2044H69.0288L71.1006 35.8742L60.5731 25.7345L63.9858 16.3944L67.3964 25.7345H60.5731L71.1006 35.8732ZM91.4779 15.5949L86.0875 30.35L80.6997 15.5949H75.1962L82.6055 35.8732H89.5705L96.9788 15.5949H91.4769M99.2822 15.5949H104.786V35.8732H99.2822V15.5949Z" fill="white"/>
<path d="M102.053 13.2924C104.01 13.2924 105.596 11.6971 105.596 9.7292C105.596 7.76131 104.01 6.16602 102.053 6.16602C100.096 6.16602 98.5093 7.76131 98.5093 9.7292C98.5093 11.6971 100.096 13.2924 102.053 13.2924Z" fill="white"/>
<path d="M124.217 20.0638V15.5949H117.624V10.001H112.124V15.5949H107.772V20.0638H112.124V28.7883C112.124 33.2885 114.362 36.2922 120.076 36.2922C122.282 36.2922 124.217 35.4775 124.217 35.4775L123.549 31.099C123.549 31.099 122.465 31.4245 121.134 31.4245C119.501 31.4245 117.624 30.717 117.624 28.4476V20.0633L124.217 20.0638ZM136.837 31.238C133.769 31.238 131.283 28.7918 131.283 25.7745C131.283 22.7597 133.769 20.313 136.836 20.313C139.906 20.313 142.391 22.7602 142.391 25.775C142.391 28.7923 139.906 31.238 136.837 31.238ZM136.837 15.0774C130.872 15.0774 126.035 19.8359 126.035 25.7012C126.035 31.5691 130.872 36.325 136.837 36.325C142.799 36.325 147.636 31.5691 147.636 25.7012C147.636 19.8359 142.799 15.0774 136.836 15.0774" fill="white"/>
</svg>
