<svg width="29" height="35" viewBox="0 0 29 35" fill="none" xmlns="http://www.w3.org/2000/svg">
<g clip-path="url(#clip0_70_113)">
<path d="M10.6699 5.64125H15.3518C13.0109 6.87536 11.8321 9.32618 11.8321 12.594V13.4109H7.68149V18.2256H11.8321V25.3869C11.8321 26.7601 11.5 27.8204 10.8692 28.5678C10.2383 29.3152 9.35833 29.6802 8.24597 29.6628C7.64828 29.6628 7.0506 29.5412 6.48611 29.3152C5.91307 29.0861 5.36712 28.7886 4.85908 28.4287L2.2857 32.2701C3.28946 33.2235 4.50517 33.8987 5.82202 34.2342C6.91778 34.5123 8.04674 34.6688 9.1591 34.6688C10.1357 34.6582 11.1048 34.4881 12.0313 34.1647C13.0046 33.8335 13.8989 33.2882 14.6545 32.5656C15.4793 31.7664 16.1353 30.7954 16.5804 29.715C17.0785 28.5504 17.3109 27.1251 17.3109 25.4565V18.2083H21.8267L23.736 13.3935H17.3109V12.5766C17.3109 7.67492 19.8511 5.62387 23.7526 5.62387H28.833V-0.0947266L10.6699 -0.077345C7.7313 -0.077345 5.24093 0.791743 3.49768 2.63421C1.75443 4.44191 1.10693 6.82321 1.10693 9.1176H6.56913C6.56913 7.93564 6.90118 7.15347 7.34944 6.68416C7.81431 6.19747 8.74404 5.64125 10.6699 5.64125Z" fill="black"/>
<path d="M25.2045 33.8692C26.1378 33.8686 27.0327 33.4802 27.6927 32.7893C28.3526 32.0983 28.7236 31.1614 28.7242 30.1843C28.7236 29.2072 28.3526 28.2703 27.6927 27.5793C27.0327 26.8884 26.1378 26.5 25.2045 26.4994C24.2712 26.5 23.3763 26.8884 22.7163 27.5793C22.0564 28.2703 21.6854 29.2072 21.6848 30.1843C21.6854 31.1614 22.0564 32.0983 22.7163 32.7893C23.3763 33.4802 24.2712 33.8686 25.2045 33.8692Z" fill="#FF0000"/>
</g>
<defs>
<clipPath id="clip0_70_113">
<rect width="28.913" height="35" fill="white"/>
</clipPath>
</defs>
</svg>
