<svg width="121" height="35" viewBox="0 0 121 35" fill="none" xmlns="http://www.w3.org/2000/svg">
<path d="M34.1987 0H35.2392L36.211 8.90167L37.2401 18.235C37.5602 21.1361 37.7584 22.8861 37.8347 23.485C37.9109 24.0839 38.0176 24.9239 38.1548 26.005L39.241 34.4633L38.2806 34.3933C38.0716 34.4171 37.8607 34.4171 37.6517 34.3933H36.9314H36.131H35.4793L34.6103 34.4633C34.5936 32.7596 34.4905 31.0579 34.3016 29.365C34.1796 28.315 34.0653 27.2572 33.9586 26.1917L33.284 19.3783L32.7123 13.545C32.4836 11.2117 32.2816 9.53167 32.1063 8.505L29.1678 13.8717C28.2073 15.645 27.3803 17.2006 26.6866 18.5383L25.2345 21.315L23.8167 24.0333C23.4661 24.7256 23.0087 25.6511 22.4447 26.81C21.2022 29.4156 20.1084 31.7839 19.1632 33.915H18.6143L15.9159 28.21C14.8793 26.0011 13.7664 23.7883 12.5772 21.5717L9.14709 14.8867L5.93417 8.47C5.78935 9.77667 5.65595 11.0056 5.53399 12.1567C5.41203 13.3078 5.26339 14.5639 5.08807 15.925L4.26483 23.415L3.6817 30.1583C3.6817 30.6794 3.65502 31.4261 3.60167 32.3983C3.54831 33.3706 3.52163 34.0589 3.52163 34.4633L2.8013 34.3933C2.64205 34.4168 2.48032 34.4168 2.32107 34.3933H1.79512L1.14339 34.335H0.663164L0 34.4633L1.71508 22.8783L3.71601 8.54C4.21147 4.73667 4.5583 1.89 4.75649 0H6.03708L9.61588 7.21C10.3781 8.70333 11.3729 10.6478 12.6001 13.0433C14.0332 15.7967 15.329 18.2117 16.4876 20.2883L18.6715 24.1617C18.8163 24.4261 19.2584 25.1728 19.9978 26.4017L24.0111 18.9933L27.8186 11.8883L30.2769 7.22167L34.1987 0Z" fill="#027A35"/>
<path d="M70.4441 0L59.2389 11.0017L55.0427 15.33L59.2046 20.125L64.0297 25.6667L67.0711 29.1667L71.073 34.2067V34.4517L69.9296 34.3817H69.6094C69.4648 34.3933 69.3195 34.3933 69.1749 34.3817H68.3288H67.0482L65.5504 34.475C64.4846 32.8915 63.3397 31.3651 62.1202 29.9017L51.3495 17.0683C51.153 16.9019 50.9074 16.8074 50.6521 16.8C50.6227 16.7883 50.59 16.7883 50.5606 16.8L50.5034 16.8583V34.4633L49.6116 34.3933C49.4142 34.4184 49.2145 34.4184 49.017 34.3933H48.3196H47.3363L46.1929 34.4867V0L47.4506 0.105H48.3653H49.2228L50.5377 0V15.575C50.6077 15.6283 50.6909 15.6606 50.7778 15.6683C51.1384 15.6299 51.4821 15.4929 51.7726 15.2717C52.0623 15.0461 52.4129 14.7389 52.8245 14.35C53.2361 13.9611 53.7583 13.4556 54.3909 12.8333L66.5451 0L67.6885 0.0933333H68.5346H69.3007L70.4441 0Z" fill="#027A35"/>
<path d="M116.797 0C113.413 3.7274 109.126 6.47969 104.368 7.98C105.025 12.6421 105.27 17.3549 105.1 22.0617C105.1 22.0617 115.162 11.76 116.305 10.605C116.408 6.79 116.762 1.00333 116.762 1.00333C116.762 0.525 116.762 0.0116667 116.762 0.0116667" fill="#E3E3E2"/>
<path d="M116.282 10.605C115.139 11.7716 106.563 20.4866 105.1 22.015C104.975 26.1964 104.593 30.3657 103.957 34.4983H116.808C116.808 34.0433 116.808 29.3533 116.808 29.3533C116.808 28.945 116.671 26.2383 116.671 26.2383C116.431 23.485 116.351 15.9366 116.271 12.8216C116.271 12.25 116.271 11.48 116.271 10.605" fill="#E2241D"/>
<path d="M89.5274 12.5884L77.8648 24.5C77.8648 25.1884 77.7962 25.795 77.7505 26.2617C77.7505 26.2617 77.6133 28.98 77.6133 29.3767C77.6133 29.3767 77.6133 34.0434 77.6133 34.5334H90.4078C89.3258 27.2853 89.0305 19.9375 89.5274 12.6234" fill="#E3E3E2"/>
<path d="M89.5274 12.5883C89.6531 11.0483 89.8132 9.50833 90.0533 7.92167C85.2968 6.44175 81.0061 3.70954 77.6133 0C77.6133 0 77.6133 0.513333 77.6133 1.00333C77.6133 1.00333 78.1735 9.70667 78.1049 12.81C78.0363 15.4 77.9792 21.0467 77.8191 24.4767L89.5274 12.5883Z" fill="#027A35"/>
</svg>
