<svg width="75" height="35" viewBox="0 0 75 35" fill="none" xmlns="http://www.w3.org/2000/svg">
<path d="M0 0H36.0294V35H0V0Z" fill="#15008F"/>
<path d="M38.3384 0H74.3678V35H38.3384V0Z" fill="#DD002E"/>
<path d="M10.9706 11.307C11.4064 12.1141 12.0628 12.7888 12.8676 13.257C13.0398 13.3621 13.1667 13.5243 13.2249 13.7135C13.2831 13.9027 13.2684 14.106 13.1838 14.2856C12.9779 14.7927 12.5735 15.5285 12.772 15.8356C13.0392 16.0222 13.3537 16.1341 13.6817 16.1592C14.0096 16.1845 14.3384 16.1219 14.6323 15.9785C14.7549 16.2381 14.8924 16.4909 15.0441 16.7356C14.9758 16.8103 14.8842 16.8613 14.7833 16.8806C14.6823 16.9 14.5777 16.8867 14.4853 16.8427C14.5791 16.9225 14.6372 17.0346 14.6472 17.1553C14.6571 17.276 14.6181 17.3957 14.5385 17.4888C14.4589 17.582 14.345 17.6413 14.221 17.654C14.097 17.6667 13.9729 17.632 13.875 17.557C13.8062 17.5055 13.7553 17.4348 13.729 17.3544C13.7027 17.274 13.7023 17.1877 13.7279 17.107C13.594 17.3095 13.3988 17.4667 13.1691 17.557C13.0464 17.4675 12.9556 17.3429 12.9095 17.2007C12.8633 17.0585 12.8641 16.9059 12.9117 16.7642C12.8099 16.9387 12.668 17.0881 12.4972 17.2008C12.3263 17.3135 12.131 17.3865 11.9264 17.4142C11.8011 17.2332 11.7436 17.016 11.7637 16.7987C11.7838 16.5815 11.8802 16.3777 12.0367 16.2213C11.8839 16.3322 11.7044 16.4035 11.5153 16.4285C11.3262 16.4535 11.1337 16.4314 10.9559 16.3642C10.9559 16.3642 10.8456 16.0213 11.4779 15.5142C11.27 15.507 11.0672 15.4489 10.8885 15.3452C10.7098 15.2416 10.561 15.0957 10.4559 14.9213C10.6047 14.8008 10.7775 14.7114 10.9634 14.6585C11.1494 14.6057 11.3445 14.5906 11.5367 14.6142C11.3152 14.5467 11.1167 14.422 10.9626 14.2535C10.8085 14.0848 10.7045 13.8787 10.6617 13.657C10.8717 13.565 11.1049 13.535 11.3323 13.5705C11.5598 13.606 11.7714 13.7057 11.9411 13.857C11.8069 13.6716 11.6514 13.5015 11.4779 13.3499C11.2264 13.0737 11.0491 12.7412 10.9619 12.3823C10.8746 12.0234 10.8801 11.6491 10.9779 11.2927L10.9706 11.307ZM13.8603 19.4927C13.747 19.3781 13.6593 19.2419 13.6029 19.0927C13.7132 20.0856 13.75 20.7356 14.3382 21.3856C14.5553 20.939 14.5946 20.4301 14.4485 19.957C14.3468 19.9021 14.2411 19.8543 14.1323 19.8142C14.2075 20.0913 14.2275 20.3798 14.1911 20.6642C14.025 20.2966 13.9184 19.9062 13.875 19.507L13.8603 19.4927ZM12.9485 19.3999C12.8352 19.2852 12.7475 19.149 12.6911 18.9999C12.6323 19.5927 12.4853 21.0927 13.0073 21.5499C13.0073 21.5499 13.3603 21.2999 13.4706 19.0927C13.3603 19.1999 13.3235 19.3427 13.2132 19.4356C13.2659 19.8389 13.2154 20.2487 13.0661 20.6285C13.0661 20.6285 12.8088 20.4999 12.9559 19.3999H12.9485ZM11.7132 20.557C12.1764 20.0499 12.272 18.5142 12.272 18.5142L12.4779 18.3713L12.5367 18.3142V18.457C12.5359 19.2572 12.3967 20.0516 12.125 20.807C11.9154 21.1049 11.6356 21.3498 11.3088 21.5213C10.7867 20.6713 11.4191 19.5142 11.9191 18.6642L12.125 18.557C11.9191 19.2713 11.5661 19.9856 11.7132 20.5642V20.557ZM10.4853 17.907C10.4775 17.9786 10.4986 18.0502 10.5441 18.107V18.1642C10.0515 18.6617 9.6038 19.1994 9.20585 19.7713C9.01747 20.0151 8.77762 20.217 8.50247 20.3636C8.22732 20.5102 7.92313 20.598 7.61026 20.6213C7.67659 19.9497 7.96262 19.3164 8.42644 18.8142C8.9321 18.2767 9.49953 17.7974 10.1176 17.3856C10.2807 17.459 10.4639 17.479 10.6397 17.4427H10.6985C10.6299 17.5091 10.5903 17.5987 10.5882 17.6927C9.80402 18.0423 9.13291 18.593 8.64703 19.2856C8.55144 19.357 9.25732 19.157 10.4485 17.9142L10.4853 17.907ZM9.66909 17.1213L9.72791 17.0642L9.78674 17.007C9.37497 17.1499 7.92644 17.7213 7.46321 17.907C7.10255 18.1017 6.78629 18.3653 6.53357 18.6821C6.28078 18.9988 6.09674 19.3621 5.99262 19.7499C6.30674 19.776 6.62313 19.7415 6.92343 19.6483C7.2238 19.5552 7.50218 19.4052 7.74262 19.207C8.55879 18.557 9.49262 17.657 9.84556 17.3642L9.73527 17.257C9.05791 17.7927 8.3174 18.2482 7.52938 18.6142C7.70166 18.3034 7.95534 18.0422 8.26468 17.857C8.70835 17.5376 9.206 17.2959 9.73527 17.1427L9.66909 17.1213ZM8.8235 16.4285L8.88233 16.3213C8.41909 16.4285 7.22791 16.5713 6.67644 16.7213C6.23615 16.8355 5.82512 17.0372 5.46946 17.3139C5.11372 17.5906 4.82115 17.9361 4.61027 18.3285C4.61027 18.3285 5.42644 18.5785 7.02938 17.8785C7.78541 17.4921 8.57527 17.1718 9.38968 16.9213C9.20541 16.9213 9.02475 16.8719 8.86762 16.7785C8.14071 17.1225 7.35115 17.3239 6.54409 17.3713C6.79416 17.1961 7.06585 17.0521 7.35291 16.9427C7.81541 16.7042 8.31063 16.531 8.8235 16.4285ZM8.8235 15.7142C8.97056 15.7751 9.12718 15.8113 9.28674 15.8213C9.1685 15.888 9.06181 15.9724 8.97056 16.0713C7.95857 16.3182 6.92431 16.4689 5.88232 16.5213C5.09372 16.6294 4.29071 16.5808 3.52203 16.3785C4.1488 16.0308 4.82534 15.7756 5.52938 15.6213C6.08821 15.5142 7.63232 15.5142 8.35291 15.4213C8.41703 15.4748 8.48593 15.5226 8.55879 15.5642C7.73541 15.569 6.91835 15.7041 6.13968 15.9642C7.04247 16.0642 7.95674 15.979 8.8235 15.7142ZM8.72791 14.8142C8.8296 14.7592 8.93526 14.7115 9.04409 14.6713C7.91519 14.2922 6.74181 14.0522 5.55144 13.957C4.70799 13.8575 3.85335 13.8937 3.02203 14.0642C3.73416 14.5187 4.51946 14.8542 5.34556 15.057C6.33505 15.2098 7.33982 15.2458 8.33821 15.1642C8.39519 15.0724 8.46438 14.9883 8.54409 14.9142C7.58835 14.9088 6.63806 14.7742 5.72056 14.5142C6.7349 14.4375 7.75527 14.5342 8.73527 14.7999L8.72791 14.8142ZM8.73527 13.9142C8.83872 14.2185 9.05674 14.4736 9.34556 14.6285C8.21321 14.1785 6.05144 13.8713 4.86762 13.4356C3.27203 12.7856 3.00732 12.007 3.00732 12.007C4.14497 12.0156 5.27416 12.1988 6.35291 12.5499C7.37497 12.857 8.88232 13.3999 9.44115 13.6499C9.22078 13.6504 9.00651 13.7206 8.83085 13.8499C8.27203 13.5999 7.63968 13.4499 7.08085 13.257C6.66872 13.1205 6.23688 13.0481 5.80144 13.0427C6.18835 13.2681 6.60027 13.4502 7.02938 13.5856C7.60291 13.7285 8.16174 13.8356 8.74262 13.9499L8.73527 13.9142ZM8.6838 12.7927C8.74262 12.8999 8.83085 13.0427 8.88968 13.1356C7.23909 12.7951 5.74578 11.9458 4.63232 10.7142C4.26401 10.1101 4.1188 9.4021 4.22056 8.70703C5.03299 9.06496 5.76504 9.5746 6.37497 10.207C6.99262 10.8438 7.66409 11.4292 8.38233 11.957L8.58821 12.5499C8.02938 12.0999 7.3088 11.5927 6.89703 11.2499C6.48725 10.9413 6.03725 10.6867 5.5588 10.4927C5.80666 10.7972 6.0796 11.0815 6.37497 11.3427C6.75578 11.6485 7.16718 11.9165 7.60291 12.1427C7.92968 12.4099 8.2999 12.6223 8.6985 12.7713" fill="white"/>
<path d="M13.647 17.5001L13.794 17.3573C13.9999 17.6073 14.147 17.8644 14.3161 18.1144C14.4204 18.4091 14.5063 18.7097 14.5734 19.0144C14.6285 19.3131 14.7354 19.6005 14.8896 19.8644C14.7516 19.8669 14.6147 19.8408 14.4879 19.7879C14.3611 19.7349 14.2473 19.6563 14.1543 19.5573C13.9092 19.252 13.7496 18.8903 13.6911 18.5073C13.5906 18.1782 13.5704 17.8309 13.6323 17.493L13.647 17.5001ZM12.897 17.5501L13.044 17.693L13.1029 17.7501H13.1617L13.3087 17.693C13.376 17.8165 13.4137 17.9533 13.419 18.093C13.4746 18.3425 13.4746 18.6006 13.419 18.8501C13.3496 19.0713 13.2288 19.2741 13.0661 19.443C12.9168 19.2834 12.7973 19.0997 12.7132 18.9001C12.6014 18.6272 12.6014 18.323 12.7132 18.0501C12.7867 17.8358 12.8455 17.6858 12.897 17.543V17.5501ZM11.9705 17.5787C12.2099 17.5448 12.4385 17.4594 12.6396 17.3287C12.6763 17.3882 12.7004 17.4543 12.7105 17.5229C12.7207 17.5916 12.7165 17.6615 12.6984 17.7287C12.6285 17.935 12.5073 18.1215 12.3455 18.2715C12.1978 18.3955 12.0262 18.4897 11.8406 18.5485C11.655 18.6074 11.4592 18.6298 11.2646 18.6144C11.1911 18.6501 11.0955 18.343 11.9999 17.5858L11.9705 17.5787ZM11.647 17.043C11.6684 17.2094 11.7401 17.366 11.8529 17.493C11.7259 17.6936 11.5434 17.8555 11.3264 17.9604C11.1093 18.0652 10.8662 18.1087 10.6249 18.0858C10.5676 17.9443 10.5684 17.7868 10.6273 17.6459C10.6862 17.505 10.7985 17.3914 10.9411 17.3287C11.1837 17.2358 11.3896 17.1287 11.6764 17.043" fill="white"/>
<path d="M11.7649 16.5427C11.508 16.5966 11.2423 16.5966 10.9855 16.5427H10.8752V16.4284C10.4634 16.7356 10.059 16.7713 9.88988 17.0784C9.97186 17.19 10.0837 17.2776 10.2133 17.3318C10.343 17.3859 10.4854 17.4046 10.6252 17.3856C10.8457 17.3676 11.0601 17.3058 11.255 17.2038C11.4497 17.1017 11.6208 16.9618 11.7575 16.7927C11.7356 16.7545 11.7241 16.7114 11.7241 16.6677C11.7241 16.624 11.7356 16.5809 11.7575 16.5427H11.7649ZM10.8825 16.0927C10.9342 15.9413 11.0225 15.8042 11.1399 15.6927C10.8015 15.6386 10.4562 15.6386 10.1178 15.6927C9.85149 15.6907 9.59157 15.7723 9.37694 15.9256C9.1623 16.0787 9.00429 16.2952 8.92664 16.5427C9.17208 16.6843 9.46194 16.7351 9.74282 16.6856C9.9637 16.6689 10.1786 16.6076 10.3736 16.5055C10.5686 16.4033 10.7394 16.2628 10.8752 16.0927H10.8825ZM10.6693 15.3784C10.5549 15.2521 10.4493 15.1184 10.3531 14.9784L10.2943 14.8998C9.9123 14.7193 9.47539 14.6812 9.06635 14.7927C8.81378 14.8665 8.59708 15.0262 8.45605 15.2427C8.74444 15.4548 9.08341 15.5924 9.44135 15.6427C9.8662 15.6969 10.2976 15.6141 10.6693 15.407V15.3784ZM10.7796 14.5927C10.8384 14.5356 10.9266 14.5356 11.0369 14.5356C10.8232 14.33 10.6795 14.0658 10.6252 13.7784C10.3535 13.8403 10.0688 13.8203 9.809 13.7213C9.66488 13.6701 9.51032 13.6532 9.35811 13.6718C9.20591 13.6905 9.06054 13.7441 8.934 13.8284C8.98753 13.9971 9.08914 14.1478 9.22708 14.2628C9.36495 14.3778 9.53363 14.4526 9.71341 14.4784C9.869 14.5753 10.0458 14.6355 10.2297 14.6541C10.4136 14.6727 10.5994 14.6493 10.7722 14.5856L10.7796 14.5927ZM10.5443 13.5713L10.6546 13.5141C10.7818 13.4488 10.9225 13.4121 11.0664 13.407C10.7288 13.1253 10.3672 12.872 9.98547 12.6498C9.54929 12.4041 9.0787 12.2213 8.58841 12.107C8.72672 12.5164 8.95503 12.8918 9.25753 13.207C9.41032 13.3832 9.61311 13.5117 9.84069 13.5765C10.0683 13.6413 10.3105 13.6395 10.5369 13.5713H10.5443ZM11.2061 13.2284C11.036 12.9892 10.9161 12.7198 10.8531 12.4356C10.7428 12.0927 10.6472 11.6784 10.5002 11.3356C10.2438 10.8802 9.81745 10.5377 9.309 10.3784C9.19554 10.8574 9.24723 11.3593 9.45606 11.807C9.91032 12.4151 10.5112 12.9056 11.2061 13.2356V13.2284ZM15.2208 16.807C15.3124 16.8923 15.4196 16.9601 15.5369 17.007C15.6055 17.1598 15.6359 17.3261 15.6257 17.4924C15.6155 17.6588 15.5649 17.8204 15.4781 17.9641C15.2283 18.3955 15.0238 18.8501 14.8678 19.3213C14.8678 19.3213 14.7208 19.3213 14.5516 18.4713C14.5001 18.1558 14.3573 17.861 14.1399 17.6213C14.2354 17.6801 14.3436 17.7168 14.4561 17.7284H14.5663L14.6252 17.6213C14.7163 17.4678 14.755 17.2903 14.7355 17.1141V16.9713C14.8241 16.9891 14.9161 16.9833 15.0015 16.9543C15.0869 16.9254 15.1627 16.8745 15.2208 16.807Z" fill="white"/>
<path d="M9.11052 10.7144V11.1644C8.69876 10.6573 8.18405 10.0073 7.63993 9.41443C7.3864 9.08614 7.07824 8.80128 6.72817 8.57157C6.93618 9.20078 7.30861 9.76678 7.80905 10.2144C8.20905 10.6091 8.63655 10.9767 9.08846 11.3144L9.14728 11.4573C9.20611 11.6001 9.25758 11.7644 9.29434 11.8573C9.40545 12.0556 9.54398 12.2383 9.70611 12.4001C9.55905 12.343 9.38993 12.2573 9.24287 12.2001H9.11052C7.82081 11.4898 6.75353 10.453 6.02228 9.20014C5.65949 8.32964 5.61023 7.36557 5.88258 6.46443C6.5503 7.05271 7.15398 7.70614 7.68405 8.41442C8.2264 9.14007 8.70361 9.9095 9.11052 10.7144ZM27.2723 14.8144C27.1706 14.7595 27.0649 14.7117 26.9561 14.6716C28.085 14.2924 29.2584 14.0525 30.4488 13.9573C31.2922 13.8578 32.1468 13.894 32.9782 14.0644C32.266 14.5189 31.4807 14.8545 30.6546 15.0573C29.6652 15.2101 28.6604 15.2461 27.662 15.1644C27.605 15.0726 27.5358 14.9886 27.4561 14.9144C28.4118 14.9091 29.3621 14.7744 30.2796 14.5144C29.2653 14.4378 28.2449 14.5345 27.2649 14.8001L27.2723 14.8144ZM27.2649 13.9144C27.1615 14.2187 26.9435 14.4739 26.6546 14.6287C27.787 14.1787 29.9488 13.8716 31.1326 13.4359C32.7282 12.7859 32.9929 12.0073 32.9929 12.0073C31.8552 12.0159 30.726 12.1991 29.6473 12.5501C28.6252 12.8573 27.1179 13.4001 26.5591 13.6501C26.7794 13.6506 26.9937 13.7209 27.1693 13.8501C27.7282 13.6001 28.3605 13.4501 28.9193 13.2573C29.3344 13.1341 29.7649 13.0669 30.1988 13.0573C29.8118 13.2826 29.3999 13.4648 28.9708 13.6001C28.3973 13.7287 27.8385 13.8359 27.2576 13.943L27.2649 13.9144ZM27.3679 12.7859C27.3091 12.893 27.2208 13.0359 27.162 13.1287C28.8249 12.7974 30.3319 11.9501 31.4561 10.7144C31.8244 10.1104 31.9696 9.40235 31.8679 8.70728C31.0554 9.06521 30.3234 9.57485 29.7135 10.2073C29.1003 10.8485 28.4284 11.4342 27.7061 11.9573L27.5002 12.5501C28.0591 12.1001 28.7796 11.593 29.1914 11.2501C29.6012 10.9416 30.0512 10.687 30.5296 10.493C30.2818 10.7974 30.0088 11.0816 29.7135 11.343C29.3303 11.6491 28.9165 11.9171 28.4782 12.143C28.1342 12.3856 27.7674 12.596 27.3826 12.7716L27.3679 12.7859ZM26.9193 10.7144V11.1644C27.3311 10.6573 27.8458 10.0073 28.3899 9.41443C28.6435 9.08614 28.9516 8.80128 29.3017 8.57157C29.0937 9.20078 28.7213 9.76678 28.2208 10.2144C27.8208 10.6091 27.3933 10.9767 26.9414 11.3144L26.8826 11.4573C26.8238 11.6001 26.7723 11.7644 26.7355 11.8573C26.6244 12.0556 26.4859 12.2383 26.3238 12.4001C26.4708 12.343 26.6399 12.2573 26.787 12.2001L26.934 12.143C28.2238 11.4326 29.291 10.3959 30.0223 9.143C30.3752 8.27728 30.4192 7.32157 30.1473 6.42871C29.4796 7.017 28.8759 7.67042 28.3458 8.37871C27.791 9.1095 27.2991 9.88357 26.8752 10.693L26.9193 10.7144ZM10.6988 18.293C10.1767 18.8001 9.04434 19.993 9.15464 21.2359C9.75074 21.0531 10.2678 20.684 10.6252 20.1859C10.8829 19.6908 11.1753 19.2135 11.5002 18.7573H11.037C10.7381 19.3482 10.2997 19.8622 9.75758 20.2573C9.75758 20.2573 9.64729 19.6644 11.037 18.3644C11.037 18.3073 11.0958 18.2573 11.1473 18.2216C10.9974 18.266 10.8407 18.2854 10.684 18.2787L10.6988 18.293ZM25.037 11.293C24.6012 12.1001 23.9448 12.7748 23.1399 13.243C22.978 13.3601 22.865 13.5301 22.8218 13.7217C22.7786 13.9134 22.808 14.1136 22.9046 14.2859C23.1105 14.793 23.5149 15.5287 23.3164 15.8359C23.1179 16.143 22.1252 16.2859 21.3679 15.9787C21.2453 16.2384 21.1078 16.4911 20.9561 16.7359C21.0244 16.8106 21.116 16.8616 21.2169 16.8809C21.3179 16.9002 21.4225 16.8869 21.5149 16.843C21.4693 16.9661 21.4509 17.0972 21.461 17.2277C21.4712 17.3581 21.5096 17.4851 21.5738 17.6001C21.7263 17.5711 21.8708 17.5109 21.9976 17.4235C22.1244 17.336 22.2305 17.2234 22.309 17.093C22.4429 17.2955 22.6382 17.4527 22.8679 17.543C22.9906 17.4534 23.0814 17.3289 23.1275 17.1867C23.1737 17.0445 23.1729 16.8919 23.1252 16.7501C23.2271 16.9246 23.369 17.0741 23.5398 17.1868C23.7107 17.2995 23.906 17.3725 24.1105 17.4001C24.2359 17.2192 24.2933 17.0019 24.2732 16.7847C24.2532 16.5675 24.1568 16.3636 24.0002 16.2073C24.1531 16.3182 24.3326 16.3895 24.5216 16.4145C24.7107 16.4395 24.9032 16.4174 25.0811 16.3501C25.0811 16.3501 25.1914 16.0073 24.5591 15.5001C24.767 15.4929 24.9698 15.4349 25.1485 15.3312C25.3271 15.2276 25.476 15.0817 25.5811 14.9073C25.4323 14.7868 25.2595 14.6974 25.0735 14.6445C24.8876 14.5916 24.6924 14.5766 24.5002 14.6001C24.7197 14.5391 24.9152 14.4151 25.0608 14.2443C25.2065 14.0735 25.2955 13.8639 25.3164 13.643C25.1064 13.551 24.8732 13.5209 24.6458 13.5564C24.4184 13.592 24.2067 13.6916 24.037 13.843C24.1713 13.6576 24.3267 13.4874 24.5002 13.3359C24.7754 13.0724 24.9777 12.7458 25.0882 12.3861C25.1988 12.0265 25.2141 11.6456 25.1326 11.2787L25.037 11.293ZM22.1914 19.4787C22.2968 19.3583 22.3835 19.2235 22.4488 19.0787C22.3385 20.0716 22.3017 20.7216 21.7135 21.3716C21.4964 20.9249 21.4571 20.4161 21.6032 19.943C21.7049 19.8881 21.8105 19.8403 21.9193 19.8001C21.8442 20.0773 21.8242 20.3658 21.8605 20.6501C22.0266 20.2825 22.1332 19.8922 22.1767 19.493L22.1914 19.4787ZM23.1032 19.3859C23.2165 19.2712 23.3041 19.135 23.3605 18.9859C23.4193 19.5787 23.5664 21.0787 23.0443 21.5359C23.0443 21.5359 22.6914 21.2859 22.5811 19.0787C22.6914 19.1859 22.7282 19.3287 22.8385 19.4216C22.7857 19.8249 22.8363 20.2346 22.9855 20.6144C22.9855 20.6144 23.2429 20.4859 23.0958 19.3859H23.1032ZM24.3238 20.543C23.8605 20.0359 23.7649 18.5001 23.7649 18.5001C23.7079 18.4384 23.6377 18.3896 23.5591 18.3573L23.5296 18.3144V18.4573C23.5304 19.2575 23.6696 20.0519 23.9414 20.8073C24.1366 21.117 24.4202 21.3651 24.7576 21.5216C25.2796 20.6716 24.6473 19.5144 24.1473 18.6644C24.0687 18.6509 23.9965 18.6134 23.9414 18.5573C24.1473 19.2716 24.5149 19.9859 24.3532 20.5644L24.3238 20.543ZM25.5958 17.9073C25.6035 17.9789 25.5824 18.0505 25.537 18.1073V18.1644C26.0296 18.662 26.4773 19.1996 26.8752 19.7716C27.0636 20.0154 27.3035 20.2173 27.5786 20.3639C27.8538 20.5104 28.1579 20.5983 28.4708 20.6216C28.4045 19.9499 28.1185 19.3166 27.6546 18.8144C27.149 18.277 26.5815 17.7976 25.9635 17.3859C25.8004 17.4593 25.6172 17.4793 25.4414 17.443H25.3826C25.4512 17.5094 25.4907 17.5989 25.4929 17.693C26.2582 18.0501 26.9108 18.6001 27.3826 19.2859C27.4782 19.3573 26.7502 19.1573 25.5811 17.9144L25.5958 17.9073ZM26.3164 17.1216V17.0144L26.2576 16.9573C26.6693 17.1001 28.1179 17.6716 28.5811 17.8573C28.9418 18.0519 29.258 18.3156 29.5107 18.6324C29.7635 18.9491 29.9476 19.3124 30.0517 19.7001C29.7376 19.7263 29.4212 19.6918 29.1208 19.5986C28.8205 19.5054 28.5421 19.3554 28.3017 19.1573C27.5223 18.5073 26.5517 17.6073 26.1988 17.3144L26.309 17.2073C26.9864 17.7429 27.7269 18.1985 28.5149 18.5644C28.3427 18.2536 28.089 17.9924 27.7796 17.8073C27.3263 17.5035 26.8313 17.2631 26.309 17.093L26.3164 17.1216ZM27.2061 16.4287C27.2061 16.3716 27.1473 16.3716 27.1473 16.3216C27.6105 16.4287 28.8017 16.5716 29.3532 16.7216C29.7935 16.8357 30.2045 17.0375 30.5602 17.3141C30.9159 17.5909 31.2085 17.9364 31.4193 18.3287C31.4193 18.3287 30.6032 18.5787 29.0002 17.8787C28.2442 17.4924 27.4543 17.1721 26.6399 16.9216C26.8242 16.9216 27.0049 16.8721 27.162 16.7787C27.8889 17.1227 28.6785 17.3241 29.4855 17.3716C29.2354 17.1964 28.9638 17.0524 28.6767 16.943C28.2082 16.7179 27.7148 16.5454 27.2061 16.4287ZM27.2061 15.7144C27.059 15.7754 26.9024 15.8116 26.7429 15.8216C26.8611 15.8883 26.9678 15.9726 27.0591 16.0716C28.071 16.3184 29.1053 16.4691 30.1473 16.5216C30.9359 16.6296 31.7389 16.5811 32.5076 16.3787C31.8808 16.0311 31.2043 15.7759 30.5002 15.6216C29.9414 15.5144 28.3973 15.5144 27.6767 15.4216C27.6126 15.4751 27.5437 15.5229 27.4708 15.5644C28.2942 15.5693 29.1113 15.7044 29.8899 15.9644C28.9871 16.0628 28.0732 15.9776 27.2061 15.7144Z" fill="white"/>
<path d="M22.3823 17.4998L22.2352 17.357C22.0473 17.5885 21.8915 17.843 21.772 18.1141C21.6677 18.4088 21.5818 18.7094 21.5147 19.0141C21.4342 19.3056 21.3284 19.59 21.1985 19.8641C21.3428 19.8653 21.486 19.8388 21.6197 19.7861C21.7535 19.7334 21.8752 19.6555 21.9779 19.557C22.223 19.2517 22.3826 18.89 22.4411 18.507C22.5101 18.1695 22.4898 17.8205 22.3823 17.4927V17.4998ZM23.1176 17.5498L22.9705 17.6927L22.9117 17.7498H22.8529L22.647 17.6927C22.5797 17.8163 22.542 17.953 22.5367 18.0927C22.4812 18.3422 22.4812 18.6003 22.5367 18.8498C22.6062 19.071 22.7269 19.2738 22.8897 19.4427C23.039 19.2831 23.1584 19.0994 23.2426 18.8998C23.3544 18.6269 23.3544 18.3228 23.2426 18.0498C23.2436 17.8726 23.198 17.698 23.1102 17.5427L23.1176 17.5498ZM24.0367 17.5784C23.7973 17.5445 23.5687 17.4591 23.3676 17.3284C23.3309 17.3879 23.3068 17.454 23.2966 17.5226C23.2866 17.5913 23.2907 17.6613 23.3088 17.7284C23.3787 17.9348 23.4999 18.1213 23.6617 18.2713C23.8094 18.3953 23.981 18.4894 24.1666 18.5483C24.3522 18.6071 24.548 18.6295 24.7426 18.6141C24.8014 18.6498 24.9117 18.3427 24.0073 17.5855L24.0367 17.5784ZM24.3602 17.0427C24.3388 17.2091 24.2672 17.3657 24.1544 17.4927C24.2813 17.6933 24.4638 17.8553 24.6808 17.9601C24.898 18.0649 25.141 18.1084 25.3823 18.0855C25.4396 17.944 25.4388 17.7865 25.3799 17.6456C25.321 17.5047 25.2087 17.3911 25.0661 17.3284C24.8235 17.2355 24.6176 17.1284 24.3308 17.0427H24.3602ZM24.2647 16.5427C24.5215 16.5966 24.7872 16.5966 25.0441 16.5427H25.1544V16.4284C25.5661 16.7355 25.9705 16.7713 26.1764 17.0784C26.1028 17.1825 26.0021 17.2658 25.8845 17.3197C25.767 17.3737 25.6369 17.3964 25.5073 17.3855C25.2867 17.3676 25.0724 17.3058 24.8775 17.2038C24.6827 17.1017 24.5116 16.9618 24.3749 16.7927C24.3057 16.7268 24.266 16.6369 24.2647 16.5427ZM25.1397 16.0927C25.088 15.9413 24.9997 15.8042 24.8823 15.6927C25.2207 15.6386 25.566 15.6386 25.9044 15.6927C26.1707 15.6907 26.4306 15.7723 26.6452 15.9255C26.8599 16.0787 27.0179 16.2952 27.0955 16.5427C26.8501 16.6843 26.5602 16.7351 26.2794 16.6855C26.0567 16.6765 25.8391 16.6185 25.6429 16.5158C25.4467 16.413 25.2772 16.2684 25.147 16.0927H25.1397ZM25.3529 15.3784C25.4785 15.2614 25.5851 15.1265 25.6691 14.9784L25.7279 14.8713C26.1099 14.6908 26.5468 14.6526 26.9558 14.7641C27.2084 14.8379 27.4251 14.9976 27.5661 15.2141C27.2777 15.4262 26.9388 15.5638 26.5808 15.6141C26.1594 15.6164 25.7418 15.5363 25.3529 15.3784ZM25.1838 14.5641C25.1249 14.507 25.0367 14.507 24.9264 14.507C25.1377 14.2918 25.296 14.0329 25.3897 13.7498C25.6613 13.8117 25.946 13.7918 26.2058 13.6927C26.3499 13.6415 26.5045 13.6246 26.6567 13.6433C26.8089 13.6619 26.9543 13.7155 27.0808 13.7998C27.0273 13.9685 26.9257 14.1192 26.7877 14.2342C26.6499 14.3492 26.4812 14.424 26.3014 14.4498C26.1356 14.5486 25.9488 14.6095 25.7552 14.6281C25.5617 14.6467 25.3663 14.6223 25.1838 14.557V14.5641ZM25.4705 13.5713H25.3602C25.233 13.5059 25.0923 13.4693 24.9485 13.4641C25.2861 13.1825 25.6477 12.9291 26.0294 12.707C26.4538 12.4386 26.9286 12.2541 27.4264 12.1641C27.2664 12.5637 27.0404 12.9353 26.7573 13.2641C26.6058 13.4418 26.403 13.5715 26.1749 13.6364C25.947 13.7013 25.7042 13.6985 25.4779 13.6284L25.4705 13.5713ZM24.8088 13.2855C24.9788 13.0463 25.0988 12.7769 25.1617 12.4927C25.272 12.1498 25.3676 11.7355 25.5147 11.3927C25.771 10.9373 26.1974 10.5948 26.7058 10.4355C26.8193 10.9145 26.7676 11.4165 26.5588 11.8641C26.1091 12.4763 25.507 12.9678 24.8088 13.2927V13.2855ZM20.7941 16.8641C20.7024 16.9494 20.5952 17.0173 20.4779 17.0641C20.4094 17.2169 20.3789 17.3832 20.3891 17.5495C20.3994 17.7159 20.4499 17.8775 20.5367 18.0213C20.7865 18.4526 20.991 18.9073 21.147 19.3784C21.147 19.3784 21.2941 19.3784 21.4632 18.5284C21.5147 18.2129 21.6575 17.9181 21.8749 17.6784C21.7794 17.7373 21.6713 17.7739 21.5588 17.7855H21.4485L21.3896 17.6784C21.2985 17.525 21.2599 17.3474 21.2794 17.1713V17.0284C21.1908 17.0433 21.0997 17.036 21.0148 17.0073C20.9299 16.9785 20.8539 16.9293 20.7941 16.8641Z" fill="white"/>
<path d="M25.2646 18.293C25.7867 18.8001 26.919 19.993 26.8087 21.2359C26.2126 21.0531 25.6955 20.684 25.3381 20.1859C25.0804 19.6908 24.788 19.2135 24.4631 18.7573H24.9264C25.2253 19.3482 25.6636 19.8622 26.2058 20.2573C26.2058 20.2573 26.3161 19.6644 24.9264 18.3644C24.9264 18.3073 24.8675 18.2573 24.8161 18.2216C24.966 18.266 25.1227 18.2854 25.2793 18.2787L25.2646 18.293ZM14.4043 9.15728C14.7358 9.04892 15.0948 9.04892 15.4264 9.15728C15.092 9.24778 14.7386 9.24778 14.4043 9.15728ZM18.1617 8.57157C18.1617 8.67871 18.1028 8.71442 18.0146 8.71442C17.995 8.71543 17.9754 8.7125 17.9571 8.70564C17.9388 8.69885 17.9221 8.68835 17.9083 8.67485C17.8944 8.66143 17.8836 8.64521 17.8766 8.62743C17.8695 8.60964 17.8665 8.59057 17.8675 8.57157C17.8675 8.46443 17.9264 8.42871 18.0146 8.42871C18.0342 8.42771 18.0538 8.43064 18.0721 8.4375C18.0904 8.44428 18.1071 8.45478 18.1209 8.46828C18.1348 8.48171 18.1456 8.49792 18.1526 8.51571C18.1597 8.5335 18.1627 8.55257 18.1617 8.57157ZM17.1396 8.02871C16.9362 7.63321 16.7808 7.21614 16.6764 6.78585C16.7352 6.67871 16.7867 6.58585 16.9337 6.58585C17.0808 6.58585 17.1396 6.52871 17.1911 6.58585C17.3724 6.99839 17.4793 7.43814 17.5072 7.88585C17.378 7.92228 17.2525 7.97007 17.1322 8.02871H17.1396ZM17.6322 7.92157H17.8381C17.785 7.54843 17.6989 7.18035 17.5808 6.82157C17.5674 6.73616 17.5321 6.6554 17.4781 6.58673C17.4242 6.51807 17.3533 6.46373 17.2719 6.42871C17.3308 6.62871 17.419 6.82871 17.4778 7.02157C17.5512 7.3255 17.6077 7.63314 17.6469 7.943L17.6322 7.92157ZM17.2352 8.993C16.9667 9.13314 16.6649 9.20214 16.3602 9.193C16.4778 8.99535 16.6354 8.82285 16.8234 8.68585C17.0817 8.52093 17.3916 8.45007 17.6984 8.48585C17.5839 8.68564 17.4258 8.85871 17.2352 8.993ZM16.7719 9.05014C17.0031 8.96193 17.2115 8.82542 17.3822 8.65014C17.1323 8.69971 16.9128 8.84357 16.7719 9.05014Z" fill="white"/>
<path d="M14.3161 9.25021C14.6462 9.35307 14.9916 9.40135 15.3382 9.39307C15.9448 9.39785 16.5498 9.33071 17.1396 9.19307C17.1162 9.26514 17.0752 9.33064 17.0202 9.38414C16.9651 9.43757 16.8977 9.47742 16.8235 9.50021C16.9203 9.50228 17.0125 9.54071 17.0808 9.60735C17.0488 9.668 17.0041 9.7215 16.9497 9.76457C16.8953 9.80757 16.8323 9.83921 16.7646 9.85735C16.9827 10.0673 17.2741 10.1897 17.5808 10.2002C17.4989 10.2707 17.4004 10.3206 17.294 10.3455C17.1876 10.3704 17.0766 10.3696 16.9705 10.3431C16.7058 10.291 16.4686 10.1492 16.3014 9.94307C16.348 10.0388 16.3682 10.1446 16.3602 10.2502C16.2907 10.2413 16.2237 10.2189 16.1631 10.1846C16.1025 10.1503 16.0496 10.1046 16.0073 10.0502C16.0735 10.1535 16.1115 10.2715 16.1176 10.3931C16.0031 10.391 15.8924 10.3535 15.8014 10.2859C15.8469 10.3615 15.8674 10.4487 15.8602 10.5359C15.5824 10.4387 15.3201 10.3041 15.0808 10.1359V10.3859C15.1396 10.4431 14.3455 10.3288 14.3455 9.22878L14.3161 9.25021ZM15.6838 9.67878H14.7794C14.7885 9.74635 14.8116 9.81142 14.8469 9.87028C14.8822 9.92914 14.9293 9.98057 14.9852 10.0216C14.9852 9.67878 15.6544 9.67878 15.6544 9.67878H15.6838ZM14.1838 9.33592C14.188 9.55992 14.238 9.78085 14.3308 9.98592C14.1741 9.89042 14.051 9.75092 13.9779 9.58592C13.9191 9.33592 13.9191 9.22164 14.1838 9.33592ZM14.3529 10.0502L14.7646 10.3574C14.613 10.4131 14.4584 10.4608 14.3014 10.5002C14.1496 10.3776 13.9584 10.3106 13.761 10.3106C13.5635 10.3106 13.3724 10.3776 13.2205 10.5002C13.1452 10.4616 13.0791 10.4079 13.027 10.3424C12.9749 10.2769 12.9377 10.2014 12.9183 10.1208C12.8987 10.0402 12.8972 9.9565 12.9138 9.87535C12.9305 9.79414 12.9649 9.71735 13.0146 9.65021C13.1055 9.55328 13.2258 9.48721 13.3582 9.4615C13.4905 9.43578 13.6277 9.45185 13.7499 9.50735C13.8067 9.63442 13.8904 9.74842 13.9955 9.842C14.1007 9.93549 14.2249 10.0064 14.3602 10.0502H14.3529ZM13.6249 10.1574C13.6468 10.1574 13.6681 10.1511 13.6862 10.1393C13.7044 10.1275 13.7185 10.1108 13.7269 10.0912C13.7352 10.0716 13.7374 10.0501 13.7331 10.0293C13.7288 10.0085 13.7183 9.98942 13.703 9.97442C13.6875 9.9595 13.6679 9.94928 13.6465 9.94514C13.6251 9.941 13.6029 9.94314 13.5827 9.95121C13.5626 9.95935 13.5454 9.97307 13.5332 9.99071C13.5211 10.0083 13.5146 10.029 13.5146 10.0502C13.5146 10.1074 13.5146 10.1574 13.6249 10.1574ZM14.7941 10.4431C14.903 10.5834 15.0209 10.717 15.147 10.8431C14.9284 10.8356 14.7127 10.8941 14.5297 11.0104C14.3467 11.1269 14.2053 11.2954 14.1249 11.4931C14.0513 11.3896 14.007 11.2691 13.9966 11.1436C13.9863 11.0182 14.0103 10.8924 14.0661 10.7788C14.1573 10.675 14.2698 10.5909 14.3964 10.5319C14.5231 10.4728 14.661 10.4401 14.8014 10.4359L14.7941 10.4431ZM15.6911 10.6002L16.0441 10.7074V10.5074C16.1544 10.5074 16.1911 10.5645 16.3014 10.5645C16.3909 10.8758 16.5379 11.1686 16.7352 11.4288C16.7233 11.5381 16.6855 11.6431 16.6249 11.7359C16.5005 11.5301 16.363 11.3321 16.2132 11.1431C16.0805 10.9344 15.8856 10.77 15.6544 10.6716L15.6911 10.6002ZM14.9852 10.5645C15.2487 10.619 15.4985 10.7234 15.7205 10.8716C15.8455 10.9474 15.9488 11.0526 16.0207 11.1774C16.0927 11.3024 16.1311 11.4428 16.1323 11.5859C16.0196 11.4306 15.8804 11.2954 15.7205 11.1859C15.4205 11.0529 15.1655 10.8399 14.9852 10.5716V10.5645ZM14.9852 8.02164C15.0955 8.02164 15.1911 8.07878 15.1911 8.1645C15.1286 8.355 15.0421 8.53735 14.9338 8.70735C14.8149 8.54299 14.7278 8.35907 14.6764 8.1645C14.7102 8.11442 14.7577 8.07457 14.8135 8.04935C14.8694 8.02407 14.9314 8.01449 14.9926 8.02164H14.9852ZM14.8235 8.97878C14.7802 8.73442 14.7113 8.49507 14.6176 8.26449C14.5221 8.20564 14.4139 8.169 14.3014 8.15735C14.2635 8.16057 14.228 8.17664 14.2011 8.20278C14.1742 8.22892 14.1577 8.26342 14.1544 8.30021V8.35735C14.278 8.58192 14.4155 8.79899 14.5661 9.00735C14.6477 8.97571 14.736 8.96342 14.8235 8.97164V8.97878ZM15.0808 8.97164C15.1241 8.72728 15.193 8.48792 15.2867 8.25735C15.3822 8.1985 15.4904 8.16185 15.6029 8.15021C15.6408 8.15342 15.6763 8.1695 15.7032 8.19564C15.7301 8.22178 15.7466 8.25628 15.7499 8.29307V8.35021C15.6391 8.58171 15.501 8.79985 15.3382 9.00021C15.2569 8.96714 15.1683 8.95478 15.0808 8.9645V8.97164ZM15.3382 7.4145H15.022V7.14307H14.8749V7.39307H14.5588V7.59307H14.8749V7.85735H15.022V7.57164H15.3382V7.4145ZM12.1985 9.20021V8.7145C12.0731 8.75471 11.9582 8.82085 11.8617 8.90842C11.7652 8.996 11.6894 9.10285 11.6396 9.22164C11.6396 9.22164 12.0514 8.97164 12.1985 9.22164V9.20021ZM12.5514 9.87164C12.6102 9.67164 12.6617 9.42164 12.6985 9.22164C12.7505 9.07314 12.7675 8.91521 12.7485 8.75949C12.7294 8.60371 12.6746 8.45414 12.5882 8.32164C12.4792 8.09899 12.4287 7.85357 12.4411 7.60735L12.0882 7.75021C12.1041 7.99978 12.1743 8.24321 12.2941 8.4645C12.368 8.65342 12.3883 8.85821 12.3529 9.05735C12.3245 9.1995 12.3282 9.34585 12.3637 9.4865C12.3993 9.62707 12.4658 9.7585 12.5588 9.87164H12.5514ZM12.5588 7.72878V7.58592C12.7507 7.37621 13.0097 7.23528 13.2941 7.18592C13.4411 7.12878 13.5514 7.18592 13.7058 7.29307C13.609 7.29514 13.5168 7.33357 13.4485 7.40021C13.2912 7.53685 13.1155 7.65221 12.9264 7.74307C12.8089 7.73457 12.691 7.73457 12.5735 7.74307" fill="white"/>
<path d="M13.6837 7.24298C13.8093 7.34784 13.899 7.48741 13.9411 7.64298C13.8951 7.85477 13.8078 8.05605 13.6837 8.23584C13.5586 8.37777 13.4862 8.55634 13.4778 8.74298C13.4778 8.85013 13.5881 8.94298 13.6249 9.05013C13.515 9.02005 13.4125 8.96927 13.3228 8.90063C13.2333 8.83198 13.1585 8.74684 13.1028 8.65013C13.0749 8.55513 13.0739 8.45463 13.0997 8.35913C13.1255 8.26355 13.1775 8.17663 13.2499 8.10727C13.341 7.91127 13.4598 7.72855 13.6028 7.56441C13.6611 7.4647 13.6868 7.35005 13.6764 7.23584L13.6837 7.24298ZM16.4116 10.393C16.4989 10.6967 16.6381 10.9841 16.8234 11.243C16.9516 11.4609 17.0224 11.7063 17.0293 11.9573C17.1362 11.7193 17.1743 11.4576 17.1396 11.2001C17.0091 10.8535 16.7456 10.5693 16.4043 10.4073L16.4116 10.393ZM16.9264 10.5001C17.0859 10.5101 17.2425 10.5463 17.3896 10.6073C17.6265 10.7843 17.7907 11.0376 17.8528 11.3216C17.6893 11.2769 17.5333 11.2096 17.3896 11.1216C17.1808 10.9613 17.0207 10.749 16.9264 10.5073V10.5001ZM15.2719 11.1216C15.1616 11.1216 15.0661 11.1787 14.9558 11.1787C15.1001 11.2306 15.2382 11.2976 15.3675 11.3787C15.4437 11.4418 15.5058 11.5193 15.55 11.6065C15.5943 11.6937 15.6198 11.7888 15.6249 11.8858C15.6964 12.1618 15.8025 12.4281 15.9411 12.6787C15.945 12.4083 15.9947 12.1405 16.0881 11.8858C15.9699 11.8192 15.8632 11.7348 15.7719 11.6358C15.6722 11.4147 15.495 11.2351 15.2719 11.1287V11.1216ZM16.7425 11.843C16.8588 12.0741 16.9167 12.3287 16.9116 12.5858C16.7922 12.8569 16.6364 13.1115 16.4484 13.343C16.3844 13.0467 16.3475 12.7456 16.3381 12.443C16.333 12.3116 16.3653 12.1814 16.4314 12.0667C16.4976 11.9521 16.5951 11.8573 16.7131 11.793L16.7425 11.843ZM17.2719 11.793C17.4306 12.0612 17.5564 12.3464 17.6469 12.643C17.6724 12.7356 17.6757 12.8328 17.6566 12.9268C17.6375 13.0209 17.5964 13.1096 17.5366 13.1858C17.3896 13.3858 17.2205 13.5858 17.0734 13.7787C16.9754 13.6616 16.9051 13.5251 16.8675 13.3787C16.8548 13.1801 16.8697 12.9806 16.9116 12.7858C17.0725 12.4687 17.1981 12.1359 17.2866 11.793H17.2719ZM17.4925 13.743C17.2939 13.9399 17.1189 14.158 16.9705 14.393C16.9158 14.4736 16.8866 14.5679 16.8866 14.6644C16.8866 14.7609 16.9158 14.8553 16.9705 14.9358C17.1324 15.1564 17.3403 15.3414 17.5808 15.4787C17.4358 15.2679 17.3636 15.0177 17.3749 14.7644C17.4304 14.5906 17.4992 14.4211 17.5808 14.2573C17.5898 14.0787 17.5571 13.9004 17.4852 13.7358L17.4925 13.743ZM16.7499 13.4858C16.85 13.6153 16.9019 13.774 16.8969 13.9358C16.887 14.1373 16.85 14.3366 16.7866 14.5287C16.6758 14.8234 16.538 15.1078 16.3749 15.3787C16.2684 15.2408 16.1818 15.0894 16.1175 14.9287C16.2646 14.7287 16.3749 14.5287 16.5293 14.3358C16.6245 14.0583 16.6983 13.7741 16.7499 13.4858ZM16.6396 13.343C16.5342 13.8756 16.3272 14.3843 16.0293 14.843C15.9457 14.9934 15.8293 15.1243 15.6884 15.2267C15.5475 15.3291 15.3853 15.4004 15.2131 15.4358C15.0613 15.4288 14.9155 15.3763 14.7956 15.2855C14.6758 15.1947 14.5879 15.0701 14.544 14.9287C14.492 14.7983 14.4748 14.6571 14.4941 14.5185C14.5134 14.3798 14.5685 14.2482 14.6543 14.1358C14.6866 14.262 14.7515 14.3781 14.8428 14.4731C14.9342 14.5681 15.049 14.6388 15.1764 14.6787C15.5661 14.643 16.0881 14.193 16.6469 13.343" fill="white"/>
<path d="M16.1766 12.9999C16.2277 13.1871 16.2277 13.3841 16.1766 13.5714C16.1569 13.6749 16.1155 13.7735 16.0547 13.8608C15.994 13.948 15.9153 14.0221 15.8237 14.0785C15.7043 14.1459 15.5636 14.1686 15.4282 14.1423C15.2928 14.1159 15.1719 14.0425 15.0884 13.9356L15.0296 13.8785C15.287 13.8532 15.5316 13.7571 15.7348 13.6015C15.938 13.4459 16.0913 13.2372 16.1766 12.9999ZM17.4413 16.4285C17.6377 16.6675 17.7941 16.9351 17.9046 17.2214C17.8945 17.5921 17.7855 17.9539 17.5884 18.2714C17.3534 18.0814 17.1735 17.8352 17.0663 17.5571C17.039 17.3537 17.0584 17.147 17.1233 16.9519C17.1881 16.7567 17.2968 16.5779 17.4413 16.4285ZM16.9413 16.7714C17.0308 16.5294 17.171 16.308 17.3531 16.1214C17.4072 15.9076 17.385 15.6825 17.2902 15.4826C17.1953 15.2828 17.0335 15.1201 16.8311 15.0214C16.6432 15.2579 16.5034 15.5269 16.4193 15.8142C16.3605 16.2285 16.7722 16.4285 16.9413 16.7714ZM16.0149 15.0714C15.9022 15.2266 15.763 15.3619 15.6031 15.4714V15.9785C15.6836 16.27 15.7894 16.5544 15.9193 16.8285C16.0795 16.6363 16.1994 16.4155 16.2722 16.1785C16.3147 15.9836 16.3344 15.7848 16.3311 15.5856C16.2396 15.4088 16.1338 15.2392 16.0149 15.0785V15.0714ZM15.1399 16.5071C14.9207 16.2039 14.7727 15.8576 14.7061 15.4928C14.8171 15.5533 14.9403 15.5897 15.0672 15.5996C15.1942 15.6094 15.3218 15.5925 15.4413 15.5499C15.4971 15.7632 15.4971 15.9866 15.4413 16.1999C15.3449 16.3216 15.2391 16.4363 15.1252 16.5428L15.1399 16.5071ZM15.184 16.6499L15.4413 16.4285C15.5002 16.3714 15.6987 16.8785 15.7575 17.0214C15.6472 17.0214 15.5516 17.0214 15.5002 16.9642C15.4047 16.8591 15.2988 16.7635 15.184 16.6785V16.6499ZM16.3605 16.4285C16.2041 16.6784 16.0297 16.9171 15.8384 17.1428C15.8939 17.3166 15.9627 17.4861 16.0443 17.6499C16.1686 17.8681 16.3246 18.0679 16.5075 18.2428C16.6331 18.056 16.739 17.8574 16.8237 17.6499C16.9093 17.4948 16.9402 17.3166 16.9119 17.1428C16.8016 16.8928 16.5002 16.6356 16.3899 16.3856L16.3605 16.4285ZM16.9119 17.7856C17.0825 18.0041 17.2211 18.2445 17.3237 18.4999C17.3597 18.6519 17.3389 18.8115 17.2649 18.9499C17.2061 19.0571 17.059 19.2928 16.9487 19.4928C16.7413 19.3401 16.581 19.1351 16.4855 18.8999C16.4539 18.8023 16.4429 18.6996 16.453 18.5977C16.4631 18.4959 16.4941 18.3971 16.5443 18.3071C16.6546 18.1642 16.8605 18.0214 16.9193 17.7999L16.9119 17.7856ZM15.8752 17.7642C16.0199 17.9454 16.1387 18.1448 16.2281 18.3571C16.2824 18.4469 16.3111 18.5493 16.3111 18.6535C16.3111 18.7577 16.2824 18.8601 16.2281 18.9499C16.1178 19.1499 16.0222 19.2928 15.9708 19.3999C15.8214 19.2404 15.702 19.0566 15.6178 18.8571C15.5627 18.6631 15.5627 18.4582 15.6178 18.2642C15.7399 18.1149 15.8276 17.942 15.8752 17.7571V17.7642ZM17.3458 19.1856C17.1355 19.4567 16.9875 19.7685 16.9119 20.0999C16.9923 20.4077 17.098 20.7086 17.2281 20.9999C17.377 20.8535 17.4967 20.6816 17.5811 20.4928C17.7086 20.3002 17.7607 20.0696 17.7281 19.8428C17.7344 19.7197 17.7112 19.5969 17.6602 19.484C17.6091 19.3712 17.5316 19.2715 17.434 19.1928L17.3458 19.1856ZM16.4487 19.1356C16.6067 19.3592 16.696 19.6218 16.7061 19.8928C16.5959 20.1447 16.4579 20.3842 16.2943 20.6071C16.1854 20.4197 16.0991 20.2208 16.0369 20.0142C16.0323 19.8491 16.0671 19.6851 16.1386 19.5352C16.2099 19.3853 16.3161 19.2534 16.4487 19.1499V19.1356ZM21.6546 9.14993C21.323 9.04157 20.9641 9.04157 20.6325 9.14993C20.9669 9.24043 21.3202 9.24043 21.6546 9.14993ZM18.0149 7.54993C18.1454 7.23922 18.2511 6.91925 18.3311 6.59279C18.3311 6.51133 18.2977 6.43321 18.2385 6.37561C18.1791 6.31801 18.0987 6.28564 18.0149 6.28564C17.9311 6.28564 17.8506 6.31801 17.7913 6.37561C17.732 6.43321 17.6987 6.51133 17.6987 6.59279C17.7704 6.92143 17.8763 7.24214 18.0149 7.54993ZM18.8899 8.05707C19.0933 7.66157 19.2487 7.2445 19.3531 6.81422C19.2943 6.70707 19.2428 6.61422 19.1472 6.61422C19.0516 6.61422 18.9414 6.55707 18.8899 6.61422C18.7086 7.02675 18.6016 7.4665 18.5737 7.91422C18.6325 7.94993 18.7796 8.00707 18.8899 8.05707ZM18.3825 7.94279H18.1619C18.2151 7.56964 18.3012 7.20157 18.4193 6.84279C18.419 6.74883 18.4505 6.65739 18.509 6.58253C18.5674 6.50768 18.6496 6.45356 18.7428 6.4285C18.684 6.6285 18.5958 6.8285 18.5369 7.02136C18.4781 7.3285 18.4266 7.63564 18.3678 7.92136L18.3825 7.94279ZM18.4266 8.4785C18.7313 8.46936 19.0331 8.53836 19.3016 8.6785C19.5019 8.802 19.6625 8.97772 19.7649 9.18564C19.4602 9.19479 19.1584 9.12579 18.8899 8.98564C18.7755 8.945 18.6733 8.87736 18.5924 8.78886C18.5115 8.70036 18.4546 8.59372 18.4266 8.4785ZM18.6325 8.62136C18.8031 8.79679 19.0115 8.93336 19.2428 9.02136C19.1771 8.91564 19.0885 8.82507 18.9831 8.756C18.8777 8.68686 18.758 8.64093 18.6325 8.62136ZM20.8972 10.4285V10.1785C20.6724 10.3442 20.4249 10.4789 20.1619 10.5785C20.1548 10.4913 20.1753 10.4041 20.2208 10.3285C20.1252 10.3874 20.0171 10.424 19.9046 10.4356C19.9634 10.3285 19.9634 10.1856 20.0516 10.0928C20.0106 10.1484 19.958 10.1949 19.8972 10.2294C19.8363 10.2639 19.7687 10.2855 19.6987 10.2928C19.6908 10.1872 19.711 10.0814 19.7575 9.98564C19.6133 10.189 19.3953 10.3319 19.1472 10.3856C19.0412 10.4121 18.9302 10.4129 18.8238 10.3881C18.7174 10.3631 18.6188 10.3133 18.5369 10.2428C18.8445 10.2359 19.1372 10.1129 19.3531 9.89993C19.2349 9.83321 19.1282 9.74886 19.0369 9.64993C19.1052 9.58329 19.1975 9.54486 19.2943 9.54279C19.2201 9.52 19.1527 9.48014 19.0976 9.42672C19.0426 9.37322 19.0016 9.30772 18.9781 9.23564C19.5675 9.37629 20.1728 9.4435 20.7796 9.43564C21.1256 9.43636 21.4699 9.38822 21.8016 9.29279C21.6546 10.3428 20.8899 10.4499 20.8899 10.4499L20.8972 10.4285ZM21.0369 9.99993C21.0941 9.96007 21.1421 9.90893 21.1776 9.84986C21.213 9.79079 21.2353 9.72507 21.2428 9.65707C20.9329 9.66486 20.6228 9.64571 20.3163 9.59993V9.65707C20.3752 9.69279 21.0516 9.69279 21.0516 9.99993H21.0369ZM21.8678 9.34993C21.8636 9.57393 21.8136 9.79486 21.7208 9.99993C21.8775 9.90443 22.0005 9.76493 22.0737 9.59993C22.1325 9.38564 22.1325 9.23564 21.8678 9.34993ZM22.3899 9.58564C22.5121 9.53014 22.6494 9.51407 22.7816 9.53979C22.914 9.5655 23.0344 9.63164 23.1252 9.7285C23.1924 9.87236 23.2088 10.0338 23.1715 10.1876C23.1342 10.3414 23.0455 10.4789 22.9193 10.5785C22.7675 10.4559 22.5763 10.3889 22.3788 10.3889C22.1814 10.3889 21.9902 10.4559 21.8384 10.5785C21.6932 10.5063 21.5366 10.458 21.3752 10.4356C21.4906 10.3083 21.6305 10.2039 21.7869 10.1285C22.0506 10.0242 22.2671 9.83164 22.3972 9.58564H22.3899ZM22.6031 10.1428C22.6031 10.1216 22.5966 10.1009 22.5845 10.0833C22.5724 10.0656 22.5552 10.0519 22.535 10.0438C22.5149 10.0357 22.4927 10.0336 22.4713 10.0377C22.4499 10.0419 22.4302 10.0521 22.4148 10.067C22.3994 10.082 22.3889 10.1011 22.3847 10.1219C22.3804 10.1426 22.3826 10.1642 22.3909 10.1838C22.3993 10.2034 22.4134 10.2201 22.4316 10.2319C22.4497 10.2436 22.471 10.2499 22.4928 10.2499C22.5516 10.2499 22.6031 10.1928 22.6031 10.1428ZM21.2649 10.4856C21.156 10.626 21.038 10.7596 20.9119 10.8856C21.1305 10.8781 21.3462 10.9366 21.5292 11.053C21.7122 11.1694 21.8536 11.338 21.934 11.5356C22.0077 11.4321 22.0519 11.3116 22.0623 11.1862C22.0726 11.0608 22.0486 10.9349 21.9928 10.8214C21.9046 10.7143 21.7927 10.6279 21.6654 10.5686C21.5381 10.5092 21.3987 10.4784 21.2575 10.4785" fill="white"/>
<path d="M20.3749 10.657L20.022 10.7641V10.5641C19.9117 10.5641 19.8749 10.6212 19.7646 10.6212C19.6576 10.915 19.4983 11.1882 19.294 11.4284C19.306 11.5377 19.3437 11.6427 19.4043 11.7355C19.5287 11.5297 19.6662 11.3317 19.8161 11.1427C19.9596 10.9432 20.1515 10.7813 20.3749 10.6712V10.657ZM21.044 10.5641C20.7806 10.6186 20.5307 10.723 20.3087 10.8712C20.1837 10.947 20.0805 11.0522 20.0085 11.177C19.9365 11.302 19.8981 11.4425 19.897 11.5855C20.0096 11.4302 20.1489 11.295 20.3087 11.1855C20.5977 11.0363 20.8489 10.8265 21.044 10.5712V10.5641ZM21.044 8.02125C20.9337 8.02125 20.8381 8.07839 20.8381 8.1641C20.9006 8.3546 20.9871 8.53696 21.0955 8.70696C21.2143 8.5426 21.3015 8.35868 21.3529 8.1641C21.2689 8.0806 21.1565 8.02982 21.0367 8.02125H21.044ZM21.1837 8.97839C21.1997 8.72882 21.2698 8.48539 21.3896 8.2641C21.4851 8.20525 21.5933 8.1686 21.7058 8.15696C21.7646 8.15696 21.8529 8.2141 21.8161 8.29982V8.35696C21.6925 8.58153 21.555 8.7986 21.4043 9.00696C21.4043 8.97125 21.294 8.97125 21.1837 8.97125V8.97839ZM20.9411 8.97125C20.8979 8.72689 20.8289 8.4876 20.7352 8.25696C20.6397 8.1981 20.5315 8.16146 20.419 8.14982C20.3812 8.15303 20.3456 8.1691 20.3187 8.19525C20.2918 8.22139 20.2753 8.25589 20.272 8.29268V8.34982C20.3956 8.57439 20.5331 8.79146 20.6837 8.99982C20.765 8.96675 20.8536 8.95439 20.9411 8.9641V8.97125ZM20.6837 7.4141H20.9779V7.14268H21.1837V7.39268H21.4411V7.59268H21.1837V7.85696H20.9779V7.57125H20.6837V7.4141ZM17.647 5.79982H17.9043V5.49268H18.1102V5.79982H18.3823V5.94268H18.1249V6.30696H17.919V5.94268H17.647V5.79982ZM23.8381 9.19268V8.70696C23.9635 8.74718 24.0784 8.81332 24.1749 8.90089C24.2715 8.98846 24.3472 9.09532 24.397 9.2141C24.397 9.2141 23.9852 8.9641 23.8381 9.2141V9.19268ZM23.4632 9.8641C23.4043 9.6641 23.3529 9.4141 23.3161 9.2141C23.2225 8.9171 23.2434 8.59718 23.3749 8.3141C23.5107 8.10089 23.5629 7.84732 23.522 7.59982L23.8749 7.74268C23.859 7.99225 23.7888 8.23568 23.669 8.45696C23.5951 8.64589 23.5748 8.85068 23.6102 9.04982C23.6669 9.18525 23.6831 9.33346 23.6571 9.47746C23.6311 9.62153 23.5639 9.75546 23.4632 9.8641ZM23.4632 7.72125V7.57839C23.2712 7.36868 23.0122 7.22775 22.7279 7.17839C22.5808 7.12125 22.4705 7.17839 22.3161 7.28553C22.4129 7.2876 22.5051 7.32603 22.5734 7.39268C22.7307 7.52932 22.9064 7.64468 23.0955 7.73553C23.2131 7.72903 23.3309 7.72903 23.4484 7.73553" fill="white"/>
<path d="M22.3307 7.24298C22.2051 7.34784 22.1153 7.48741 22.0733 7.64298C22.1193 7.85477 22.2066 8.05605 22.3307 8.23584C22.4558 8.37777 22.5283 8.55634 22.5366 8.74298C22.5366 8.85013 22.4263 8.94298 22.3895 9.05013C22.4993 9.02005 22.6019 8.96927 22.6916 8.90063C22.7811 8.83198 22.8559 8.74684 22.9116 8.65013C22.9395 8.55513 22.9406 8.45463 22.9147 8.35913C22.8888 8.26355 22.8369 8.17663 22.7645 8.10727C22.6734 7.91127 22.5546 7.72855 22.4116 7.56441C22.3533 7.4647 22.3276 7.35005 22.338 7.23584L22.3307 7.24298ZM19.6248 10.393C19.5375 10.6967 19.3983 10.9841 19.213 11.243C19.0697 11.4704 18.9981 11.7336 19.0071 12.0001C18.9002 11.7622 18.8621 11.5004 18.8969 11.243C18.9369 11.0531 19.0251 10.8758 19.1535 10.7273C19.2819 10.5789 19.4464 10.464 19.6321 10.393H19.6248ZM19.1101 10.4858C18.9505 10.4958 18.7939 10.5321 18.6469 10.593C18.4099 10.7701 18.2458 11.0233 18.1836 11.3073C18.3472 11.2626 18.5032 11.1953 18.6469 11.1073C18.8512 10.9429 19.0104 10.7318 19.1101 10.493V10.4858ZM20.7645 11.1073C20.8748 11.1073 20.9704 11.1644 21.0807 11.1644C20.9363 11.2163 20.7983 11.2833 20.6689 11.3644C20.5927 11.4275 20.5306 11.505 20.4864 11.5922C20.4422 11.6794 20.4167 11.7745 20.4116 11.8716C20.3401 12.1475 20.2339 12.4138 20.0954 12.6644C20.0915 12.3941 20.0418 12.1262 19.9483 11.8716C20.0666 11.8049 20.1733 11.7205 20.2645 11.6216C20.3083 11.5086 20.3751 11.4054 20.461 11.3182C20.5469 11.2311 20.6502 11.1617 20.7645 11.1144V11.1073ZM19.2939 11.8287C19.1728 12.0635 19.1123 12.3233 19.1174 12.5858C19.2369 12.8569 19.3927 13.1115 19.5807 13.343C19.6446 13.0467 19.6816 12.7456 19.691 12.443C19.6887 12.313 19.6533 12.1855 19.5878 12.0721C19.5224 11.9586 19.429 11.8627 19.316 11.793L19.2939 11.8287ZM18.0145 12.693C18.0145 12.493 18.4777 12.043 18.4777 11.793C18.4416 11.6883 18.3809 11.5932 18.3005 11.5151C18.2202 11.4371 18.1223 11.3781 18.0145 11.343C17.8173 11.4447 17.656 11.6014 17.5513 11.793C17.5513 12.043 18.0145 12.5501 18.0145 12.693ZM18.7498 11.793C18.5937 12.0615 18.4703 12.3468 18.3821 12.643C18.3567 12.7356 18.3534 12.8328 18.3725 12.9268C18.3916 13.0209 18.4327 13.1096 18.4924 13.1858C18.6395 13.3858 18.8086 13.5858 18.9557 13.7787C19.0537 13.6616 19.124 13.5251 19.1616 13.3787C19.1743 13.1801 19.1594 12.9806 19.1174 12.7858C18.9485 12.4722 18.8224 12.1384 18.7424 11.793H18.7498ZM18.0071 14.143C18.1491 14.0411 18.2586 13.9025 18.3233 13.743C18.3552 13.6781 18.3667 13.6055 18.3563 13.5343C18.3458 13.4631 18.3138 13.3966 18.2645 13.343C18.1392 13.2178 18.0504 13.0625 18.0071 12.893C17.9429 13.0537 17.8563 13.2051 17.7498 13.343C17.6996 13.3961 17.6671 13.4627 17.6566 13.5341C17.646 13.6056 17.658 13.6783 17.691 13.743C17.7605 13.8998 17.8692 14.0372 18.0071 14.143ZM18.5292 13.743C18.7278 13.9399 18.903 14.158 19.0513 14.393C19.106 14.4736 19.1352 14.5679 19.1352 14.6644C19.1352 14.7609 19.106 14.8553 19.0513 14.9358C18.8894 15.1564 18.6814 15.3414 18.441 15.4787C18.586 15.2679 18.6581 15.0177 18.6469 14.7644C18.5913 14.5906 18.5225 14.4211 18.441 14.2573C18.4319 14.0787 18.4646 13.9004 18.5366 13.7358L18.5292 13.743ZM19.2719 13.4858C19.1717 13.6153 19.1199 13.774 19.1248 13.9358C19.1347 14.1373 19.1718 14.3366 19.2351 14.5287C19.346 14.8234 19.4838 15.1078 19.6469 15.3787C19.7533 15.2408 19.8399 15.0894 19.9042 14.9287C19.7571 14.7287 19.6469 14.5287 19.4924 14.3358C19.338 14.143 19.3233 13.743 19.2719 13.4858ZM19.441 13.343C19.5463 13.8756 19.7533 14.3843 20.0513 14.843C20.1349 14.9934 20.2513 15.1243 20.3921 15.2267C20.5331 15.3291 20.6953 15.4004 20.8674 15.4358C21.0193 15.4288 21.1651 15.3763 21.2849 15.2855C21.4047 15.1947 21.4927 15.0701 21.5366 14.9287C21.5885 14.7983 21.6058 14.6571 21.5864 14.5185C21.5672 14.3798 21.5121 14.2482 21.4263 14.1358C21.394 14.262 21.3291 14.3781 21.2377 14.4731C21.1463 14.5681 21.0316 14.6388 20.9042 14.6787C20.5145 14.643 19.9924 14.193 19.4336 13.343" fill="white"/>
<path d="M19.853 13C19.8019 13.1872 19.8019 13.3842 19.853 13.5714C19.8727 13.675 19.9141 13.7736 19.9749 13.8609C20.0356 13.9481 20.1143 14.0222 20.2059 14.0786C20.3253 14.146 20.466 14.1686 20.6014 14.1424C20.7368 14.116 20.8577 14.0426 20.9412 13.9357L21 13.8786C20.7418 13.8559 20.4958 13.7607 20.2922 13.6047C20.0886 13.4487 19.936 13.2386 19.853 13ZM18.0147 15.4929C18.1484 15.4506 18.2611 15.3614 18.3309 15.2429C18.4314 15.0607 18.482 14.8566 18.478 14.65C18.4219 14.4857 18.3346 14.3331 18.2206 14.2C18.1636 14.2617 18.0933 14.3105 18.0147 14.3429C17.9506 14.2894 17.8817 14.2416 17.8089 14.2C17.7024 14.3379 17.6158 14.4893 17.5515 14.65C17.5294 14.7532 17.5312 14.8599 17.5566 14.9624C17.582 15.0649 17.6305 15.1607 17.6986 15.2429C17.7574 15.4071 17.8677 15.4429 18.0147 15.4929ZM18.0147 16.9929C18.0736 16.7429 18.5368 16.3429 18.5368 16.0929C18.5368 15.8429 18.2206 15.7857 18.0147 15.6429C17.8089 15.7857 17.603 15.75 17.4927 16.0929C17.4927 16.2929 17.9559 16.7429 18.0147 16.9929ZM18.5736 16.45C18.3772 16.689 18.2208 16.9566 18.1103 17.2429C18.1204 17.6135 18.2294 17.9754 18.4265 18.2929C18.6615 18.1029 18.8414 17.8567 18.9486 17.5786C18.9839 17.3717 18.9683 17.1597 18.9032 16.9599C18.838 16.76 18.725 16.5779 18.5736 16.4286V16.45ZM19.0956 16.7714C19.0061 16.5294 18.866 16.3081 18.6839 16.1214C18.6297 15.9077 18.6519 15.6826 18.7468 15.4827C18.8416 15.2829 19.0035 15.1202 19.2059 15.0214C19.3724 15.2704 19.5105 15.5362 19.6177 15.8143C19.6544 16.2286 19.2427 16.4286 19.0956 16.7714ZM20.0221 15.0714C20.1347 15.2267 20.274 15.362 20.4339 15.4714V15.9786C20.3534 16.2701 20.2476 16.5544 20.1177 16.8286C19.9575 16.6364 19.8375 16.4156 19.7647 16.1786C19.7223 15.9837 19.7026 15.7849 19.7059 15.5857C19.7647 15.5286 19.9118 15.2214 20.0221 15.0786V15.0714ZM20.8971 16.5071C21.1136 16.2033 21.2592 15.8571 21.3236 15.4929C21.2125 15.5534 21.0893 15.5898 20.9624 15.5996C20.8354 15.6095 20.7078 15.5926 20.5883 15.55C20.5325 15.7633 20.5325 15.9867 20.5883 16.2C20.6794 16.326 20.7855 16.4411 20.9044 16.5429L20.8971 16.5071ZM20.8456 16.65C20.7353 16.5429 20.6397 16.5071 20.5883 16.4C20.478 16.6 20.3824 16.8 20.2721 16.9929C20.3824 16.9929 20.478 16.9929 20.5294 16.9357C20.625 16.8306 20.7308 16.7349 20.8456 16.65ZM19.6471 16.4286C19.8034 16.6784 19.9779 16.9171 20.1691 17.1429C20.1136 17.3166 20.0448 17.4862 19.9633 17.65C19.839 17.8682 19.683 18.0679 19.5 18.2429C19.3744 18.056 19.2685 17.8574 19.1838 17.65C19.1058 17.4924 19.0826 17.3144 19.1177 17.1429C19.228 16.8929 19.5441 16.6357 19.6397 16.3857L19.6471 16.4286ZM18.0147 19.5929C18.1475 19.4014 18.2702 19.2035 18.3824 19C18.4322 18.8612 18.4322 18.7101 18.3824 18.5714C18.3236 18.4286 18.0662 18.0643 18.0294 17.9786C17.8869 18.1666 17.7591 18.3649 17.6471 18.5714C17.5919 18.7166 17.5919 18.8762 17.6471 19.0214C17.7427 19.3286 18 19.4714 18 19.6143L18.0147 19.5929ZM19.0221 17.8071C18.8515 18.0256 18.7129 18.266 18.6103 18.5214C18.5743 18.6734 18.5952 18.8329 18.6691 18.9714C18.728 19.0786 18.875 19.3143 18.9853 19.5143C19.1927 19.3616 19.353 19.1566 19.4486 18.9214C19.4801 18.8238 19.4911 18.7211 19.4811 18.6192C19.4709 18.5174 19.4399 18.4185 19.3897 18.3286C19.3309 18.1857 19.1324 18.0429 19.0147 17.8214L19.0221 17.8071ZM20.0956 17.7857C19.9508 17.9669 19.8321 18.1663 19.7427 18.3786C19.6884 18.4684 19.6597 18.5708 19.6597 18.675C19.6597 18.7792 19.6884 18.8816 19.7427 18.9714C19.853 19.1714 19.9486 19.3143 20 19.4214C20.1494 19.2619 20.2688 19.0781 20.353 18.8786C20.4081 18.6846 20.4081 18.4797 20.353 18.2857C20.2452 18.1281 20.1586 17.9576 20.0956 17.7786V17.7857ZM18.0147 22.5C18.22 22.0698 18.3588 21.6125 18.4265 21.1429C18.372 20.7959 18.2306 20.4672 18.0147 20.1857C17.7742 20.4529 17.6297 20.7889 17.603 21.1429C17.6542 21.6158 17.7938 22.0756 18.0147 22.5ZM18.625 19.1929C18.8554 19.4567 19.0236 19.7664 19.1177 20.1C19.0373 20.4077 18.9316 20.7087 18.8015 21C18.6526 20.8536 18.5329 20.6816 18.4486 20.4929C18.3775 20.4011 18.3275 20.2956 18.3022 20.1834C18.2768 20.0713 18.2766 19.9551 18.3015 19.8429C18.2879 19.719 18.308 19.5939 18.3595 19.4799C18.4111 19.3658 18.4925 19.2669 18.5956 19.1929H18.625ZM19.5809 19.1357C19.4229 19.3593 19.3336 19.6219 19.3236 19.8929C19.4337 20.1448 19.5717 20.3843 19.7353 20.6071C19.8442 20.4198 19.9305 20.2209 19.9927 20.0143C19.9973 19.8491 19.9625 19.6852 19.8911 19.5353C19.8197 19.3854 19.7135 19.2535 19.5809 19.15" fill="white"/>
<path d="M18.3822 23.4928C18.4489 23.1467 18.5678 22.8121 18.7352 22.4999C18.7672 22.3522 18.7653 22.1996 18.7297 22.0526C18.6941 21.9058 18.6257 21.7683 18.5293 21.6499C18.3891 22.0953 18.2146 22.5299 18.0072 22.9499C17.8077 22.5266 17.6334 22.0926 17.4852 21.6499C17.3888 21.7683 17.3203 21.9058 17.2848 22.0526C17.2492 22.1996 17.2473 22.3522 17.2793 22.4999C17.4323 22.8194 17.5554 23.1518 17.6469 23.4928C17.6397 23.6403 17.5857 23.7819 17.4922 23.8983C17.3987 24.0147 17.2704 24.1001 17.1249 24.1428C17.2531 24.1918 17.3944 24.1988 17.5271 24.1628C17.6599 24.1266 17.7768 24.0494 17.8602 23.9428C17.9237 23.8874 17.9739 23.8191 18.0072 23.7428C18.0623 23.8051 18.1115 23.872 18.1543 23.9428C18.2369 24.0503 18.3538 24.1283 18.4869 24.1646C18.6199 24.2007 18.7615 24.1931 18.8896 24.1428C18.768 24.0716 18.6623 23.9773 18.5789 23.8657C18.4955 23.754 18.4362 23.6272 18.4043 23.4928H18.3822ZM16.7131 20.3499C16.7719 20.4928 16.919 20.8571 16.9705 20.9428C16.9905 21.0735 16.9669 21.207 16.9035 21.3239C16.84 21.4408 16.7399 21.535 16.6175 21.5928C16.4793 21.5117 16.3691 21.3923 16.3014 21.2499C16.2674 21.1855 16.2548 21.1125 16.2653 21.0408C16.2759 20.9692 16.309 20.9025 16.3602 20.8499C16.44 20.6587 16.5602 20.4859 16.7131 20.3428V20.3499ZM17.4484 21.0571C17.4241 21.3651 17.3548 21.6681 17.2425 21.9571C17.1644 22.1172 17.0506 22.2586 16.9095 22.371C16.7684 22.4834 16.6033 22.564 16.4264 22.6071C16.2571 22.5792 16.0978 22.5105 15.9631 22.4071C15.9761 22.3145 16.0163 22.2275 16.0789 22.1566C16.1415 22.0856 16.2239 22.0337 16.3161 22.0071C16.784 21.8059 17.1786 21.4723 17.4484 21.0499V21.0571ZM16.4631 21.7642C16.399 21.7107 16.3301 21.6629 16.2572 21.6213C16.0745 21.6863 15.8994 21.7701 15.7352 21.8713C15.522 22.0241 15.3336 22.2071 15.1764 22.4142C15.3584 22.4687 15.5531 22.4687 15.7352 22.4142C15.7753 22.2295 15.8889 22.0677 16.0514 21.9642C16.1741 21.8725 16.3139 21.8046 16.4631 21.7642ZM16.1764 21.4928C16.0763 21.3633 16.0244 21.2046 16.0293 21.0428L15.419 21.4428C15.2224 21.5883 15.0468 21.7589 14.8969 21.9499C15.0969 21.8893 15.3008 21.8416 15.5072 21.8071C15.7646 21.6999 15.9705 21.6071 16.1764 21.4999V21.4928ZM15.3602 22.0071C15.0066 22.116 14.6454 22.1996 14.2793 22.2571C14.0277 22.3625 13.8003 22.5154 13.6102 22.7071L14.169 22.8499C14.3599 22.7158 14.5644 22.6008 14.7793 22.5071C15.003 22.3764 15.198 22.2041 15.3528 21.9999L15.3602 22.0071ZM14.8308 23.6428C14.9411 23.5856 14.9411 23.4999 14.8896 23.3928C14.8036 23.2738 14.6795 23.1859 14.5366 23.1428C14.2205 23.0356 13.8675 22.9428 13.5514 22.8356C13.4963 22.8979 13.4471 22.9648 13.4043 23.0356C13.4043 23.0928 13.4043 23.1428 13.5146 23.1428H14.1837C14.22 23.1727 14.2453 23.2132 14.2558 23.2583C14.2665 23.3033 14.2618 23.3505 14.2425 23.3928C14.338 23.3339 14.4462 23.2973 14.5587 23.2856C14.6293 23.3235 14.6908 23.3756 14.7389 23.4384C14.7871 23.5013 14.8209 23.5733 14.8381 23.6499L14.8308 23.6428ZM14.3161 22.8571C14.4981 22.9018 14.6736 22.9691 14.8381 23.0571C14.8969 22.9999 14.9484 22.9999 14.9852 22.9499C15.0819 22.7823 15.2244 22.6438 15.3969 22.5499C15.3072 22.5568 15.2174 22.5369 15.1396 22.4928C15.0293 22.5499 14.9337 22.5499 14.8234 22.5999C14.6444 22.6576 14.4758 22.742 14.3234 22.8499L14.3161 22.8571ZM15.794 22.5071C15.7352 22.5642 15.6469 22.5642 15.5366 22.5642C15.2623 22.7231 15.062 22.9791 14.9778 23.2785C14.9442 23.3647 14.9469 23.4603 14.9855 23.5446C15.0241 23.6288 15.0953 23.6949 15.1837 23.7285C15.2928 23.7751 15.4158 23.7803 15.5287 23.7433C15.6416 23.7063 15.7363 23.6297 15.794 23.5285C15.794 23.4713 15.8528 23.4713 15.8528 23.4213C15.8152 23.4509 15.7719 23.4729 15.7255 23.4863C15.679 23.4996 15.6303 23.5038 15.5822 23.4988C15.5341 23.4938 15.4875 23.4797 15.4449 23.4573C15.4024 23.4348 15.3649 23.4043 15.3344 23.3678C15.273 23.2939 15.2443 23.1993 15.2547 23.1049C15.265 23.0104 15.3136 22.9238 15.3896 22.8642C15.4484 22.8642 15.4484 22.8071 15.4999 22.8071C15.6659 22.7033 15.8616 22.6532 16.0587 22.6642C15.9484 22.6071 15.8528 22.5213 15.8014 22.5213" fill="white"/>
<path d="M12.4561 26.4284C12.5194 26.1832 12.6055 25.9442 12.7135 25.7142C12.9708 25.207 13.4929 23.9642 14.662 23.7642C14.7723 23.7642 14.5517 23.457 14.4046 23.5142C14.2554 23.5545 14.1157 23.6224 13.9929 23.7142V23.407C13.9929 23.3499 13.9341 23.3499 13.8826 23.3499C13.7384 23.3524 13.597 23.3892 13.4708 23.457C13.0707 23.9868 12.7443 24.5657 12.5002 25.1784C12.2429 25.7713 12.0885 25.9713 11.7649 25.8927C11.4414 25.8142 11.3532 25.4927 10.8385 25.5856C10.638 25.6379 10.457 25.7444 10.3164 25.8927C10.3424 25.9497 10.3887 25.9956 10.4468 26.0219C10.505 26.0482 10.571 26.053 10.6326 26.0356C10.9416 26.0437 11.2432 26.1298 11.5076 26.2856C11.8206 26.3563 12.1372 26.4112 12.4561 26.4499V26.4284ZM17.1399 22.5142C17.1753 22.7139 17.2641 22.9011 17.3973 23.057C17.3973 23.057 17.0444 24.6642 15.7429 24.807C15.7982 24.566 15.9453 24.3542 16.1546 24.2142C16.5664 23.9642 17.1399 23.5642 17.0811 22.9713C16.9629 23.038 16.8562 23.1224 16.7649 23.2213C16.5591 23.4713 16.2061 24.1213 15.537 24.1213C15.5981 23.921 15.7213 23.7439 15.8899 23.6142C16.194 23.4533 16.4596 23.2318 16.6693 22.9642C16.7633 22.7651 16.9277 22.6054 17.1326 22.5142H17.1399ZM16.5223 28.3999L17.3017 29.4999L17.912 28.4499L17.7061 28.107L17.2943 28.8642L16.7723 28.107L16.5149 28.3927" fill="white"/>
<path d="M16.3236 27.4855L14.5221 24.9998L14.8383 24.7998L13.9118 24.457V25.4498L14.228 25.1998L16.1251 27.7998L16.331 27.4927L16.3236 27.4855ZM9.84567 21.607C10.103 21.357 10.456 21.5498 10.8677 21.9498C11.2795 22.3498 11.5368 22.6641 11.2795 22.907C11.0221 23.1498 10.6692 22.9641 10.2574 22.5998C9.84567 22.2355 9.64714 21.8855 9.84567 21.607Z" fill="white"/>
<path d="M10.5075 25.9856C10.3905 25.8882 10.298 25.7661 10.2368 25.6288C10.1757 25.4914 10.1475 25.3423 10.1545 25.1928C10.1422 25.0481 10.1609 24.9025 10.2094 24.7652C10.258 24.6278 10.3353 24.5018 10.4366 24.3951C10.5377 24.2882 10.6607 24.203 10.7976 24.1446C10.9344 24.0863 11.0823 24.0563 11.2317 24.0563C11.3812 24.0563 11.529 24.0863 11.6658 24.1446C11.8027 24.203 11.9257 24.2882 12.0269 24.3951C12.1281 24.5018 12.2055 24.6278 12.254 24.7652C12.3025 24.9025 12.3212 25.0481 12.3089 25.1928V25.3928C12.3802 25.2056 12.4663 25.0242 12.5663 24.8499C12.468 24.508 12.2363 24.2167 11.9206 24.038C11.6048 23.8593 11.2298 23.8072 10.8751 23.8928C10.4982 24.0101 10.1839 24.2666 10.0001 24.6071C10.0608 24.1645 10.2553 23.7493 10.5589 23.4142C10.7419 23.2772 10.9486 23.1732 11.1692 23.1071C10.9809 23.1076 10.7949 23.0675 10.6245 22.9896C10.4541 22.9118 10.3036 22.7982 10.1839 22.6571C9.89157 22.4545 9.69135 22.1499 9.6251 21.8071C9.67076 22.0761 9.6323 22.3523 9.5148 22.5999C9.21341 23.1543 9.09047 23.7839 9.16186 24.4071C9.30179 25.0031 9.62488 25.5436 10.0883 25.9571C10.1393 26.0107 10.1786 26.0738 10.2038 26.1425C10.2291 26.2112 10.2398 26.2842 10.2354 26.3571H11.2207C11.2207 26.3571 11.4266 26.3571 11.4266 26.2142C11.4266 26.0713 11.3163 26.0713 11.2207 26.0713C10.9731 26.0967 10.7229 26.0724 10.4854 25.9999L10.5075 25.9856ZM14.7427 26.2142C14.2602 26.3574 13.7691 26.4719 13.2722 26.5571C12.9828 26.6014 12.69 26.6206 12.3972 26.6142V26.7571C12.4169 26.7754 12.4324 26.7976 12.4425 26.8223C12.4527 26.8469 12.4572 26.8734 12.456 26.8999C12.7659 26.9077 13.076 26.8886 13.3824 26.8428C13.9341 26.7781 14.4736 26.6386 14.9854 26.4285L14.7648 26.1928L14.7427 26.2142ZM15.603 26.1928C16.3944 25.7973 17.0527 25.1901 17.5001 24.4428L17.6104 24.2999C17.5557 24.3269 17.4952 24.3409 17.4339 24.3409C17.3726 24.3409 17.3122 24.3269 17.2575 24.2999L17.1986 24.4071C16.743 25.0648 16.1428 25.6162 15.4413 26.0213L15.5883 26.1999L15.603 26.1928ZM11.1766 26.4856H10.6177C10.5811 26.4749 10.5424 26.4716 10.5044 26.4761C10.4663 26.4804 10.4297 26.4923 10.3965 26.5111C10.3634 26.5298 10.3347 26.5551 10.312 26.5851C10.2894 26.6151 10.2733 26.6493 10.2648 26.6856C10.206 26.7928 10.2648 26.8856 10.3751 26.9928C10.4854 27.0999 10.581 27.0499 10.6325 26.9928C10.8436 26.8921 11.0475 26.7775 11.2427 26.6499C11.2795 26.5428 11.3383 26.4356 11.1692 26.4856H11.1766ZM11.6325 26.7356C11.5528 26.6963 11.4644 26.6767 11.3751 26.6785C11.1709 26.7864 10.9829 26.921 10.8163 27.0785C10.7575 27.1856 10.8163 27.2213 10.9266 27.2785C10.985 27.3226 11.0588 27.3431 11.1325 27.3356C11.2293 27.3336 11.3215 27.2951 11.3898 27.2285C11.4486 27.1713 11.6472 26.9213 11.706 26.8856C11.6929 26.8332 11.6677 26.7844 11.6325 26.7428V26.7356ZM11.6913 26.9928C11.6325 27.0499 11.4339 27.2999 11.4339 27.2999C11.4339 27.2999 11.4339 27.3571 11.4927 27.4071H11.5516C11.7358 27.4071 11.9165 27.3576 12.0736 27.2642C12.2427 27.1713 12.3898 26.9213 12.2207 26.8642C12.1783 26.8376 12.1306 26.8197 12.0807 26.8118C12.0308 26.8038 11.9798 26.8059 11.9308 26.818C11.8819 26.8301 11.8359 26.8518 11.796 26.8818C11.7561 26.9119 11.7229 26.9497 11.6986 26.9928H11.6913ZM11.8089 26.3428C11.7608 26.3158 11.7063 26.3016 11.6508 26.3016C11.5953 26.3016 11.5408 26.3158 11.4927 26.3428C11.4339 26.4499 11.4927 26.5428 11.6398 26.5928C11.723 26.6416 11.8161 26.6719 11.9127 26.6818C12.0092 26.6917 12.1069 26.6808 12.1986 26.6499C12.2722 26.5928 12.1619 26.4356 11.8089 26.3428ZM19.4119 20.3499C19.353 20.4928 19.206 20.8571 19.1545 20.9428C19.1346 21.0735 19.158 21.207 19.2215 21.3239C19.2849 21.4408 19.3851 21.535 19.5075 21.5928C19.6457 21.5117 19.7558 21.3923 19.8236 21.2499C19.8576 21.1855 19.8702 21.1125 19.8597 21.0408C19.8491 20.9692 19.816 20.9025 19.7648 20.8499C19.6177 20.6356 19.5075 20.4856 19.4119 20.3428V20.3499ZM18.6324 21.0571C18.6491 21.3718 18.7369 21.6791 18.8898 21.9571C18.968 22.1172 19.0817 22.2586 19.2228 22.371C19.3639 22.4834 19.529 22.564 19.706 22.6071C19.8752 22.5792 20.0345 22.5105 20.1692 22.4071C20.1605 22.3174 20.1264 22.2318 20.0705 22.1599C20.0147 22.0881 19.9394 22.0326 19.853 21.9999C19.3682 21.8009 18.954 21.4681 18.6619 21.0428" fill="white"/>
<path d="M19.5589 21.743C19.623 21.6895 19.6919 21.6417 19.7647 21.6001C19.9475 21.6651 20.1225 21.7488 20.2868 21.8501C20.5 22.0029 20.6883 22.1859 20.8456 22.393C20.6636 22.4475 20.4689 22.4475 20.2868 22.393C20.2467 22.2083 20.133 22.0465 19.9706 21.943C19.9118 21.8501 19.7647 21.8001 19.5589 21.743ZM19.875 21.493C19.9822 21.3452 20.034 21.1663 20.0221 20.9858L20.6324 21.3858C20.829 21.5314 21.0046 21.702 21.1544 21.893C20.9544 21.8324 20.7506 21.7847 20.5441 21.7501C20.3166 21.6881 20.1058 21.5784 19.9265 21.4287L19.875 21.493ZM20.6618 21.9858C21.0153 22.0948 21.3766 22.1783 21.7427 22.2358C21.9942 22.3413 22.2217 22.4943 22.4118 22.6858L21.853 22.8287C21.6621 22.6946 21.4576 22.5797 21.2427 22.4858C21.0152 22.3602 20.8192 22.187 20.6691 21.9787L20.6618 21.9858ZM21.1691 23.6216C21.0589 23.5644 21.0589 23.4787 21.1103 23.3716C21.1963 23.2526 21.3204 23.1647 21.4633 23.1216C21.7794 23.0144 22.1324 22.9216 22.4486 22.8144C22.5036 22.8767 22.5528 22.9436 22.5956 23.0144C22.5956 23.0716 22.5956 23.1216 22.4853 23.1216H21.8162C21.78 23.1515 21.7547 23.192 21.7441 23.2371C21.7334 23.2821 21.7381 23.3293 21.7574 23.3716C21.6619 23.3127 21.5537 23.2761 21.4412 23.2644C21.3036 23.3467 21.2036 23.4771 21.1618 23.6287L21.1691 23.6216ZM21.7133 22.8573C21.5312 22.9021 21.3558 22.9693 21.1912 23.0573C21.1625 23.0556 21.1355 23.0438 21.1152 23.024C21.0948 23.0043 21.0827 22.978 21.0809 22.9501C20.9842 22.7825 20.8417 22.6441 20.6691 22.5501C20.7589 22.5571 20.8487 22.5371 20.9265 22.493C21.0368 22.5501 21.1324 22.5501 21.2427 22.6001C21.4066 22.6658 21.562 22.7496 21.7059 22.8501L21.7133 22.8573ZM20.2353 22.5073C20.2941 22.5644 20.3824 22.5644 20.4927 22.5644C20.767 22.7233 20.9673 22.9793 21.0515 23.2787C21.0851 23.3649 21.0824 23.4606 21.0438 23.5448C21.0053 23.6291 20.934 23.6952 20.8456 23.7287C20.7365 23.7753 20.6135 23.7806 20.5006 23.7436C20.3877 23.7066 20.293 23.6299 20.2353 23.5287C20.2353 23.4716 20.1765 23.4716 20.1765 23.4216C20.2525 23.4812 20.3499 23.5091 20.4471 23.4991C20.5443 23.4891 20.6335 23.4418 20.6949 23.368C20.7563 23.2941 20.785 23.1996 20.7747 23.1051C20.7643 23.0107 20.7158 22.9241 20.6397 22.8644C20.5809 22.8644 20.5809 22.8073 20.5294 22.8073C20.3634 22.7035 20.1678 22.6534 19.9706 22.6644C20.0809 22.6073 20.1765 22.5216 20.228 22.5216L20.2353 22.5073ZM23.6324 26.4287C23.5668 26.1833 23.4781 25.9442 23.3677 25.7144C23.1103 25.2073 22.5883 23.9644 21.4191 23.7644C21.3089 23.7644 21.5294 23.4573 21.6765 23.5144C21.8257 23.5548 21.9655 23.6227 22.0883 23.7144V23.4073C22.0883 23.3501 22.1471 23.3501 22.1986 23.3501C22.2711 23.3384 22.3454 23.3418 22.4164 23.3603C22.4875 23.3788 22.5536 23.4119 22.6103 23.4573C23.0179 23.9951 23.3492 24.5838 23.5956 25.2073C23.853 25.8001 24.0074 26.0001 24.3309 25.9216C24.6544 25.843 24.7941 25.5216 25.2574 25.6144C25.4578 25.6667 25.6389 25.7732 25.7794 25.9216C25.7535 25.9786 25.7072 26.0244 25.649 26.0507C25.5908 26.077 25.5248 26.0818 25.4633 26.0644C25.1542 26.0725 24.8526 26.1586 24.5883 26.3144C24.255 26.3858 23.9388 26.4406 23.6397 26.4787L23.6324 26.4287ZM18.8897 22.5001C18.8544 22.6998 18.7656 22.8871 18.6324 23.043C18.6324 23.043 18.9853 24.6501 20.2868 24.793C20.2314 24.552 20.0844 24.3402 19.875 24.2001C19.4633 23.9501 18.8897 23.5501 18.9486 22.9573C19.0668 23.024 19.1735 23.1083 19.2647 23.2073C19.4706 23.4573 19.8236 24.1073 20.4927 24.1073C20.4316 23.907 20.3083 23.7298 20.1397 23.6001C19.8357 23.4393 19.57 23.2178 19.3603 22.9501C19.2609 22.7548 19.0981 22.5967 18.8971 22.5001H18.8897ZM18.0147 24.0358C18.2228 24.4347 18.4849 24.8047 18.7941 25.1358C19 25.3358 19.5294 25.8501 19.8162 26.093C19.3645 25.9921 18.9438 25.789 18.5883 25.5001C18.416 25.5991 18.2266 25.6668 18.0294 25.7001C17.8302 25.6744 17.6394 25.6061 17.4706 25.5001C17.122 25.7991 16.6985 26.0036 16.2427 26.093C16.5 25.843 17.0589 25.3358 17.2647 25.1358C17.6004 24.8344 17.8531 24.4563 18 24.0358" fill="white"/>
<path d="M18.0145 25.843C18.1741 25.833 18.3307 25.7968 18.4777 25.7358C18.3822 25.971 18.2219 26.1761 18.0145 26.3287C17.8193 26.1646 17.6615 25.9626 17.5513 25.7358C17.6983 25.7968 17.8549 25.833 18.0145 25.843Z" fill="white"/>
<path d="M18.6839 29.493L21.8236 25.2502L22.1398 25.5002V24.5073L21.2133 24.8502L21.5295 25.0502L18.7575 28.843L17.2869 26.3502L17.1398 26.6002L15.9119 28.443L15.5957 28.243V29.2359L16.581 28.893L16.2648 28.693L17.3457 27.0859L18.6839 29.4859" fill="white"/>
<path d="M19.2427 27.793L18.7207 27.0001C18.6618 27.143 18.4633 27.4001 18.3089 27.7573L18.103 27.3573L18.7133 26.3073L18.8604 26.5573L19.4192 27.5144L19.2354 27.7859L19.2427 27.793ZM19.9045 28.0358L20.1104 28.3787L20.4266 28.1787V29.1716L19.4413 28.8287L19.7574 28.6287L19.6104 28.4287L19.9045 28.0287V28.0358ZM26.1913 21.6001C25.9339 21.3501 25.581 21.543 25.1692 21.943C24.7574 22.343 24.5001 22.6573 24.7574 22.9001C25.0148 23.143 25.3677 22.9573 25.7795 22.593C26.1913 22.2287 26.3898 21.8787 26.1913 21.6001Z" fill="white"/>
<path d="M25.5809 25.9855C25.6979 25.8881 25.7904 25.766 25.8516 25.6287C25.9127 25.4913 25.9409 25.3422 25.9339 25.1927C25.9115 24.9301 25.7884 24.6852 25.5888 24.5067C25.3892 24.3282 25.1279 24.2292 24.8567 24.2292C24.5854 24.2292 24.3241 24.3282 24.1245 24.5067C23.925 24.6852 23.8018 24.9301 23.7795 25.1927V25.3927C23.7206 25.2855 23.5221 24.8855 23.5221 24.8498C23.6204 24.5079 23.852 24.2167 24.1678 24.0379C24.4836 23.8592 24.8586 23.8071 25.2133 23.8927C25.5902 24.0099 25.9045 24.2665 26.0883 24.6069C26.0276 24.1644 25.8331 23.7493 25.5295 23.4141C25.3465 23.2772 25.1398 23.1731 24.9192 23.1069C25.1075 23.1074 25.2935 23.0674 25.4639 22.9895C25.6342 22.9117 25.7848 22.7981 25.9045 22.6569C26.2012 22.454 26.4043 22.1464 26.4706 21.7998C26.425 22.0689 26.4634 22.345 26.5809 22.5927C26.8823 23.1471 27.0053 23.7767 26.9339 24.3998C26.794 24.9958 26.4709 25.5364 26.0074 25.9498C25.9565 26.0034 25.9172 26.0665 25.892 26.1352C25.8667 26.2039 25.8559 26.2769 25.8604 26.3498H24.853C24.853 26.3498 24.6471 26.3498 24.6471 26.2069C24.6471 26.0641 24.7574 26.0641 24.853 26.0641C25.1005 26.0837 25.3497 26.0595 25.5883 25.9927L25.5809 25.9855ZM20.4927 26.2069C19.7131 25.7956 19.0588 25.192 18.5956 24.4569L18.4854 24.3141C18.5401 24.3411 18.6005 24.3552 18.6618 24.3552C18.7231 24.3552 18.7836 24.3411 18.8383 24.3141L18.8971 24.4212C19.3515 25.0757 19.949 25.6244 20.6471 26.0284L20.5001 26.2069H20.4927ZM21.2353 26.2069C21.7179 26.3502 22.209 26.4647 22.7059 26.5498C22.9953 26.5942 23.2881 26.6133 23.5809 26.6069V26.7498C23.5612 26.7682 23.5457 26.7904 23.5356 26.815C23.5254 26.8397 23.5209 26.8662 23.5221 26.8927C23.2122 26.9004 22.9021 26.8813 22.5956 26.8355C22.0569 26.7699 21.53 26.6329 21.0295 26.4284L21.2501 26.1927L21.2353 26.2069ZM24.8015 26.4784H25.3603C25.5111 26.4749 25.6577 26.5259 25.7721 26.6212C25.7732 26.6852 25.7607 26.7486 25.7354 26.8076C25.7101 26.8666 25.6726 26.9199 25.6251 26.9641C25.5148 27.0212 25.4192 27.0212 25.3677 26.9641C25.1565 26.8634 24.9526 26.7488 24.7574 26.6212C24.7206 26.5855 24.6618 26.4212 24.8162 26.4784H24.8015ZM24.353 26.7284C24.4515 26.6832 24.5605 26.6635 24.6692 26.6712C24.8734 26.7792 25.0614 26.9137 25.228 27.0712C25.2868 27.1784 25.228 27.2141 25.1177 27.2712C25.0593 27.3154 24.9855 27.3359 24.9118 27.3284C24.815 27.3263 24.7228 27.2879 24.6545 27.2212C24.5956 27.1641 24.3971 26.9141 24.3383 26.8784C24.3484 26.8312 24.3484 26.7827 24.3383 26.7355L24.353 26.7284ZM24.2648 26.9998C24.3236 27.0569 24.5221 27.3069 24.5221 27.3069C24.5221 27.3069 24.5221 27.3641 24.4633 27.4141H24.4045C24.2202 27.4141 24.0395 27.3647 23.8824 27.2712C23.7354 27.1641 23.5662 26.9284 23.7354 26.8712C23.777 26.8423 23.8248 26.8226 23.8751 26.8134C23.9255 26.8042 23.9773 26.8058 24.027 26.818C24.0767 26.8302 24.1231 26.8529 24.1628 26.8842C24.2026 26.9157 24.2349 26.9551 24.2574 26.9998H24.2648ZM24.1471 26.3498C24.1952 26.3229 24.2497 26.3087 24.3052 26.3087C24.3607 26.3087 24.4152 26.3229 24.4633 26.3498C24.5221 26.4569 24.4633 26.5498 24.3162 26.5998C24.2337 26.65 24.1405 26.6813 24.0437 26.6912C23.9468 26.7011 23.8489 26.6894 23.7574 26.6569C23.6839 26.5998 23.7942 26.4427 24.1471 26.3498Z" fill="white"/>
<path d="M70.3454 10.4928C70.1984 9.13561 69.5292 8.44989 67.9851 8.44989H66.0366L65.7792 16.107H67.2498C67.2498 16.107 67.3969 12.5356 67.3969 12.407H69.1984C69.1984 12.5499 69.5145 16.107 69.5145 16.107H70.9851C70.9263 16.0499 70.4116 10.7999 70.3528 10.4928H70.3454ZM67.4116 11.107C67.4116 10.9642 67.4704 9.86418 67.4704 9.67847H67.7278C68.7498 9.67847 68.9557 9.87847 69.066 11.107H67.4116ZM52.9998 21.007C52.8528 19.6499 52.1837 18.9642 50.6395 18.9642H48.691L48.4337 26.6213H49.9042C49.9042 26.6213 50.0513 23.0499 50.0513 22.9213H51.8528C51.8528 23.0642 52.1689 26.6213 52.1689 26.6213H53.6395C53.5807 26.5499 53.066 21.2928 53.0072 21.007H52.9998ZM50.066 21.5999C50.066 21.457 50.1248 20.357 50.1248 20.1713H50.3822C51.4042 20.1713 51.6101 20.3713 51.7204 21.5999H50.066ZM42.2939 8.44989V16.0928H43.7645V9.66418H45.5145V16.0928H46.9851V8.44989H42.2939ZM57.5954 11.107H56.816C56.555 11.118 56.2976 11.0479 56.0807 10.907C56.03 10.8534 55.9903 10.7903 55.9653 10.7216C55.9403 10.6528 55.9292 10.5799 55.9337 10.507V8.44989H54.4631V10.6499C54.455 10.8895 54.5057 11.1274 54.6116 11.3438C54.7182 11.5601 54.8763 11.7484 55.0734 11.8928C55.4837 12.2302 56.0064 12.4105 56.5439 12.3999H57.566V16.0999H59.0366V8.44989H57.566V11.107H57.5954ZM60.6175 8.44989V9.69275H61.8087V16.1213H63.2792V9.69275H64.4704V8.44989H60.6175ZM58.4998 18.8856V21.3428H56.4925V18.8928H55.0587V26.5499H56.4925V22.6499H58.4998V26.5499H59.9704V18.8928L58.4998 18.8856ZM44.4116 21.4285H43.7425V20.207H46.3234V18.9642H42.3087V26.6213H44.5145C44.8616 26.626 45.205 26.5609 45.5248 26.4302C45.8447 26.2994 46.1329 26.1059 46.3719 25.8618C46.6109 25.6175 46.7954 25.328 46.9131 25.0113C47.0314 24.6945 47.0807 24.3575 47.0587 24.0213C46.9998 23.157 46.7057 21.457 44.4337 21.457L44.4116 21.4285ZM44.2278 25.3928C44.0807 25.3928 43.7057 25.3356 43.7057 25.3356V22.6499H43.9631C44.6984 22.6499 45.5587 22.5928 45.5587 24.007C45.5587 25.307 44.6322 25.3999 44.2204 25.3999L44.2278 25.3928ZM53.4263 11.9999C53.4366 11.1539 53.2587 10.3157 52.9042 9.54275C52.7425 9.15568 52.4645 8.82475 52.1064 8.59297C51.7484 8.36118 51.327 8.23918 50.8969 8.24275H50.8381C50.4094 8.24668 49.9917 8.37168 49.6351 8.60254C49.2785 8.8334 48.9991 9.16011 48.8307 9.54275C48.48 10.3168 48.302 11.1542 48.3087 11.9999V12.2499C48.2903 12.8737 48.377 13.4963 48.566 14.0928C48.9778 15.6428 49.8454 16.1856 50.8307 16.2356H50.8895C51.8748 16.2356 52.7498 15.6928 53.1542 14.0928C53.3131 13.4901 53.3991 12.8718 53.4116 12.2499V11.9999H53.4263ZM49.7351 12.2499C49.7351 10.207 50.2572 9.50704 50.816 9.50704C51.3748 9.50704 51.8969 10.2213 51.8969 12.2499C51.8969 14.2785 51.3748 14.9428 50.816 14.9428C50.2572 14.9428 49.7939 14.2285 49.7351 12.2499ZM67.0807 26.5356L65.3307 22.0356C65.7462 21.7295 66.0439 21.2969 66.1763 20.807C66.2866 20.2999 66.4337 18.9142 66.4337 18.9142H64.9631C64.9631 19.057 64.9042 19.507 64.8528 20.0142C64.7939 20.7713 64.5366 21.4428 63.8307 21.4428H63.3087V18.9285H61.8381V26.5499H63.3087V22.6499H64.1836L65.6542 26.5499L67.0807 26.5356Z" fill="white"/>
</svg>
