<svg width="244" height="44" viewBox="0 0 244 44" fill="none" xmlns="http://www.w3.org/2000/svg">
<path d="M241.998 24.3055H226.052C226.22 28.2998 229.493 31.5304 233.482 31.5304C235.203 31.5304 236.839 30.8937 238.14 29.8311C238.769 29.321 239.819 29.4061 240.364 30.1287C240.867 30.8505 240.783 31.7855 240.113 32.338C238.308 33.783 236.042 34.6755 233.566 34.6755C227.734 34.6755 223.033 29.9155 223.033 24.0102C223.033 18.1021 227.733 13.3449 233.566 13.3449C238.895 13.3449 243.26 17.1266 243.553 22.4856C243.637 23.6324 242.84 24.3131 242.001 24.3131L241.998 24.3055ZM233.476 16.4398C230.245 16.4398 227.475 18.5647 226.471 21.4978H239.907C239.529 18.1397 236.591 16.4398 233.486 16.4398H233.476ZM215.179 34.0331C214.34 34.0331 213.627 33.3531 213.627 32.4606V4.96429C213.627 4.1143 214.34 3.39181 215.179 3.39181C216.061 3.39181 216.731 4.1143 216.731 4.96429V32.4606C216.731 33.3538 216.06 34.0331 215.179 34.0331ZM204.313 9.849C203.138 9.849 202.174 8.87085 202.174 7.68087C202.174 6.44771 203.138 5.4709 204.313 5.4709C205.489 5.4709 206.496 6.44839 206.496 7.68087C206.496 8.87085 205.489 9.849 204.313 9.849ZM197.934 6.53339H194.787C192.689 6.53339 191.137 8.19153 191.137 10.3165V13.9289H195.878C196.759 13.9289 197.43 14.6514 197.43 15.5007C197.43 16.3939 196.759 17.0732 195.878 17.0732H191.137V32.4539C191.137 33.347 190.465 34.0264 189.584 34.0264C188.745 34.0264 188.032 33.3464 188.032 32.4539V10.3138C188.032 6.40386 190.969 3.38574 194.79 3.38574H197.938C198.777 3.38574 199.49 4.10823 199.49 4.95821C199.49 5.85137 198.777 6.53069 197.938 6.53069L197.934 6.53339ZM171.203 34.6639C165.37 34.6639 160.67 29.9039 160.67 23.9986C160.67 18.0905 165.369 13.3333 171.203 13.3333C177.036 13.3333 181.736 18.0925 181.736 23.9986C181.736 29.9053 177.035 34.6639 171.203 34.6639ZM171.245 16.4769C167.132 16.4769 163.815 19.8336 163.815 23.9986C163.815 28.1635 167.13 31.5203 171.245 31.5203C175.357 31.5203 178.675 28.1635 178.675 23.9986C178.675 19.8336 175.36 16.4769 171.245 16.4769ZM157.103 17.0713C152.697 17.0713 149.973 20.0463 149.973 24.7617V32.452C149.973 33.3452 149.301 34.0245 148.42 34.0245C147.581 34.0245 146.868 33.3445 146.868 32.452V15.4928C146.868 14.6435 147.581 13.921 148.42 13.921C149.302 13.921 149.973 14.6435 149.973 15.4928V18.1277C151.399 15.6196 153.833 13.921 157.103 13.921C157.942 13.921 158.656 14.6435 158.656 15.4928C158.656 16.3859 157.942 17.0652 157.103 17.0652V17.0713ZM130.371 34.6647C127.141 34.6647 124.455 33.1347 122.735 30.7547V35.9882C122.735 36.8814 122.063 37.5614 121.182 37.5614C120.343 37.5614 119.63 36.8807 119.63 35.9882V15.4941C119.63 14.6448 120.343 13.9223 121.182 13.9223C122.064 13.9223 122.735 14.6448 122.735 15.4941V17.2791C124.455 14.8991 127.141 13.3267 130.371 13.3267C136.078 13.3267 140.565 18.0859 140.565 23.9919C140.565 29.8987 136.075 34.6572 130.371 34.6572V34.6647ZM130.413 16.39C126.385 16.39 122.736 19.7049 122.736 23.9994C122.736 28.2493 126.302 31.5615 130.413 31.5615C134.484 31.5615 137.464 28.1184 137.464 23.9994C137.464 19.8344 134.484 16.39 130.413 16.39ZM113.875 17.07H111.273C109.51 17.07 108.251 18.3868 108.251 20.2142V27.9923C108.251 31.5615 105.775 34.0265 102.25 34.0265H99.5233C98.6418 34.0265 97.9713 33.3465 97.9713 32.454C97.9713 31.5622 98.6424 30.8822 99.5233 30.8822H102.125C103.93 30.8822 105.147 29.5641 105.147 27.7373V19.9592C105.147 16.39 107.623 13.925 111.147 13.925H113.875C114.755 13.925 115.427 14.6475 115.427 15.4968C115.427 16.39 114.755 17.07 113.875 17.07ZM92.2228 34.0292C91.3832 34.0292 90.6702 33.3492 90.6702 32.4567V30.7999C88.9071 33.1799 86.0122 34.6667 82.7804 34.6667C77.5352 34.6667 73.6723 30.3324 73.6723 25.02V15.5015C73.6723 14.6097 74.3441 13.9297 75.2243 13.9297C76.1058 13.9297 76.7769 14.6097 76.7769 15.5015V24.73C76.7769 28.8517 79.7564 31.6175 83.4069 31.6175C87.7293 31.6175 90.6642 28.0476 90.6642 24.4804V15.515C90.6642 14.6657 91.3772 13.9432 92.2168 13.9432C93.097 13.9432 93.7688 14.6657 93.7688 15.515V32.4743C93.7688 33.3674 93.097 34.0467 92.2168 34.0467L92.2228 34.0292ZM68.2207 17.07C63.8158 17.07 61.09 20.0449 61.09 24.7603V32.4507C61.09 33.3438 60.4189 34.0231 59.538 34.0231C58.6984 34.0231 57.9854 33.3431 57.9854 32.4507V15.4914C57.9854 14.6421 58.6984 13.9196 59.538 13.9196C60.4195 13.9196 61.09 14.6421 61.09 15.4914V18.1264C62.5161 15.6182 64.951 13.9196 68.2207 13.9196C69.0603 13.9196 69.7733 14.6421 69.7733 15.4914C69.7733 16.3846 69.0603 17.0639 68.2207 17.0639V17.07ZM204.31 13.9257C205.192 13.9257 205.862 14.6482 205.862 15.4975V32.4567C205.862 33.3499 205.191 34.0292 204.31 34.0292C203.471 34.0292 202.758 33.3492 202.758 32.4567V15.4975C202.758 14.6482 203.471 13.9257 204.31 13.9257Z" fill="white"/>
<path d="M25.6069 10.1445C30.879 11.4275 34.7173 15.9709 35.1018 21.3833C35.4862 26.7956 32.3285 31.8359 27.2908 33.8512" stroke="url(#paint0_linear_261_593)" stroke-linecap="round" stroke-linejoin="round"/>
<path d="M18.9775 10.3447C14.0652 11.8715 10.5925 16.2553 10.2304 21.3866C9.86823 26.518 12.6909 31.346 17.34 33.5476" stroke="url(#paint1_linear_261_593)" stroke-linecap="round" stroke-linejoin="round"/>
<path fill-rule="evenodd" clip-rule="evenodd" d="M18.9773 10.3437V9.86635H17.5056V8.85868L22.2986 5.37162L27.0915 8.85868V9.85972H25.6198V10.1448L25.4806 17.8481H27.4694L25.5336 20.0955L27.2904 33.8515L28.4638 43C38.6683 40.0084 45.1362 29.9867 43.6591 19.4556C42.1819 8.92455 33.2065 1.0691 22.5727 1.00045C11.9389 0.93181 2.86286 8.67074 1.24989 19.1819C-0.363075 29.693 5.97488 39.7973 16.14 42.9204L17.3465 33.5598L19.0701 20.0756L17.1344 17.8282H19.1231L18.9773 10.3437Z" stroke="url(#paint2_linear_261_593)" stroke-linecap="round" stroke-linejoin="round"/>
<defs>
<linearGradient id="paint0_linear_261_593" x1="501.927" y1="10.1445" x2="501.927" y2="2380.81" gradientUnits="userSpaceOnUse">
<stop stop-color="#FF73B5"/>
<stop offset="1" stop-color="#89BEFF"/>
</linearGradient>
<linearGradient id="paint1_linear_261_593" x1="449.112" y1="10.3447" x2="449.112" y2="2330.63" gradientUnits="userSpaceOnUse">
<stop stop-color="#FF73B5"/>
<stop offset="1" stop-color="#89BEFF"/>
</linearGradient>
<linearGradient id="paint2_linear_261_593" x1="2144.43" y1="1" x2="2144.43" y2="4201" gradientUnits="userSpaceOnUse">
<stop stop-color="#FF73B5"/>
<stop offset="1" stop-color="#89BEFF"/>
</linearGradient>
</defs>
</svg>
