<svg width="35" height="35" viewBox="0 0 35 35" fill="none" xmlns="http://www.w3.org/2000/svg">
<path d="M30.9325 6.79883C31.7528 7.87363 32.4473 9.04131 33.0017 10.2784L17.2721 22.0297L10.6982 17.8533V12.829L17.2721 17.0053L30.9325 6.79883Z" fill="#21A038"/>
<path d="M3.98936 17.4993C3.98936 17.2739 3.99478 17.0499 4.00563 16.8272L0.0216972 16.6294C0.00813719 16.918 4.8144e-06 17.2093 4.8144e-06 17.5034C-0.00169024 19.801 0.444227 22.0762 1.31219 24.1986C2.18014 26.3211 3.45305 28.249 5.05789 29.8717L7.8838 27.0091C6.64845 25.7622 5.66844 24.2801 5.0001 22.6481C4.33176 21.0161 3.98827 19.2663 3.98936 17.4993Z" fill="url(#paint0_linear_66_3195)"/>
<path d="M17.2685 4.04275C17.4908 4.04275 17.7118 4.051 17.9315 4.06199L18.1308 0.0230673C17.8452 0.0093248 17.5577 0.00245439 17.2685 0.00245439C15.0003 -0.00034875 12.7541 0.450918 10.6586 1.33034C8.56314 2.20977 6.65971 3.50003 5.05762 5.12704L7.88352 7.99098C9.11394 6.73859 10.5765 5.74504 12.1871 5.06746C13.7977 4.38989 15.5245 4.04164 17.2685 4.04275Z" fill="url(#paint1_linear_66_3195)"/>
<path d="M17.2685 30.9575C17.0462 30.9575 16.8251 30.9575 16.6041 30.9397L16.4048 34.9772C16.6913 34.9919 16.9793 34.9993 17.2685 34.9993C19.5357 35.0016 21.7808 34.5501 23.8752 33.6704C25.9696 32.7907 27.8718 31.5003 29.4726 29.8733L26.6521 27.0107C25.4215 28.2625 23.9591 29.2555 22.3488 29.9328C20.7385 30.6101 19.012 30.9584 17.2685 30.9575Z" fill="url(#paint2_linear_66_3195)"/>
<path d="M24.7543 6.39029L28.1117 3.88228C25.043 1.36391 21.2124 -0.00699072 17.2637 2.68081e-05V4.04169C19.9376 4.03833 22.5494 4.85727 24.7543 6.39029Z" fill="url(#paint3_linear_66_3195)"/>
<path d="M34.5363 17.5003C34.5385 16.4489 34.4477 15.3993 34.2651 14.3643L30.5483 17.1402C30.5483 17.2599 30.5483 17.3794 30.5483 17.5003C30.5493 19.3807 30.1603 21.2403 29.4068 22.9585C28.6532 24.6768 27.5517 26.2154 26.1738 27.4746L28.8547 30.4774C30.646 28.8384 32.0775 26.8363 33.0563 24.6008C34.0351 22.3652 34.5393 19.9461 34.5363 17.5003Z" fill="#21A038"/>
<path d="M17.2686 30.9578C15.4131 30.9584 13.5781 30.5641 11.8824 29.8004C10.1868 29.0367 8.66835 27.9206 7.42537 26.5244L4.46387 29.2399C6.08084 31.0557 8.05633 32.5066 10.2622 33.4989C12.4681 34.491 14.8552 35.0023 17.2686 34.9994V30.9578Z" fill="url(#paint4_linear_66_3195)"/>
<path d="M8.36383 7.5252L5.68437 4.52246C3.89251 6.16108 2.46051 8.16311 1.48124 10.3987C0.501985 12.6343 -0.0026698 15.0535 1.06218e-05 17.4995H3.98937C3.98855 15.6192 4.37753 13.7596 5.1311 12.0414C5.88468 10.3232 6.98604 8.78453 8.36383 7.5252Z" fill="url(#paint5_linear_66_3195)"/>
<defs>
<linearGradient id="paint0_linear_66_3195" x1="5.86471" y1="29.3673" x2="1.40135" y2="16.636" gradientUnits="userSpaceOnUse">
<stop offset="0.14" stop-color="#F1E813"/>
<stop offset="0.3" stop-color="#E6E418"/>
<stop offset="0.58" stop-color="#C9DA26"/>
<stop offset="0.89" stop-color="#A2CC39"/>
</linearGradient>
<linearGradient id="paint1_linear_66_3195" x1="6.19665" y1="5.84165" x2="17.4606" y2="1.6061" gradientUnits="userSpaceOnUse">
<stop offset="0.06" stop-color="#0FA7DF"/>
<stop offset="0.54" stop-color="#0098F8"/>
<stop offset="0.92" stop-color="#0290EA"/>
</linearGradient>
<linearGradient id="paint2_linear_66_3195" x1="16.1418" y1="32.5599" x2="28.8529" y2="29.7265" gradientUnits="userSpaceOnUse">
<stop offset="0.12" stop-color="#A2CC39"/>
<stop offset="0.28" stop-color="#86C239"/>
<stop offset="0.87" stop-color="#219F38"/>
</linearGradient>
<linearGradient id="paint3_linear_66_3195" x1="16.4339" y1="1.35366" x2="27.3122" y2="4.66611" gradientUnits="userSpaceOnUse">
<stop offset="0.06" stop-color="#0290EA"/>
<stop offset="0.79" stop-color="#0C89CA"/>
</linearGradient>
<linearGradient id="paint4_linear_66_3195" x1="5.46459" y1="28.7479" x2="17.3164" y2="33.1186" gradientUnits="userSpaceOnUse">
<stop offset="0.13" stop-color="#F1E813"/>
<stop offset="0.3" stop-color="#EAE616"/>
<stop offset="0.53" stop-color="#D8DF1F"/>
<stop offset="0.8" stop-color="#BAD52D"/>
<stop offset="0.98" stop-color="#A2CC39"/>
</linearGradient>
<linearGradient id="paint5_linear_66_3195" x1="1.48619" y1="17.9887" x2="6.33969" y2="5.53065" gradientUnits="userSpaceOnUse">
<stop offset="0.07" stop-color="#A2CC39"/>
<stop offset="0.26" stop-color="#81C45E"/>
<stop offset="0.92" stop-color="#0FA7DF"/>
</linearGradient>
</defs>
</svg>
