<svg width="40" height="35" viewBox="0 0 40 35" fill="none" xmlns="http://www.w3.org/2000/svg">
<path d="M25.9359 21.4393H14.084V25.8708C14.084 27.6927 15.4025 28.8252 17.3531 28.8252C18.9828 28.8252 19.4124 28.8892 20.0149 29.4899C20.3951 29.0812 20.9334 28.8498 21.4964 28.8596V28.7907L21.8717 27.6385L21.2346 26.9442C20.9778 27.023 20.7112 27.0526 20.4445 27.0378C20.0445 27.0328 19.6494 26.9934 19.2593 26.9147H19.1359C19.0815 26.9147 19.0815 26.9147 19.0667 26.9442L18.9927 27.0673L18.8593 27.2889L18.6025 27.2298L17.4618 26.9639L17.3038 27.22V27.2495L17.442 27.4021L17.3828 27.5991C17.2791 27.8404 17.1309 28.057 16.9433 28.2442L16.6569 28.5494L16.3951 28.2244L16.2025 27.9831C15.9951 27.7123 15.9457 27.3579 16.0643 27.0378L15.7433 27.1707L15.6001 26.8556L15.5211 26.634C15.3186 26.1662 15.4717 25.6246 15.8815 25.3292L16.8001 24.8368L17.6741 25.0091C17.6741 24.9255 17.7285 24.625 17.7532 24.5512H17.7038L17.2099 24.7383L16.7161 24.4035C16.6173 24.305 16.6124 24.1425 16.7161 24.0391L17.1852 23.3301L15.9951 21.8529L17.7778 22.5521L17.9013 22.4044L18.1482 22.109L18.4297 22.3748C18.5038 22.4487 18.5531 22.5373 18.5778 22.6407C19.0717 22.8376 19.9852 23.4138 20.0593 24.3493L19.7778 24.4626C19.8124 24.5118 19.8569 24.5512 19.9112 24.5758L21.2149 24.7038L21.3334 24.6694C21.5556 24.5857 21.7927 24.5414 22.0297 24.5364C22.2667 24.5364 22.4988 24.5906 22.7112 24.694C22.805 24.6595 22.9087 24.6398 23.0075 24.6349H23.0717C23.768 24.6349 24.1186 25.1569 24.3951 25.5705L24.5383 25.7773C24.7803 26.122 25.1013 26.6242 25.1161 26.6438L25.2593 26.8654L25.0815 27.0722C24.9186 27.2889 24.6618 27.412 24.3902 27.412C24.3112 27.4169 24.2322 27.4169 24.1531 27.412C24.084 27.3973 24.0149 27.3775 23.9457 27.348C23.9457 27.4169 23.9457 27.5007 23.9062 27.5696L23.7038 28.7316C25.047 28.4608 25.9951 27.2594 25.9408 25.8905L25.9359 21.4393ZM14.0692 21.0799H23.2988C22.9235 20.686 22.7951 20.1198 22.963 19.6027C22.8396 19.5437 22.721 19.4649 22.6173 19.3762C22.2568 19.6421 21.1359 20.4397 20.8692 20.6416L20.8099 20.681L17.1852 20.0409H17.1112C16.9926 20.0459 16.8741 20.0459 16.7556 20.0409C16.721 20.2034 16.5778 20.3167 16.4149 20.3167H16.3556C16.163 20.2822 16.0297 20.1 16.0593 19.908V19.8292C15.5902 19.4944 15.368 18.9134 15.4914 18.352V18.288L15.5457 18.2486C15.5457 18.2486 15.6149 18.1994 15.7087 18.1452L15.447 18.1058C15.3482 18.0861 15.284 17.9976 15.2988 17.899C15.3136 17.8005 15.4025 17.7365 15.5013 17.7513H15.5062L16.1334 17.8498L16.1926 15.6488L17.126 14.664L17.7087 15.8851L17.0964 18.0024L17.6494 18.0911C17.7482 18.1107 17.8124 18.1994 17.7976 18.2979C17.7828 18.3865 17.7087 18.4456 17.6198 18.4456H17.5902L17.1408 18.3718V18.4062C17.1902 18.4948 17.2643 18.5638 17.3581 18.6081L20.1186 18.6523L20.8247 17.9582C20.2865 17.771 19.9013 17.2983 19.8371 16.732C19.4914 16.5991 19.2099 16.3431 19.0519 16.0131C18.9186 15.7029 18.8939 15.3534 18.9877 15.0284C18.5531 14.856 18.1581 14.5951 17.8371 14.2603H13.7383C13.9359 14.7428 14.0494 15.2549 14.0692 15.7719V21.0799Z" fill="#FCE527"/>
<path d="M17.8572 23.374C17.7979 23.374 17.7436 23.4183 17.7386 23.4774V23.4823C17.7337 23.5463 17.7831 23.6054 17.8473 23.6103H17.8522C17.9213 23.6103 17.9707 23.5562 17.9707 23.4922C17.9707 23.4232 17.9213 23.374 17.8572 23.374Z" fill="#222220"/>
<path d="M17.8521 23.3692C17.857 23.3692 17.857 23.3741 17.857 23.3741C17.862 23.3741 17.862 23.3692 17.8669 23.3692H17.8521ZM25.9211 31.4444L25.2397 31.1834L25.4273 30.4793L25.6347 29.7111C24.7014 30.1888 23.7236 30.5728 22.7162 30.8585C22.2224 30.9963 21.8668 31.0603 21.8668 31.0603V31.5576C21.2594 31.6562 20.6471 31.7103 20.0298 31.7152H19.9755C19.3582 31.7103 18.7458 31.6562 18.1384 31.5576V31.0653C18.1384 31.0653 17.7779 30.9963 17.2841 30.8585C16.2767 30.5728 15.2989 30.1888 14.3656 29.7111L14.5681 30.4793L14.7606 31.1834L14.0742 31.4444L13.3335 31.7251C14.3508 32.2519 15.4125 32.6901 16.5088 33.0348L16.2471 33.7439C17.4372 34.1969 18.7113 34.4184 19.9853 34.3889H20.015C21.289 34.4184 22.5631 34.1969 23.7532 33.7439L23.4964 33.0348C24.5878 32.6901 25.6495 32.2519 26.6668 31.7251L25.9211 31.4444ZM14.1582 31.7693L15.2643 31.4001L14.9335 30.3169C15.6594 30.6762 16.41 30.9766 17.1853 31.213L16.6421 32.6901C15.7878 32.4636 14.9532 32.1534 14.1582 31.7693ZM20.0298 34.0393L20.0051 34.0196C18.9187 34.0147 17.8372 33.8669 16.7903 33.5813L17.4569 31.7792C18.2866 31.986 19.1409 32.0993 20.0001 32.1042H20.0545C20.9137 32.0944 21.768 31.986 22.5977 31.7792L23.2643 33.5813C22.2125 33.8768 21.1211 34.0294 20.0298 34.0393ZM23.3977 32.7197V32.7049L22.8545 31.2277C23.6298 30.9914 24.3804 30.6911 25.1063 30.3316L24.7755 31.4149L25.8964 31.7891C25.0964 32.178 24.2569 32.4932 23.3977 32.7197ZM20.0002 3.33869C21.1162 3.30914 22.2125 3.64397 23.1211 4.28901C23.2644 3.56026 23.536 2.86107 23.9261 2.22588L22.8051 2.35391L22.2224 1.10815L21.0915 1.68918L20.0002 0.61084L18.9088 1.68918L17.7779 1.10815L17.1952 2.35391L16.0742 2.22588C16.4644 2.86107 16.736 3.56026 16.8792 4.28901C17.7878 3.64397 18.8841 3.30914 20.0002 3.33869ZM17.1458 2.7872L17.457 2.82167L17.5903 2.54101L17.9804 1.70394L18.7063 2.07816L18.9878 2.22096L19.215 2.01415L20.0002 1.2214L20.7853 2.01415L21.0125 2.23573L21.294 2.09294L22.015 1.71872L22.41 2.55578L22.5434 2.83645L22.8545 2.80198L23.1508 2.76751C23.0323 3.03833 22.9286 3.31899 22.8446 3.60458C21.0619 2.69366 18.9434 2.69366 17.1607 3.60458C17.0767 3.31899 16.973 3.03833 16.8545 2.76751L17.1458 2.7872ZM34.6472 13.5016L34.5138 13.3392C33.5953 12.1722 32.7212 11.0643 31.1608 10.5571C31.225 10.5029 31.2892 10.4537 31.3583 10.4094C32.099 9.99082 32.6225 9.27202 32.7904 8.43985C32.8743 7.68644 32.662 6.93312 32.1978 6.3324L31.704 5.71691L31.3929 6.45058C31.3929 6.49489 30.8447 7.67168 29.7385 7.67168H29.4126C29.4719 6.89865 29.1904 6.13544 28.6422 5.58396C27.9756 4.90446 27.0571 4.52532 26.104 4.53024C25.9262 4.53024 25.7484 4.54502 25.5756 4.56964L24.82 4.71736L25.2892 5.33284C25.6546 5.82524 25.9854 6.67707 25.5953 7.135C25.4077 7.29749 25.1953 7.42551 24.9632 7.51413C24.4694 7.74557 23.7583 8.07551 23.7583 8.9027C23.7583 9.43943 24.178 10.0007 24.9336 10.4783C27.1608 11.8866 28.5385 13.3392 29.1361 14.9739C30.0595 17.4653 28.8546 18.8835 27.6842 19.6319L27.1608 19.9667L27.62 20.3852C28.0299 20.7349 28.5336 20.9515 29.0719 21.0057H29.5212C29.9805 21.0057 30.4348 20.9417 30.8743 20.8087C30.7657 21.0007 30.6324 21.1829 30.4892 21.3503C29.8225 22.1234 28.8348 22.5468 27.8126 22.4927H27.3731L27.3385 22.9309C27.3336 23.5464 27.6052 24.1274 28.0743 24.5262C28.1978 24.6346 28.3361 24.7233 28.4842 24.7922C27.7533 25.5012 27.3385 26.4712 27.3237 27.4905C27.3237 28.0469 27.1953 28.5984 26.9533 29.1006L26.4595 29.8392H27.3385C28.7904 29.8392 29.9015 29.4403 30.6719 28.6476C31.0719 28.2291 31.3682 27.7219 31.541 27.1704C31.8274 27.4116 32.1632 27.5791 32.5287 27.6628C32.7015 27.7022 32.8793 27.7219 33.0571 27.7219C33.3237 27.7219 33.5904 27.6874 33.8472 27.6283L34.4101 27.4806L34.1632 26.9587C33.8521 26.1266 33.8521 25.2058 34.1632 24.3736C34.3459 23.832 34.4743 23.2707 34.5435 22.6995C34.9879 22.926 35.4817 23.0393 35.9805 23.0343C36.8003 23.0442 37.5657 22.6404 38.0101 21.9559L38.2817 21.4636L37.7879 21.2568C36.1336 20.5724 35.7682 18.7308 35.6941 17.7361C35.8571 17.7706 36.02 17.7904 36.1879 17.7953L36.3262 17.8888C38.1237 17.8888 38.7262 16.062 38.7509 15.9833L38.9533 15.3382H38.2768C36.8546 15.289 35.5262 14.6193 34.6472 13.5016ZM36.3311 17.3915H36.262C35.9015 17.3964 35.5459 17.2979 35.2398 17.1109C35.2398 17.1109 34.978 20.6709 37.6398 21.7738V21.7885C37.2892 22.3204 36.6867 22.6355 36.0496 22.6256C35.3287 22.67 34.6324 22.3646 34.178 21.8083C34.1929 22.6453 34.0546 23.4824 33.7731 24.2702C33.4126 25.2205 33.4126 26.2743 33.7731 27.2246C33.5509 27.2787 33.3287 27.3082 33.1015 27.3082C32.9632 27.3082 32.82 27.2935 32.6867 27.2591C32.0299 27.1014 31.5064 26.6189 31.2941 25.9837C31.2941 25.9837 31.3978 29.4009 27.4027 29.4009H27.3731C27.6743 28.8298 27.8324 28.1946 27.8274 27.5495C28.0003 25.0236 29.7188 24.6641 29.7188 24.6641C29.2447 24.605 28.7953 24.4376 28.4003 24.1718C28.0398 23.8714 27.8324 23.4282 27.8225 22.9605C28.978 23.0097 30.0941 22.5321 30.8496 21.6556C31.304 21.1386 31.6052 20.5084 31.7336 19.8337C31.0966 20.3114 30.3114 20.5526 29.5163 20.5182H29.1114C28.6817 20.4739 28.2719 20.3064 27.941 20.0258C29.462 19.041 30.5287 17.357 29.5854 14.8015C28.825 12.7532 27.0027 11.2218 25.1706 10.0697C24.5632 9.69538 24.1978 9.27202 24.1978 8.90758C24.1978 8.05088 25.4175 8.02625 25.9213 7.43043C26.499 6.76078 26.1385 5.67752 25.6348 5.02756C25.778 5.00295 25.9262 4.99309 26.0694 4.99309C26.8941 4.98324 27.6892 5.31315 28.262 5.90402C28.8447 6.4555 29.0669 7.28763 28.8447 8.05577L29.1114 8.10991C29.2743 8.13952 29.4373 8.15428 29.6052 8.15916H29.7138C31.1608 8.15916 31.8126 6.64753 31.8126 6.64753C31.8126 6.64753 33.3533 8.53836 31.0867 10.0155C30.6966 10.2666 30.5237 10.5079 30.5929 10.7541L30.6274 10.9165L30.7904 10.9461C32.4348 11.3892 33.2595 12.5217 34.2817 13.8069C35.2496 15.0329 36.7114 15.7716 38.2768 15.8257H38.3064C38.3064 15.8257 37.8126 17.3915 36.3311 17.3915Z" fill="#222220"/>
<path d="M33.1603 10.779C33.7134 11.0941 34.1924 11.5226 34.5678 12.0346C34.8492 12.4679 35.2492 12.8126 35.7233 13.0194C35.9011 13.0785 36.0937 13.108 36.2813 13.108C37.0369 13.108 37.7282 12.6797 38.0739 12.0099L38.3603 11.3699L37.664 11.3305C36.9134 11.1926 36.2369 10.8085 35.7381 10.2324C35.3678 9.83359 34.8492 9.60216 34.3011 9.59728C33.8764 9.60216 33.4665 9.73019 33.111 9.95673L32.469 10.4048L33.1603 10.779ZM34.3159 10.0749L34.3011 10.0798C34.7208 10.0798 35.1159 10.262 35.3974 10.5722C35.9752 11.232 36.7653 11.6702 37.6344 11.813C37.3678 12.3104 36.8492 12.6206 36.2813 12.6255C36.1431 12.6255 36.0048 12.6008 35.8715 12.5566C35.0715 12.2857 34.79 11.0794 33.4023 10.3507C33.6739 10.1734 33.99 10.0798 34.3159 10.0749ZM33.4863 17.1259L33.4765 17.1161C33.0715 13.8662 30.7061 11.5176 28.074 10.0945C27.832 9.96162 27.6049 9.85333 27.3876 9.74983C28.474 9.97149 29.6049 9.70556 30.4789 9.02604C30.4789 9.02604 28.953 10.1438 25.832 9.12944C26.6962 9.69081 28.3752 10.4786 29.911 11.7589C33.7431 15.117 31.0024 18.3963 31.0024 18.3963C32.1481 17.313 32.5481 15.6586 32.0345 14.1715C32.8444 15.5158 33.2345 17.0718 33.1505 18.6375C33.0419 21.2177 31.6049 23.4728 30.1234 25.2701C29.6789 25.8363 29.3728 26.501 29.2444 27.2101C29.4962 26.506 29.8765 25.856 30.3703 25.2947C31.9752 23.4187 33.3333 21.4738 33.5258 18.672C33.6938 19.1644 34.3752 20.5973 35.4617 21.1339C35.4617 21.1339 34.0987 20.3166 33.4863 17.1259ZM13.0419 29.1354C12.8049 28.6332 12.6765 28.0817 12.6715 27.5253C12.6567 26.5061 12.237 25.536 11.5061 24.827C11.6542 24.7581 11.7925 24.6694 11.916 24.5612C12.3851 24.1623 12.6567 23.5812 12.6518 22.9658L12.6221 22.5275H12.1777C11.1604 22.5767 10.1728 22.1583 9.50613 21.3852C9.36292 21.2178 9.23452 21.0356 9.12094 20.8436C9.56046 20.9765 10.0147 21.0405 10.474 21.0405H10.9234C11.4617 20.9864 11.9703 20.7697 12.3802 20.4201L12.8394 20.0015L12.316 19.6667C11.1407 18.9183 9.94069 17.5002 10.8641 15.0087C11.4617 13.3887 12.8394 11.9263 15.0863 10.5181C15.8419 10.0257 16.2567 9.47912 16.2567 8.94249C16.2567 8.1152 15.5604 7.78536 15.0518 7.55394C14.8197 7.46527 14.6073 7.33725 14.4197 7.17475C14.0246 6.71684 14.3555 5.8453 14.7258 5.37261L15.2197 4.75711L14.4592 4.6094C14.2863 4.57986 14.1086 4.57001 13.9308 4.57001C12.9678 4.54046 12.0394 4.90976 11.3579 5.58433C10.7999 6.13088 10.5086 6.89902 10.5629 7.67698H10.2666C9.15551 7.67698 8.63205 6.5051 8.6123 6.45587L8.3012 5.7222L7.80736 6.33769C7.3481 6.93841 7.13577 7.69173 7.21972 8.44514C7.38762 9.27731 7.90614 9.99612 8.64688 10.4147C8.71601 10.459 8.78515 10.5082 8.84441 10.5624C7.28391 11.0548 6.40984 12.1775 5.49132 13.3445L5.35799 13.5119C4.47898 14.6296 3.14564 15.2993 1.72342 15.3484H1.04688L1.25428 15.9935C1.25428 16.0723 1.87651 17.8991 3.67897 17.8991H3.76786C3.93577 17.8941 4.09873 17.8744 4.26169 17.8399C4.18762 18.8248 3.82218 20.6762 2.16293 21.3606L1.6691 21.5674L1.9407 22.0597C2.38515 22.7442 3.15057 23.148 3.97032 23.1381C4.46909 23.143 4.95799 23.0297 5.40243 22.8033C5.47157 23.3744 5.59996 23.9358 5.78268 24.4774C6.09379 25.3096 6.09379 26.2303 5.78268 27.0625L5.53577 27.5844L6.09873 27.7321C6.35552 27.7912 6.62218 27.8256 6.88884 27.8256C7.06663 27.8256 7.24441 27.806 7.41725 27.7666C7.78268 27.6828 8.11847 27.5154 8.40489 27.2741C8.57773 27.8256 8.87404 28.3329 9.27404 28.7513C10.0493 29.5441 11.1604 29.938 12.6073 29.943H13.4863L13.0419 29.1354ZM12.6172 29.4111C8.62218 29.4111 8.72095 25.994 8.72095 25.994C8.5086 26.6291 7.98515 27.1117 7.32836 27.2693C7.19502 27.3038 7.05181 27.3185 6.91354 27.3185C6.68638 27.3185 6.46416 27.289 6.24688 27.2348C6.60737 26.2844 6.60737 25.2308 6.24688 24.2805C5.96539 23.4926 5.83206 22.6555 5.84688 21.8184C5.39256 22.3749 4.69625 22.6801 3.97527 22.6359H3.95057C3.30859 22.6457 2.70614 22.3257 2.35552 21.7938C5.01725 20.6909 4.75552 17.1309 4.75552 17.1309C4.44935 17.3181 4.09379 17.4165 3.73329 17.4116H3.67897C2.19749 17.4116 1.70367 15.8458 1.70367 15.8458H1.7333C3.29873 15.7965 4.76538 15.058 5.73329 13.8319C6.75058 12.5468 7.58021 11.4143 9.22465 10.9711L9.38762 10.9416L9.42218 10.779C9.46663 10.528 9.29379 10.2867 8.92836 10.0405C6.66168 8.56329 8.20243 6.67252 8.20243 6.67252C8.20243 6.67252 8.84441 8.1842 10.3012 8.1842H10.3703C10.5382 8.17921 10.7012 8.16446 10.8641 8.13494L11.1308 8.0808C10.9036 7.31263 11.1308 6.48049 11.7135 5.929C12.2863 5.33814 13.0814 5.00824 13.9061 5.01808C14.0493 5.01808 14.1975 5.02793 14.3407 5.05255C13.8468 5.70743 13.4814 6.79069 14.0592 7.45542C14.553 8.03154 15.7777 8.05617 15.7777 8.93262C15.7777 9.29695 15.437 9.72042 14.8296 10.0995C12.9925 11.2518 11.1703 12.7831 10.4147 14.8314C9.47157 17.387 10.5382 19.0857 12.0592 20.0557C11.7283 20.3315 11.3184 20.5038 10.8888 20.5482H10.4789C9.68391 20.5826 8.89873 20.3414 8.26169 19.8636C8.39009 20.5383 8.69132 21.1685 9.1407 21.6855C9.89626 22.5571 11.0172 23.0396 12.1728 22.9903C12.1629 23.4582 11.9555 23.9013 11.595 24.2017C11.1999 24.4675 10.7505 24.6349 10.2765 24.6941C10.2765 24.6941 11.9999 25.0436 12.1876 27.5795C12.1826 28.2245 12.3407 28.8597 12.6419 29.4309L12.6172 29.4111Z" fill="#222220"/>
<path d="M3.71367 13.1031H3.7186C3.90626 13.1031 4.09885 13.0736 4.27663 13.0146C4.7507 12.8077 5.1507 12.4631 5.43218 12.0298C5.80255 11.5177 6.28157 11.0893 6.83465 10.7741L7.52601 10.4049L6.88404 9.95682C6.52848 9.73028 6.1186 9.60225 5.69885 9.59737C5.1507 9.60225 4.63218 9.83368 4.26181 10.2375C3.76799 10.8086 3.0865 11.1976 2.34083 11.3355L1.64453 11.37L1.92601 12.01C2.27169 12.6798 2.95811 13.0983 3.71367 13.1031ZM4.60255 10.5723C4.8791 10.2621 5.27416 10.0799 5.69391 10.0799C6.0149 10.0848 6.33095 10.1834 6.60255 10.3557C5.20502 11.0992 4.91367 12.2907 4.13342 12.5615C4.00502 12.6059 3.86675 12.6305 3.72848 12.6305C3.15564 12.6305 2.63218 12.3153 2.36552 11.8131C3.23465 11.6703 4.02478 11.2321 4.60255 10.5723ZM6.85939 18.6574C6.77544 17.0915 7.16062 15.5356 7.97544 14.1914C7.46186 15.6783 7.86186 17.3328 9.00754 18.4161C9.00754 18.4161 6.26186 15.1367 10.0989 11.7786C11.6347 10.4984 13.3088 9.71064 14.173 9.14927C11.052 10.1636 9.52606 9.04588 9.52606 9.04588C10.4001 9.72539 11.5261 9.99122 12.6125 9.76966C12.3952 9.87306 12.168 9.98633 11.9261 10.1144C9.29396 11.5423 6.91371 13.891 6.52359 17.1408V17.1161C5.91124 20.3068 4.54828 21.1243 4.54828 21.1243C5.62976 20.5924 6.31618 19.1547 6.47914 18.6622C6.66186 21.469 8.0347 23.4139 9.63964 25.2849C10.1285 25.8463 10.5137 26.4962 10.7656 27.2003C10.6322 26.4962 10.3261 25.8315 9.87667 25.2702C8.39519 23.4729 6.96309 21.2178 6.85939 18.6574ZM19.0964 12.7289C19.2692 12.5615 19.5112 12.4828 19.7532 12.5123V13.4429C19.7483 13.6743 19.689 13.8959 19.5754 14.0977H20.5087C20.3952 13.8959 20.3359 13.6743 20.331 13.4429V12.5123C20.568 12.4828 20.81 12.5615 20.9828 12.7289V12.0839H19.0964V12.7289ZM18.7063 8.26296H18.6964C18.8396 8.3861 19.0075 8.48451 19.1903 8.54364L19.3088 8.59778V7.98726L18.2125 7.5293C18.2668 7.83461 18.4446 8.10043 18.7063 8.26296ZM21.3088 8.25807L21.3038 8.26296C21.5656 8.10043 21.7433 7.83461 21.7977 7.5293L20.7014 7.98726V8.5929L20.8149 8.53865C20.9977 8.47963 21.1656 8.38111 21.3088 8.25807Z" fill="#222220"/>
<path d="M23.274 5.79096C23.274 4.87019 21.7184 4.04297 20.0048 4.04297C18.2912 4.04297 16.7357 4.87019 16.7357 5.79096L16.7702 6.01746L17.4567 9.95657L16.7702 10.3554L14.9777 11.3697C14.9777 11.3697 14.5777 11.5765 14.39 11.6997C13.7135 12.1921 13.5702 12.8518 13.9604 13.1375C14.0591 12.4677 14.6468 11.9754 15.3283 11.9951C15.8962 12.0099 16.4246 12.2955 16.7456 12.7632C16.8443 12.8814 16.9332 13.0095 17.0122 13.1375C17.1159 13.3049 17.2196 13.4526 17.3233 13.5954H12.7505C13.1357 14.2551 13.3579 14.9987 13.4073 15.7618V25.8904C13.4073 28.3523 15.2986 29.5095 17.3579 29.5095C18.9382 29.5095 19.1505 29.4356 20.0196 30.3023C20.8888 29.4356 21.1011 29.5095 22.6814 29.5095C24.7258 29.5095 26.632 28.3425 26.632 25.8904V15.7717C26.6814 15.0085 26.9036 14.265 27.2888 13.6052H22.6665C22.7702 13.4624 22.874 13.3147 22.9777 13.1473C23.0616 13.0192 23.1505 12.8912 23.2443 12.7731C23.5702 12.3053 24.0986 12.0198 24.6665 12.0049C25.348 11.9853 25.9357 12.4776 26.0344 13.1473C26.4295 12.8666 26.2863 12.1625 25.6048 11.7096C25.4221 11.5815 25.0221 11.3796 25.0221 11.3796L23.2443 10.3358L22.5579 9.93693L23.2443 5.99777L23.274 5.79096ZM17.3974 6.24396L19.8073 7.0564V10.8281L18.0344 9.89256L17.3974 6.24396ZM13.7381 14.2601H17.8912C18.2122 14.5949 18.6073 14.8608 19.0419 15.0282C18.948 15.3532 18.9727 15.7028 19.1061 16.013C19.2641 16.343 19.5456 16.599 19.8912 16.7319C19.9554 17.2982 20.3406 17.7709 20.8789 17.9579C20.5826 18.2584 20.2912 18.5389 20.1727 18.6522L17.4122 18.6079C17.3184 18.5636 17.2443 18.4947 17.1949 18.406V18.3715L17.6443 18.4454H17.674C17.7628 18.4454 17.8369 18.3863 17.8517 18.2978C17.8665 18.1992 17.8023 18.1106 17.7036 18.091L17.1505 18.0023L17.7628 15.885L17.1801 14.6638L16.2468 15.6487L16.1875 17.8497L15.5604 17.7511C15.4616 17.7315 15.3727 17.7955 15.353 17.8939V17.8989C15.3381 17.9973 15.4023 18.086 15.5011 18.1057L15.7628 18.1451C15.669 18.1992 15.6048 18.2386 15.5999 18.2485L15.5456 18.2879V18.3519C15.4221 18.9132 15.6493 19.4943 16.1135 19.8291V19.9079C16.0838 20.0999 16.2172 20.2821 16.4098 20.3165H16.469C16.632 20.3165 16.7752 20.2033 16.8098 20.0408C16.9283 20.0457 17.0419 20.0457 17.1604 20.0408H17.2344L20.8542 20.6957L20.9135 20.6563C21.1999 20.4544 22.3011 19.6714 22.6616 19.3909C22.7653 19.4794 22.8838 19.5583 23.0073 19.6173C22.8394 20.1343 22.9678 20.7005 23.3431 21.0945H14.069V15.7717C14.0493 15.2547 13.9357 14.7426 13.7381 14.2601ZM22.3505 19.1298C21.9752 19.4056 21.0517 20.0753 20.7159 20.3116L17.432 19.7404V19.6518C17.4863 19.4303 17.5159 19.2037 17.5209 18.9772L20.2863 19.0215L20.3406 18.9674C20.3851 18.923 21.2591 18.0811 21.7036 17.5936C21.8221 17.7413 21.9604 17.8644 22.1184 17.9629C22.0394 18.3667 22.1233 18.7851 22.3505 19.1298ZM16.8641 18.5389V18.5537C16.9382 18.6916 17.0468 18.8098 17.1801 18.8886C17.1752 19.0904 17.1554 19.2875 17.1209 19.4844C17.1209 19.5287 17.1209 19.573 17.0863 19.6173V19.6863C16.8591 19.6863 16.6369 19.6518 16.4196 19.5828C16.0246 19.3711 15.8023 18.9378 15.8665 18.4947C16.0443 18.3715 16.2468 18.2928 16.4591 18.2633C16.6419 18.2584 16.8048 18.3667 16.8641 18.5389ZM16.5233 17.8841L16.5777 15.8013L17.0715 15.3089L17.3727 15.9342L16.7851 17.9629L16.5233 17.8841ZM22.3258 28.8546H21.8517L22.2221 27.6482C22.2814 27.4808 21.9752 27.2641 21.8468 27.0722C22.148 27.2543 22.4591 27.4168 22.7801 27.5645C22.7801 27.6039 22.3258 28.8546 22.3258 28.8546ZM23.5949 27.5054L23.5554 27.471L23.2986 28.8004C23.1357 28.8004 22.9628 28.8349 22.8048 28.8447L23.0764 27.5645C23.1554 27.1853 22.1332 27.0722 21.6295 26.3188C21.2986 26.5945 20.874 26.7225 20.4493 26.6782C20.074 26.6733 19.7036 26.6338 19.3381 26.5601C19.274 26.5551 19.2098 26.5551 19.1456 26.5601C18.9925 26.5502 18.8443 26.629 18.7653 26.7619L18.6912 26.885L17.2838 26.5453L16.948 27.1263C16.8937 27.2051 16.9036 27.3134 16.9727 27.3824L17.0665 27.4858C16.9727 27.6679 16.8542 27.8353 16.711 27.9781L16.5036 27.7221C16.3456 27.466 16.3604 27.1362 16.5382 26.8949L17.0912 25.9642L18.2715 26.1415L18.0888 25.723C17.8419 25.1715 18.2172 24.4674 18.2567 24.0636C18.2567 24.1867 18.1283 24.2113 17.9999 24.2113H17.6591C17.6344 24.2064 17.6048 24.2064 17.5801 24.2113L17.2591 24.4034L17.0073 24.1719C16.9678 24.098 16.9826 24.0095 17.0419 23.9553L17.6246 23.3004L16.9332 22.4978L17.9209 22.9902L18.2172 22.6357C18.2962 22.7145 18.2616 22.9213 18.2616 22.9213C18.9777 23.0986 19.4764 23.7485 19.4567 24.4871V24.6299C19.5554 24.7874 19.7135 24.8957 19.8912 24.9401L21.2295 25.073C21.4962 24.9893 21.7678 24.9351 22.0443 24.9007C22.2814 24.9007 22.5184 24.9746 22.7159 25.1025C22.8098 25.0386 22.9233 24.9991 23.0369 24.9942H23.0814C23.6789 24.9942 23.9307 25.5359 24.2517 25.9791C24.4937 26.3188 24.8196 26.8309 24.8196 26.8309C24.7258 26.9688 24.5727 27.0524 24.4048 27.0524C24.3456 27.0573 24.2912 27.0573 24.232 27.0524C23.59 26.9343 23.4962 25.6146 23.1307 25.5112H23.0715C23.0023 25.5112 22.9382 25.5506 22.9036 25.6146C23.0715 26.0627 22.9727 26.2449 23.1554 26.5995C23.2888 26.8111 23.4567 27.0032 23.6493 27.1657C23.6493 27.1657 23.6246 27.3626 23.5949 27.5054ZM16.3999 26.2154H16.39L16.4493 26.368C16.4098 26.5009 15.9554 26.693 15.9554 26.693L15.8567 26.4763C15.7283 26.1661 15.8221 25.8116 16.0937 25.6097L16.8394 25.1568L17.6344 25.3242C17.6295 25.4817 17.6789 25.6344 17.7727 25.7624L16.9381 25.6049L16.4443 25.9494C16.3653 26.0184 16.3505 26.1267 16.3999 26.2154ZM25.9505 25.8953C26.0048 27.2642 25.0517 28.4656 23.7036 28.7315L23.9307 27.5399C23.9307 27.471 23.9554 27.3873 23.9653 27.3184C24.0344 27.3479 24.1036 27.3676 24.1727 27.3824C24.2517 27.3873 24.3307 27.3873 24.4098 27.3824C24.6814 27.3824 24.9382 27.2592 25.1011 27.0426L25.2789 26.8358L25.1307 26.6339C25.1307 26.6339 24.7999 26.112 24.553 25.7673L24.4147 25.5605C24.1381 25.1469 23.7875 24.6249 23.0912 24.6249H23.027C22.9283 24.6299 22.8246 24.6495 22.7307 24.684C22.5184 24.5806 22.2863 24.5265 22.0493 24.5265C21.8122 24.5314 21.5752 24.5758 21.353 24.6594L21.2344 24.6939L19.9307 24.5659C19.8764 24.5413 19.832 24.5019 19.7974 24.4526L20.0789 24.3393C19.9999 23.3989 19.0912 22.8228 18.5974 22.6307C18.5727 22.5273 18.5233 22.4387 18.4493 22.3649L18.1678 22.099L17.9209 22.3944L17.7974 22.5421L15.9702 21.7937L17.1604 23.2709L16.6912 23.9799C16.5925 24.0784 16.5875 24.2409 16.6912 24.3443L17.1851 24.6791L17.6789 24.492H17.7283C17.7283 24.5659 17.674 24.8662 17.6493 24.95L16.79 24.8022L15.8715 25.2946C15.4468 25.5999 15.2986 26.1612 15.5209 26.6339L15.6246 26.8555L15.7678 27.1706L16.0888 27.0377C15.9702 27.3577 16.0196 27.7122 16.227 27.983L16.4196 28.2293L16.6764 28.5543L16.9628 28.2489C17.1505 28.0619 17.2986 27.8452 17.4023 27.6039L17.4616 27.407L17.3233 27.2543V27.2247L17.4814 26.9688L18.6221 27.2346L18.8789 27.2937L19.0172 27.0672L19.0912 26.9441C19.0912 26.9195 19.0912 26.9145 19.1604 26.9145H19.2838C19.674 26.9933 20.069 27.0328 20.4641 27.0377C20.7307 27.0524 20.9974 27.0229 21.2542 26.9441L21.8863 27.663L21.511 28.8152V28.8841C20.948 28.8743 20.4098 29.1057 20.0295 29.5144C19.4221 28.9137 18.9925 28.8497 17.3678 28.8497C15.4172 28.8497 14.0986 27.7122 14.0986 25.8953V21.4638H25.9505V25.8953ZM26.2715 14.2601C26.069 14.7377 25.9604 15.2498 25.9406 15.7717V19.0904C25.511 18.9969 25.19 18.6326 25.1604 18.1944V18.0417H25.0122C24.7554 18.022 24.5184 17.9038 24.3406 17.7216C24.1233 17.4705 24.0048 17.1554 23.9999 16.8254C23.7875 17.1701 23.8073 17.6132 24.0542 17.9383C24.2468 18.1795 24.5283 18.342 24.8344 18.3814C24.9233 18.9525 25.3826 19.3958 25.9554 19.4696V21.0945H23.8814C23.3382 20.8188 23.111 20.1737 23.353 19.6173L23.432 19.44L23.2493 19.3711C22.6567 19.1643 22.3307 18.5292 22.5184 17.9284L22.5579 17.7807L22.4196 17.7166C21.9011 17.4163 21.6147 16.8304 21.6986 16.2396C21.427 16.5152 21.3579 16.9338 21.5307 17.2784C21.432 17.3917 21.3036 17.5246 21.1604 17.6724C20.6419 17.5641 20.2665 17.116 20.2468 16.5891V16.466L20.1332 16.4217C19.832 16.3331 19.5851 16.1263 19.4419 15.8505C19.348 15.624 19.3283 15.368 19.3925 15.1316C19.4912 15.1513 19.59 15.1661 19.6888 15.176C19.7875 15.1808 19.8912 15.1808 19.99 15.176C20.79 15.176 21.5505 14.8313 22.0838 14.2404L26.2715 14.2601ZM23.0715 10.902L23.8814 11.3944L24.0838 11.5125C23.6641 11.6258 23.2838 11.8523 22.9826 12.1674L22.948 12.1969C22.8789 12.2708 22.8147 12.3447 22.7505 12.4235L22.711 12.4727C22.6468 12.5515 22.5875 12.6352 22.5332 12.7238L22.5036 12.7682C22.4344 12.8666 22.3702 12.975 22.3061 13.0833C21.8567 13.9746 20.9826 14.5703 19.99 14.6688C18.9974 14.5703 18.1233 13.9746 17.674 13.0833C17.6098 12.975 17.5456 12.8716 17.4814 12.7682L17.4419 12.714L17.2838 12.458L17.2394 12.4037C17.1752 12.325 17.111 12.2512 17.0468 12.1822L17.0122 12.1478C16.711 11.8326 16.3307 11.6061 15.911 11.4929L16.1184 11.3746L16.9332 10.8823L17.7678 10.3899L19.9949 11.5963L22.2221 10.4293L23.0715 10.902ZM21.9752 9.91718L20.2023 10.8479V7.06133L22.6073 6.24889L21.9752 9.91718ZM19.9999 6.66249L17.3628 5.60877C17.5851 5.07699 18.6221 4.62399 19.9999 4.62399C21.3777 4.62399 22.4147 5.07699 22.6369 5.60877L19.9999 6.66249Z" fill="#222220"/>
</svg>
