<svg width="1440" height="467" viewBox="0 0 1440 467" fill="none" xmlns="http://www.w3.org/2000/svg">
<path d="M2050.13 442.644C2063.17 450.621 2081.32 456.647 2100.73 459.436L2152.09 466.816L2061.74 410.364C2046.5 400.84 2025 393.627 2001.97 390.318L1953.13 383.298L2050.13 442.644ZM1819.96 364.161L1868.8 371.181C1891.83 374.49 1913.33 381.697 1928.57 391.226L2018.91 447.679L1967.56 440.299C1948.15 437.509 1930 431.483 1916.95 423.507L1819.96 364.161ZM1686.78 345.023L1735.63 352.043C1758.66 355.352 1780.15 362.559 1795.4 372.088L1885.74 428.541L1834.39 421.161C1814.98 418.372 1796.82 412.346 1783.78 404.369L1686.78 345.023ZM1553.61 325.886L1602.46 332.905C1625.49 336.214 1646.98 343.422 1662.22 352.951L1752.57 409.404L1701.22 402.024C1681.81 399.234 1663.65 393.208 1650.61 385.231L1553.61 325.886ZM1420.44 306.748L1469.29 313.768C1492.3 317.075 1513.81 324.284 1529.05 333.813L1619.4 390.266L1568.05 382.886C1548.64 380.096 1530.48 374.071 1517.44 366.094L1420.44 306.748ZM1287.27 287.61L1336.12 294.63C1359.13 297.937 1380.63 305.145 1395.88 314.676L1486.23 371.128L1434.88 363.748C1415.46 360.959 1397.31 354.933 1384.27 346.956L1287.27 287.61ZM1154.1 268.473L1202.95 275.493C1225.97 278.802 1247.47 286.009 1262.71 295.538L1353.06 351.991L1301.71 344.611C1282.29 341.821 1264.14 335.795 1251.1 327.818L1154.1 268.473ZM1020.93 249.335L1069.78 256.355C1092.8 259.664 1114.3 266.871 1129.54 276.4L1219.89 332.853L1168.54 325.473C1149.12 322.684 1130.97 316.658 1117.93 308.681L1020.93 249.335ZM887.758 230.198L936.606 237.217C959.632 240.526 981.128 247.734 996.369 257.263L1086.72 313.715L1035.36 306.336C1015.95 303.546 997.798 297.52 984.758 289.543L887.758 230.198ZM754.587 211.06L803.435 218.08C826.448 221.387 847.957 228.596 863.198 238.125L953.547 294.578L902.193 287.198C882.781 284.408 864.627 278.383 851.587 270.406L754.587 211.06ZM621.416 191.922L670.264 198.942C693.277 202.249 714.773 209.457 730.027 218.988L820.376 275.44L769.022 268.06C749.61 265.271 731.456 259.245 718.416 251.268L621.416 191.922ZM488.245 172.785L537.093 179.805C560.119 183.113 581.616 190.321 596.856 199.85L687.205 256.303L635.851 248.923C616.439 246.133 598.285 240.107 585.245 232.13L488.245 172.785ZM355.074 153.647L403.922 160.667C426.948 163.976 448.445 171.183 463.685 180.712L554.034 237.165L502.68 229.785C483.268 226.995 465.115 220.97 452.074 212.993L355.074 153.647ZM221.903 134.51L270.751 141.529C293.777 144.838 315.274 152.046 330.514 161.575L420.863 218.027L369.509 210.648C350.097 207.858 331.944 201.832 318.903 193.855L221.903 134.51ZM88.732 115.372L137.58 122.392C160.593 125.699 182.103 132.908 197.343 142.437L287.692 198.89L236.338 191.51C216.926 188.72 198.773 182.695 185.732 174.718L88.732 115.372ZM-44.439 96.2343L4.40905 103.254C27.4217 106.561 48.9185 113.769 64.1722 123.3L154.521 179.752L103.167 172.372C83.7548 169.583 65.6017 163.557 52.561 155.58L-44.439 96.2343ZM-177.61 77.0967L-128.762 84.1165C-105.736 87.4255 -84.2392 94.6329 -68.9988 104.162L21.3498 160.615L-30.0035 153.235C-49.4162 150.445 -67.5696 144.419 -80.6105 136.442L-177.61 77.0967ZM-310.781 57.9591L-261.933 64.9789C-238.907 68.2879 -217.41 75.4953 -202.17 85.0243L-111.821 141.477L-163.175 134.097C-182.587 131.307 -200.741 125.282 -213.781 117.305L-310.781 57.9591ZM-443.952 38.8215L-395.104 45.8413C-372.078 49.1503 -350.581 56.3576 -335.341 65.8867L-244.992 122.339L-296.346 114.96C-315.758 112.17 -333.912 106.144 -346.952 98.1672L-443.952 38.8215ZM-577.123 19.6839L-528.275 26.7037C-505.249 30.0127 -483.752 37.22 -468.512 46.7491L-378.163 103.202L-429.517 95.8219C-448.929 93.0322 -467.083 87.0065 -480.123 79.0296L-577.123 19.6839ZM-710.294 0.546269L-661.446 7.56604C-638.433 10.8731 -616.923 18.0824 -601.683 27.6115L-511.334 84.0642L-562.688 76.6843C-582.1 73.8946 -600.254 67.8689 -613.294 59.892L-710.294 0.546269Z" fill="#A39700"/>
</svg>
