<svg width="2864" height="467" viewBox="0 0 2864 467" fill="none" xmlns="http://www.w3.org/2000/svg">
<path d="M2761.15 442.098C2774.19 450.075 2792.35 456.1 2811.76 458.89L2863.11 466.27L2772.76 409.817C2757.52 400.294 2736.03 393.081 2713 389.772L2664.15 382.752L2761.15 442.098ZM2530.98 363.614L2579.83 370.634C2602.86 373.943 2624.35 381.151 2639.59 390.68L2729.94 447.132L2678.59 439.752C2659.18 436.963 2641.02 430.937 2627.98 422.96L2530.98 363.614ZM2397.81 344.477L2446.66 351.497C2469.69 354.806 2491.18 362.013 2506.42 371.542L2596.77 427.995L2545.42 420.615C2526.01 417.825 2507.85 411.799 2494.81 403.823L2397.81 344.477ZM2264.64 325.339L2313.49 332.359C2336.51 335.668 2358.01 342.875 2373.25 352.404L2463.6 408.857L2412.25 401.477C2392.83 398.688 2374.68 392.662 2361.64 384.685L2264.64 325.339ZM2131.47 306.202L2180.32 313.221C2203.33 316.528 2224.84 323.738 2240.08 333.267L2330.43 389.72L2279.08 382.34C2259.66 379.55 2241.51 373.524 2228.47 365.547L2131.47 306.202ZM1998.3 287.064L2047.15 294.084C2070.16 297.391 2091.66 304.598 2106.91 314.129L2197.26 370.582L2145.9 363.202C2126.49 360.412 2108.34 354.387 2095.3 346.41L1998.3 287.064ZM1865.13 267.926L1913.98 274.946C1937 278.255 1958.5 285.463 1973.74 294.992L2064.09 351.444L2012.73 344.064C1993.32 341.275 1975.17 335.249 1962.13 327.272L1865.13 267.926ZM1731.96 248.789L1780.8 255.809C1803.83 259.118 1825.33 266.325 1840.57 275.854L1930.92 332.307L1879.56 324.927C1860.15 322.137 1842 316.111 1828.96 308.135L1731.96 248.789ZM1598.79 229.651L1647.63 236.671C1670.66 239.98 1692.16 247.187 1707.4 256.716L1797.75 313.169L1746.39 305.789C1726.98 303 1708.83 296.974 1695.79 288.997L1598.79 229.651ZM1465.61 210.514L1514.46 217.533C1537.47 220.84 1558.98 228.05 1574.23 237.579L1664.57 294.031L1613.22 286.652C1593.81 283.862 1575.65 277.836 1562.61 269.859L1465.61 210.514ZM1332.44 191.376L1381.29 198.396C1404.3 201.703 1425.8 208.91 1441.05 218.441L1531.4 274.894L1480.05 267.514C1460.64 264.724 1442.48 258.699 1429.44 250.722L1332.44 191.376ZM1199.27 172.238L1248.12 179.258C1271.15 182.567 1292.64 189.774 1307.88 199.304L1398.23 255.756L1346.88 248.376C1327.47 245.587 1309.31 239.561 1296.27 231.584L1199.27 172.238ZM1066.1 153.101L1114.95 160.121C1137.98 163.43 1159.47 170.637 1174.71 180.166L1265.06 236.619L1213.71 229.239C1194.3 226.449 1176.14 220.423 1163.1 212.446L1066.1 153.101ZM932.93 133.963L981.778 140.983C1004.8 144.292 1026.3 151.499 1041.54 161.028L1131.89 217.481L1080.54 210.101C1061.12 207.311 1042.97 201.286 1029.93 193.309L932.93 133.963ZM799.759 114.826L848.607 121.845C871.62 125.152 893.13 132.362 908.37 141.891L998.719 198.343L947.366 190.964C927.953 188.174 909.8 182.148 896.759 174.171L799.759 114.826ZM666.588 95.6879L715.436 102.708C738.449 106.015 759.946 113.222 775.2 122.753L865.548 179.206L814.195 171.826C794.782 169.036 776.629 163.011 763.588 155.034L666.588 95.6879ZM533.417 76.5503L582.265 83.5701C605.291 86.8791 626.788 94.0865 642.029 103.616L732.377 160.068L681.024 152.688C661.611 149.899 643.458 143.873 630.417 135.896L533.417 76.5503ZM400.246 57.4127L449.094 64.4325C472.12 67.7415 493.617 74.9489 508.858 84.4779L599.206 140.931L547.853 133.551C528.44 130.761 510.287 124.735 497.246 116.758L400.246 57.4127ZM267.076 38.2751L315.923 45.2949C338.949 48.6039 360.446 55.8113 375.687 65.3403L466.035 121.793L414.682 114.413C395.269 111.623 377.116 105.598 364.075 97.6208L267.076 38.2751ZM133.904 19.1375L182.752 26.1573C205.778 29.4663 227.275 36.6737 242.516 46.2027L332.864 102.655L281.511 95.2756C262.098 92.4859 243.945 86.4601 230.904 78.4832L133.904 19.1375ZM0.733424 -0.000117424L49.5812 7.01965C72.5941 10.3268 94.104 17.536 109.345 27.0651L199.693 83.5178L148.34 76.1379C128.927 73.3482 110.774 67.3225 97.7329 59.3456L0.733424 -0.000117424Z" fill="#A39700"/>
</svg>
