<svg width="1440" height="1227" viewBox="0 0 1440 1227" fill="none" xmlns="http://www.w3.org/2000/svg">
<path d="M-3416.64 1159.83C-3457.64 1183.54 -3514.34 1200.83 -3574.69 1207.99L-3734.33 1226.94L-3450.15 1058.94C-3402.21 1030.6 -3335.07 1009.89 -3263.49 1001.4L-3111.63 983.375L-3416.64 1159.83ZM-2697.63 934.238L-2849.49 952.262C-2921.07 960.758 -2988.21 981.447 -3036.15 1009.8L-3320.34 1177.8L-3160.69 1158.85C-3100.34 1151.69 -3043.65 1134.41 -3002.64 1110.69L-2697.63 934.238ZM-2283.64 885.101L-2435.49 903.124C-2507.08 911.621 -2574.22 932.31 -2622.16 960.667L-2906.34 1128.66L-2746.69 1109.71C-2686.35 1102.55 -2629.65 1085.27 -2588.65 1061.55L-2283.64 885.101ZM-1869.64 835.964L-2021.5 853.987C-2093.08 862.483 -2160.22 883.172 -2208.16 911.53L-2492.34 1079.53L-2332.7 1060.58C-2272.35 1053.41 -2215.65 1036.13 -2174.65 1012.41L-1869.64 835.964ZM-1455.65 786.826L-1607.5 804.85C-1679.04 813.341 -1746.22 834.035 -1794.16 862.393L-2078.35 1030.39L-1918.7 1011.44C-1858.35 1004.28 -1801.66 986.994 -1760.65 963.277L-1455.65 786.826ZM-1041.65 737.689L-1193.51 755.713C-1265.05 764.204 -1332.19 784.893 -1380.17 813.256L-1664.35 981.251L-1504.71 962.303C-1444.36 955.14 -1387.66 937.857 -1346.66 914.139L-1041.65 737.689ZM-627.653 688.552L-779.509 706.576C-851.091 715.072 -918.232 735.761 -966.171 764.119L-1250.36 932.114L-1090.71 913.165C-1030.36 906.003 -973.666 888.72 -932.661 865.002L-627.653 688.552ZM-213.657 639.415L-365.513 657.439C-437.095 665.935 -504.236 686.624 -552.174 714.981L-836.359 882.977L-676.714 864.028C-616.365 856.866 -559.67 839.582 -518.664 815.865L-213.657 639.415ZM200.339 590.278L48.4832 608.301C-23.0988 616.798 -90.2397 637.486 -138.178 665.844L-422.363 833.839L-262.718 814.891C-202.369 807.728 -145.674 790.445 -104.668 766.728L200.339 590.278ZM614.336 541.14L462.48 559.164C390.939 567.655 323.756 588.349 275.818 616.707L-8.36705 784.702L151.279 765.754C211.628 758.591 268.322 741.308 309.328 717.591L614.336 541.14ZM1028.33 492.003L876.477 510.027C804.935 518.518 737.794 539.207 689.814 567.57L405.629 735.565L565.275 716.617C625.624 709.454 682.318 692.171 723.324 668.454L1028.33 492.003ZM1442.33 442.866L1290.47 460.89C1218.89 469.386 1151.75 490.075 1103.81 518.433L819.625 686.428L979.271 667.48C1039.62 660.317 1096.31 643.034 1137.32 619.316L1442.33 442.866ZM1856.32 393.729L1704.47 411.753C1632.89 420.249 1565.74 440.938 1517.81 469.296L1233.62 637.291L1393.27 618.342C1453.62 611.18 1510.31 593.896 1551.32 570.179L1856.32 393.729ZM2270.32 344.592L2118.46 362.615C2046.88 371.112 1979.74 391.801 1931.8 420.158L1647.62 588.154L1807.26 569.205C1867.61 562.042 1924.31 544.759 1965.31 521.042L2270.32 344.592ZM2684.32 295.454L2532.46 313.478C2460.92 321.969 2393.74 342.663 2345.8 371.021L2061.61 539.016L2221.26 520.068C2281.61 512.905 2338.3 495.622 2379.31 471.905L2684.32 295.454ZM3098.31 246.317L2946.46 264.341C2874.92 272.832 2807.77 293.521 2759.79 321.884L2475.61 489.879L2635.26 470.931C2695.6 463.768 2752.3 446.485 2793.3 422.768L3098.31 246.317ZM3512.31 197.18L3360.45 215.204C3288.87 223.7 3221.73 244.389 3173.79 272.747L2889.61 440.742L3049.25 421.794C3109.6 414.631 3166.3 397.348 3207.3 373.63L3512.31 197.18ZM3926.31 148.043L3774.45 166.067C3702.87 174.563 3635.73 195.252 3587.79 223.61L3303.6 391.605L3463.25 372.657C3523.6 365.494 3580.29 348.211 3621.3 324.493L3926.31 148.043ZM4340.3 98.9058L4188.45 116.93C4116.86 125.426 4049.72 146.115 4001.78 174.473L3717.6 342.468L3877.24 323.519C3937.59 316.357 3994.29 299.073 4035.29 275.356L4340.3 98.9058ZM4754.3 49.7685L4602.44 67.7924C4530.86 76.2885 4463.72 96.9775 4415.78 125.335L4131.59 293.33L4291.24 274.382C4351.59 267.219 4408.28 249.936 4449.29 226.219L4754.3 49.7685ZM5168.29 0.631404L5016.44 18.6552C4944.9 27.1464 4877.71 47.8403 4829.78 76.1982L4545.59 244.193L4705.24 225.245C4765.59 218.082 4822.28 200.799 4863.29 177.082L5168.29 0.631404Z" fill="#FFED00"/>
</svg>
