<svg width="8904" height="1227" viewBox="0 0 8904 1227" fill="none" xmlns="http://www.w3.org/2000/svg">
<path d="M318.551 1159.19C277.545 1182.91 220.851 1200.19 160.502 1207.36L0.856417 1226.31L285.041 1058.31C332.982 1029.97 400.121 1009.26 471.703 1000.77L623.559 982.744L318.551 1159.19ZM1037.56 933.607L885.7 951.63C814.117 960.126 746.976 980.815 699.037 1009.17L414.853 1177.17L574.498 1158.22C634.847 1151.06 691.542 1133.77 732.547 1110.06L1037.56 933.607ZM1451.55 884.469L1299.7 902.493C1228.11 910.989 1160.97 931.678 1113.03 960.036L828.849 1128.03L988.494 1109.08C1048.84 1101.92 1105.54 1084.64 1146.54 1060.92L1451.55 884.469ZM1865.55 835.332L1713.69 853.356C1642.11 861.852 1574.97 882.541 1527.03 910.899L1242.85 1078.89L1402.49 1059.95C1462.84 1052.78 1519.53 1035.5 1560.54 1011.78L1865.55 835.332ZM2279.54 786.195L2127.69 804.219C2056.15 812.71 1988.96 833.404 1941.03 861.762L1656.84 1029.76L1816.49 1010.81C1876.84 1003.65 1933.53 986.363 1974.54 962.645L2279.54 786.195ZM2693.54 737.058L2541.68 755.082C2470.14 763.573 2403 784.262 2355.02 812.625L2070.84 980.62L2230.48 961.671C2290.83 954.509 2347.53 937.225 2388.53 913.508L2693.54 737.058ZM3107.54 687.921L2955.68 705.944C2884.1 714.441 2816.96 735.129 2769.02 763.487L2484.83 931.482L2644.48 912.534C2704.83 905.371 2761.52 888.088 2802.53 864.371L3107.54 687.921ZM3521.53 638.783L3369.68 656.807C3298.09 665.303 3230.95 685.992 3183.01 714.35L2898.83 882.345L3058.47 863.397C3118.82 856.234 3175.52 838.951 3216.52 815.234L3521.53 638.783ZM3935.53 589.646L3783.67 607.67C3712.09 616.166 3644.95 636.855 3597.01 665.213L3312.83 833.208L3472.47 814.26C3532.82 807.097 3589.52 789.814 3630.52 766.097L3935.53 589.646ZM4349.52 540.509L4197.67 558.533C4126.13 567.024 4058.95 587.718 4011.01 616.076L3726.82 784.071L3886.47 765.123C3946.82 757.96 4003.51 740.677 4044.52 716.959L4349.52 540.509ZM4763.52 491.372L4611.67 509.396C4540.12 517.887 4472.98 538.576 4425 566.939L4140.82 734.934L4300.46 715.985C4360.81 708.823 4417.51 691.54 4458.51 667.822L4763.52 491.372ZM5177.52 442.235L5025.66 460.258C4954.08 468.755 4886.94 489.443 4839 517.801L4554.81 685.797L4714.46 666.848C4774.81 659.685 4831.5 642.402 4872.51 618.685L5177.52 442.235ZM5591.51 393.098L5439.66 411.121C5368.08 419.617 5300.93 440.306 5253 468.664L4968.81 636.659L5128.46 617.711C5188.81 610.548 5245.5 593.265 5286.5 569.548L5591.51 393.098ZM6005.51 343.96L5853.65 361.984C5782.07 370.48 5714.93 391.169 5666.99 419.527L5382.81 587.522L5542.45 568.574C5602.8 561.411 5659.5 544.128 5700.5 520.411L6005.51 343.96ZM6419.51 294.823L6267.65 312.847C6196.11 321.338 6128.93 342.032 6080.99 370.39L5796.8 538.385L5956.45 519.437C6016.8 512.274 6073.49 494.991 6114.5 471.274L6419.51 294.823ZM6833.5 245.686L6681.65 263.71C6610.1 272.201 6542.96 292.89 6494.98 321.253L6210.8 489.248L6370.44 470.3C6430.79 463.137 6487.49 445.854 6528.49 422.136L6833.5 245.686ZM7247.5 196.549L7095.64 214.573C7024.06 223.069 6956.92 243.758 6908.98 272.116L6624.8 440.111L6784.44 421.162C6844.79 414 6901.49 396.716 6942.49 372.999L7247.5 196.549ZM7661.49 147.412L7509.64 165.435C7438.06 173.931 7370.91 194.62 7322.98 222.978L7038.79 390.973L7198.44 372.025C7258.79 364.862 7315.48 347.579 7356.49 323.862L7661.49 147.412ZM8075.49 98.2744L7923.63 116.298C7852.05 124.794 7784.91 145.483 7736.97 173.841L7452.79 341.836L7612.43 322.888C7672.78 315.725 7729.48 298.442 7770.48 274.725L8075.49 98.2744ZM8489.49 49.1372L8337.63 67.1611C8266.05 75.6572 8198.91 96.3462 8150.97 124.704L7866.78 292.699L8026.43 273.751C8086.78 266.588 8143.47 249.305 8184.48 225.588L8489.49 49.1372ZM8903.48 5.63127e-05L8751.63 18.0238C8680.09 26.515 8612.9 47.2089 8564.96 75.5669L8280.78 243.562L8440.43 224.614C8500.78 217.451 8557.47 200.168 8598.48 176.45L8903.48 5.63127e-05Z" fill="#FFED00"/>
</svg>
